<?xml version="1.0" encoding="UTF-8" standalone="no"?>
<!-- Created with Inkscape (http://www.inkscape.org/) -->

<svg
   xmlns:dc="http://purl.org/dc/elements/1.1/"
   xmlns:cc="http://creativecommons.org/ns#"
   xmlns:rdf="http://www.w3.org/1999/02/22-rdf-syntax-ns#"
   xmlns:svg="http://www.w3.org/2000/svg"
   xmlns="http://www.w3.org/2000/svg"
   xmlns:sodipodi="http://sodipodi.sourceforge.net/DTD/sodipodi-0.dtd"
   xmlns:inkscape="http://www.inkscape.org/namespaces/inkscape"
   id="svg4136"
   version="1.1"
   inkscape:version="0.91 r13725"
   width="256"
   height="256"
   viewBox="0 0 256 256"
   sodipodi:docname="Internet Properties.svg"
   inkscape:export-filename="C:\Users\Administrator\Desktop\Internet Properties.png"
   inkscape:export-xdpi="91.720367"
   inkscape:export-ydpi="91.720367">
  <metadata
     id="metadata4142">
    <rdf:RDF>
      <cc:Work
         rdf:about="">
        <dc:format>image/svg+xml</dc:format>
        <dc:type
           rdf:resource="http://purl.org/dc/dcmitype/StillImage" />
      </cc:Work>
    </rdf:RDF>
  </metadata>
  <defs
     id="defs4140">
    <linearGradient
       gradientTransform="matrix(-0.08458661,-0.08458661,-0.08458661,0.08458661,135.08298,98.552603)"
       gradientUnits="userSpaceOnUse"
       id="gradient0"
       spreadMethod="pad"
       x1="-819.20001"
       x2="819.20001">
      <stop
         offset="0.0"
         stop-color="#003399"
         id="stop4093" />
      <stop
         offset="0.47058823529411764"
         stop-color="#0099ff"
         id="stop4095" />
      <stop
         offset="1.0"
         stop-color="#ccffff"
         id="stop4097" />
    </linearGradient>
    <radialGradient
       cx="0"
       cy="0"
       gradientTransform="matrix(0.1878482,0,0,0.1878482,123.2738,50.766661)"
       gradientUnits="userSpaceOnUse"
       id="gradient1"
       r="819.20001"
       spreadMethod="pad">
      <stop
         offset="0.0"
         stop-color="#ffffff"
         id="stop4100" />
      <stop
         offset="0.0784313725490196"
         stop-color="#ccffff"
         id="stop4102" />
      <stop
         offset="0.2980392156862745"
         stop-color="#0099ff"
         id="stop4104" />
      <stop
         offset="0.5372549019607843"
         stop-color="#0066cc"
         id="stop4106" />
      <stop
         offset="0.7529411764705882"
         stop-color="#003399"
         id="stop4108" />
      <stop
         offset="1.0"
         stop-color="#9999ff"
         id="stop4110" />
    </radialGradient>
    <radialGradient
       cx="0"
       cy="0"
       gradientTransform="matrix(0.00604191,0,0,0.00604191,96.085259,18.085468)"
       gradientUnits="userSpaceOnUse"
       id="gradient2"
       r="819.20001"
       spreadMethod="pad">
      <stop
         offset="0.0"
         stop-color="#00bf00"
         id="stop4113" />
      <stop
         offset="0.9294117647058824"
         stop-color="#006600"
         id="stop4115" />
    </radialGradient>
    <radialGradient
       cx="0"
       cy="0"
       gradientTransform="matrix(0.01592866,0,0,0.01592866,107.89442,21.38105)"
       gradientUnits="userSpaceOnUse"
       id="gradient3"
       r="819.20001"
       spreadMethod="pad">
      <stop
         offset="0.0"
         stop-color="#00bf00"
         id="stop4118" />
      <stop
         offset="0.9294117647058824"
         stop-color="#006600"
         id="stop4120" />
    </radialGradient>
    <radialGradient
       cx="0"
       cy="0"
       gradientTransform="matrix(5.4926375e-4,0,0,5.4926375e-4,104.32421,11.768934)"
       gradientUnits="userSpaceOnUse"
       id="gradient4"
       r="819.20001"
       spreadMethod="pad">
      <stop
         offset="0.0"
         stop-color="#00bf00"
         id="stop4123" />
      <stop
         offset="0.9294117647058824"
         stop-color="#006600"
         id="stop4125" />
    </radialGradient>
    <radialGradient
       cx="0"
       cy="0"
       gradientTransform="matrix(0.00823896,0,0,0.00823896,111.46463,13.691358)"
       gradientUnits="userSpaceOnUse"
       id="gradient5"
       r="819.20001"
       spreadMethod="pad">
      <stop
         offset="0.0"
         stop-color="#00bf00"
         id="stop4128" />
      <stop
         offset="0.9294117647058824"
         stop-color="#006600"
         id="stop4130" />
    </radialGradient>
    <radialGradient
       cx="0"
       cy="0"
       gradientTransform="matrix(0.03899773,0,0,0.03899773,143.0473,29.894638)"
       gradientUnits="userSpaceOnUse"
       id="gradient6"
       r="819.20001"
       spreadMethod="pad">
      <stop
         offset="0.0"
         stop-color="#00bf00"
         id="stop4133" />
      <stop
         offset="0.9294117647058824"
         stop-color="#006600"
         id="stop4135" />
    </radialGradient>
    <radialGradient
       cx="0"
       cy="0"
       gradientTransform="matrix(0.00494338,0,0,0.00494338,87.022398,21.655683)"
       gradientUnits="userSpaceOnUse"
       id="gradient7"
       r="819.20001"
       spreadMethod="pad">
      <stop
         offset="0.0"
         stop-color="#00bf00"
         id="stop4138" />
      <stop
         offset="0.9294117647058824"
         stop-color="#006600"
         id="stop4140" />
    </radialGradient>
    <radialGradient
       cx="0"
       cy="0"
       gradientTransform="matrix(0.0016478,0,0,0.0016478,116.64074,46.569607)"
       gradientUnits="userSpaceOnUse"
       id="gradient8"
       r="819.20001"
       spreadMethod="pad">
      <stop
         offset="0.0"
         stop-color="#00bf00"
         id="stop4143" />
      <stop
         offset="0.9294117647058824"
         stop-color="#006600"
         id="stop4145" />
    </radialGradient>
    <radialGradient
       cx="0"
       cy="0"
       gradientTransform="matrix(0.01702718,0,0,0.01702718,120.52749,36.408227)"
       gradientUnits="userSpaceOnUse"
       id="gradient9"
       r="819.20001"
       spreadMethod="pad">
      <stop
         offset="0.0"
         stop-color="#00bf00"
         id="stop4148" />
      <stop
         offset="0.9294117647058824"
         stop-color="#006600"
         id="stop4150" />
    </radialGradient>
    <radialGradient
       cx="0"
       cy="0"
       gradientTransform="matrix(0.00933749,0,0,0.00933749,170.5105,46.921815)"
       gradientUnits="userSpaceOnUse"
       id="gradient10"
       r="819.20001"
       spreadMethod="pad">
      <stop
         offset="0.0"
         stop-color="#00bf00"
         id="stop4153" />
      <stop
         offset="0.9294117647058824"
         stop-color="#006600"
         id="stop4155" />
    </radialGradient>
    <radialGradient
       cx="0"
       cy="0"
       gradientTransform="matrix(0.07360134,0,0,0.07360134,198.24832,96.630186)"
       gradientUnits="userSpaceOnUse"
       id="gradient11"
       r="819.20001"
       spreadMethod="pad">
      <stop
         offset="0.0"
         stop-color="#00bf00"
         id="stop4158" />
      <stop
         offset="0.9294117647058824"
         stop-color="#006600"
         id="stop4160" />
    </radialGradient>
    <radialGradient
       cx="0"
       cy="0"
       gradientTransform="matrix(0.00109853,0,0,0.00109853,189.73472,85.644905)"
       gradientUnits="userSpaceOnUse"
       id="gradient12"
       r="819.20001"
       spreadMethod="pad">
      <stop
         offset="0.0"
         stop-color="#00bf00"
         id="stop4163" />
      <stop
         offset="0.9294117647058824"
         stop-color="#006600"
         id="stop4165" />
    </radialGradient>
    <radialGradient
       cx="0"
       cy="0"
       gradientTransform="matrix(0.00219706,0,0,0.00219706,162.82079,104.04524)"
       gradientUnits="userSpaceOnUse"
       id="gradient13"
       r="819.20001"
       spreadMethod="pad">
      <stop
         offset="0.0"
         stop-color="#00bf00"
         id="stop4168" />
      <stop
         offset="0.9294117647058824"
         stop-color="#006600"
         id="stop4170" />
    </radialGradient>
    <radialGradient
       cx="0"
       cy="0"
       gradientTransform="matrix(5.4926375e-4,0,0,5.4926375e-4,133.94254,102.59451)"
       gradientUnits="userSpaceOnUse"
       id="gradient14"
       r="819.20001"
       spreadMethod="pad">
      <stop
         offset="0.0"
         stop-color="#00bf00"
         id="stop4173" />
      <stop
         offset="0.9294117647058824"
         stop-color="#006600"
         id="stop4175" />
    </radialGradient>
    <radialGradient
       cx="0"
       cy="0"
       gradientTransform="matrix(0.00274631,0,0,0.00274631,131.19623,102.59451)"
       gradientUnits="userSpaceOnUse"
       id="gradient15"
       r="819.20001"
       spreadMethod="pad">
      <stop
         offset="0.0"
         stop-color="#00bf00"
         id="stop4178" />
      <stop
         offset="0.9294117647058824"
         stop-color="#006600"
         id="stop4180" />
    </radialGradient>
    <radialGradient
       cx="0"
       cy="0"
       gradientTransform="matrix(0.00274631,0,0,0.00274631,135.04108,105.34082)"
       gradientUnits="userSpaceOnUse"
       id="gradient16"
       r="819.20001"
       spreadMethod="pad">
      <stop
         offset="0.0"
         stop-color="#00bf00"
         id="stop4183" />
      <stop
         offset="0.9294117647058824"
         stop-color="#006600"
         id="stop4185" />
    </radialGradient>
    <radialGradient
       cx="0"
       cy="0"
       gradientTransform="matrix(5.4926375e-4,0,0,5.4926375e-4,135.04108,102.59451)"
       gradientUnits="userSpaceOnUse"
       id="gradient17"
       r="819.20001"
       spreadMethod="pad">
      <stop
         offset="0.0"
         stop-color="#00bf00"
         id="stop4188" />
      <stop
         offset="0.9294117647058824"
         stop-color="#006600"
         id="stop4190" />
    </radialGradient>
    <radialGradient
       cx="0"
       cy="0"
       gradientTransform="matrix(0.0016478,0,0,0.0016478,122.95728,94.904819)"
       gradientUnits="userSpaceOnUse"
       id="gradient18"
       r="819.20001"
       spreadMethod="pad">
      <stop
         offset="0.0"
         stop-color="#00bf00"
         id="stop4193" />
      <stop
         offset="0.9294117647058824"
         stop-color="#006600"
         id="stop4195" />
    </radialGradient>
    <radialGradient
       cx="0"
       cy="0"
       gradientTransform="matrix(0.00109853,0,0,0.00109853,120.48559,94.080921)"
       gradientUnits="userSpaceOnUse"
       id="gradient19"
       r="819.20001"
       spreadMethod="pad">
      <stop
         offset="0.0"
         stop-color="#00bf00"
         id="stop4198" />
      <stop
         offset="0.9294117647058824"
         stop-color="#006600"
         id="stop4200" />
    </radialGradient>
    <radialGradient
       cx="0"
       cy="0"
       gradientTransform="matrix(0.0016478,0,0,0.0016478,122.13338,97.651133)"
       gradientUnits="userSpaceOnUse"
       id="gradient20"
       r="819.20001"
       spreadMethod="pad">
      <stop
         offset="0.0"
         stop-color="#00bf00"
         id="stop4203" />
      <stop
         offset="0.9294117647058824"
         stop-color="#006600"
         id="stop4205" />
    </radialGradient>
    <radialGradient
       cx="0"
       cy="0"
       gradientTransform="matrix(0.00933749,0,0,0.00933749,121.03485,100.39745)"
       gradientUnits="userSpaceOnUse"
       id="gradient21"
       r="819.20001"
       spreadMethod="pad">
      <stop
         offset="0.0"
         stop-color="#00bf00"
         id="stop4208" />
      <stop
         offset="0.9294117647058824"
         stop-color="#006600"
         id="stop4210" />
    </radialGradient>
    <radialGradient
       cx="0"
       cy="0"
       gradientTransform="matrix(0.0016478,0,0,0.0016478,124.60507,97.101868)"
       gradientUnits="userSpaceOnUse"
       id="gradient22"
       r="819.20001"
       spreadMethod="pad">
      <stop
         offset="0.0"
         stop-color="#00bf00"
         id="stop4213" />
      <stop
         offset="0.9294117647058824"
         stop-color="#006600"
         id="stop4215" />
    </radialGradient>
    <radialGradient
       cx="0"
       cy="0"
       gradientTransform="matrix(0.15544164,0,0,0.15544164,115.03485,46.372551)"
       gradientUnits="userSpaceOnUse"
       id="gradient23"
       r="819.20001"
       spreadMethod="pad">
      <stop
         offset="0.0"
         stop-color="#00bf00"
         id="stop4218" />
      <stop
         offset="0.9294117647058824"
         stop-color="#006600"
         id="stop4220" />
    </radialGradient>
    <linearGradient
       gradientTransform="matrix(0,0.0469082,0.08514859,0,74.363773,202.65545)"
       gradientUnits="userSpaceOnUse"
       id="gradient18-6"
       spreadMethod="pad"
       x1="-819.20001"
       x2="819.20001">
      <stop
         offset="0.0"
         stop-color="#9999cc"
         id="stop175" />
      <stop
         offset="1.0"
         stop-color="#666699"
         id="stop177" />
    </linearGradient>
    <radialGradient
       cx="0"
       cy="0"
       gradientTransform="matrix(0.1300173,0,0,0.1300173,36.633264,192.20309)"
       gradientUnits="userSpaceOnUse"
       id="gradient19-6"
       r="819.20001"
       spreadMethod="pad">
      <stop
         offset="0.0"
         stop-color="#ffffff"
         id="stop180" />
      <stop
         offset="0.2823529411764706"
         stop-color="#dddddd"
         id="stop182" />
      <stop
         offset="1.0"
         stop-color="#9999cc"
         id="stop184" />
    </radialGradient>
    <linearGradient
       gradientTransform="matrix(-0.07189192,-0.07189192,-0.07954,0.07954,81.501977,109.34892)"
       gradientUnits="userSpaceOnUse"
       id="gradient20-6"
       spreadMethod="pad"
       x1="-819.20001"
       x2="819.20001">
      <stop
         offset="0.0"
         stop-color="#6666cc"
         id="stop187" />
      <stop
         offset="1.0"
         stop-color="#999999"
         id="stop189" />
    </linearGradient>
    <linearGradient
       gradientTransform="matrix(-0.04996744,-0.04996744,-0.07699064,0.07699064,90.934604,113.93777)"
       gradientUnits="userSpaceOnUse"
       id="gradient21-3"
       spreadMethod="pad"
       x1="-819.20001"
       x2="819.20001">
      <stop
         offset="0.0"
         stop-color="#9999cc"
         id="stop192" />
      <stop
         offset="1.0"
         stop-color="#ffffff"
         id="stop194" />
    </linearGradient>
    <radialGradient
       cx="0"
       cy="0"
       gradientTransform="matrix(0.16366885,0,0,0.16366885,80.737173,44.595198)"
       gradientUnits="userSpaceOnUse"
       id="gradient22-3"
       r="819.20001"
       spreadMethod="pad">
      <stop
         offset="0.0"
         stop-color="#ccffff"
         id="stop197" />
      <stop
         offset="0.09411764705882353"
         stop-color="#ccffff"
         id="stop199" />
      <stop
         offset="1.0"
         stop-color="#0099ff"
         id="stop201" />
    </radialGradient>
    <linearGradient
       gradientTransform="matrix(-0.05863525,0.03110217,0.00407898,0.00815795,92.209288,154.47257)"
       gradientUnits="userSpaceOnUse"
       id="gradient23-3"
       spreadMethod="pad"
       x1="-819.20001"
       x2="819.20001">
      <stop
         offset="0.0"
         stop-color="#6666cc"
         id="stop204" />
      <stop
         offset="0.0784313725490196"
         stop-color="#9999cc"
         id="stop206" />
      <stop
         offset="1.0"
         stop-color="#ffffff"
         id="stop208" />
    </linearGradient>
    <linearGradient
       gradientTransform="matrix(-0.0290627,0,0,0.04537859,95.778399,186.59449)"
       gradientUnits="userSpaceOnUse"
       id="gradient24"
       spreadMethod="pad"
       x1="-819.20001"
       x2="819.20001">
      <stop
         offset="0.0"
         stop-color="#666699"
         id="stop211" />
      <stop
         offset="1.0"
         stop-color="#9999cc"
         id="stop213" />
    </linearGradient>
    <linearGradient
       gradientTransform="matrix(0,0.04588846,0.03059231,0,96.033329,187.3593)"
       gradientUnits="userSpaceOnUse"
       id="gradient25"
       spreadMethod="pad"
       x1="-819.20001"
       x2="819.20001">
      <stop
         offset="0.0"
         stop-color="#333399"
         id="stop216" />
      <stop
         offset="0.28627450980392155"
         stop-color="#6666cc"
         id="stop218" />
      <stop
         offset="1.0"
         stop-color="#cccccc"
         id="stop220" />
    </linearGradient>
    <linearGradient
       gradientTransform="matrix(-0.00866782,0.02651333,0.02243436,0.0071382,83.7964,197.3018)"
       gradientUnits="userSpaceOnUse"
       id="gradient26"
       spreadMethod="pad"
       x1="-819.20001"
       x2="819.20001">
      <stop
         offset="0.0"
         stop-color="#9999cc"
         id="stop223" />
      <stop
         offset="1.0"
         stop-color="#eeeeee"
         id="stop225" />
    </linearGradient>
  </defs>
  <sodipodi:namedview
     pagecolor="#ffffff"
     bordercolor="#666666"
     borderopacity="1"
     objecttolerance="10"
     gridtolerance="10"
     guidetolerance="10"
     inkscape:pageopacity="0"
     inkscape:pageshadow="2"
     inkscape:window-width="1920"
     inkscape:window-height="1033"
     id="namedview4138"
     showgrid="false"
     inkscape:zoom="3.3789062"
     inkscape:cx="95.176363"
     inkscape:cy="123.21398"
     inkscape:window-x="-4"
     inkscape:window-y="-4"
     inkscape:window-maximized="1"
     inkscape:current-layer="svg4136" />
  <path
     inkscape:connector-curvature="0"
     style="fill:url(#gradient0);fill-rule:evenodd;stroke:none"
     id="path3998"
     d="m 37.03939,98.552603 q 0,40.370877 28.561723,69.207227 28.836346,28.56171 69.481867,28.56171 40.37089,0 69.20722,-28.56171 28.56174,-28.83635 28.56174,-69.207227 0,-40.64551 -28.56174,-69.207229 -28.83633,-28.56171509 -69.20722,-28.56171509 -40.645521,0 -69.481867,28.56171509 Q 37.03939,57.907093 37.03939,98.552603" />
  <path
     inkscape:connector-curvature="0"
     style="fill:url(#gradient1);fill-rule:evenodd;stroke:none"
     id="path4000"
     d="m 42.532031,98.552603 q 0,38.173827 26.913929,65.362387 27.188559,27.18856 65.63702,27.18856 38.17383,0 65.63702,-27.18856 26.91392,-27.18856 26.91392,-65.362387 0,-38.448461 -26.91392,-65.637014 -27.46319,-27.1885571 -65.63702,-27.1885571 -38.448461,0 -65.63702,27.1885571 -26.913929,27.188553 -26.913929,65.637014" />
  <path
     inkscape:connector-curvature="0"
     style="fill:url(#gradient2);fill-rule:evenodd;stroke:none"
     id="path4002"
     d="m 94.712089,15.33915 1.92243,0 0,1.098527 -0.54926,0 0,3.02095 0.54926,0 0,-1.373159 3.844851,0 0,2.471687 -1.098541,0 0,0.549264 -3.29557,0 0,-0.549264 -1.922431,0 0,-0.549264 -0.54927,0 0,-1.373159 -0.54926,0 0,-0.549264 -1.09852,0 0,-0.549264 -0.54927,0 0,-0.549264 1.09853,0 0,-0.549264 1.09852,0 0,-0.549262 1.098531,0 0,-0.549264" />
  <path
     inkscape:connector-curvature="0"
     style="fill:url(#gradient3);fill-rule:evenodd;stroke:none"
     id="path4004"
     d="m 98.282299,13.691358 1.6478,0 0,-0.549263 0.549271,0 0,1.098527 1.09853,0 0,0.549264 0.54925,0 0,0.549264 2.19706,0 0,1.098527 0.54927,0 0,1.098527 1.09851,0 0,0.549264 0.8239,0 0,0.549264 2.19706,0 0,-0.549264 2.19705,0 0,0.549264 2.19706,0 0,0.823895 1.09853,0 0,3.844847 3.57022,0 0,1.098527 0.54926,0 0,1.647791 -5.76727,0 0,-2.197055 -1.6478,0 0,-0.549263 -1.09852,0 0,0.549263 -4.11949,0 0,0.549264 -0.54925,0 0,1.647791 -0.54926,0 0,0.549264 -0.54927,0 0,0.549264 -1.09853,0 0,0.549264 -0.54927,0 0,1.64779 -1.64778,0 0,-3.844845 -0.54926,0 0,-1.098528 0.54926,0 0,-0.549264 0.54927,0 0,-1.098527 1.09851,0 0,-4.668742 -0.54926,0 0,-0.549264 -0.54925,0 0,0.549264 -0.54927,0 0,-0.549264 -1.647801,0 0,-2.197054 -2.19704,0 0,-1.098528 1.09851,0 0,-0.549264" />
  <path
     inkscape:connector-curvature="0"
     style="fill:url(#gradient4);fill-rule:evenodd;stroke:none"
     id="path4006"
     d="m 104.32421,11.494302 0,0.549263 -0.54927,0 0,-0.549263 0.54927,0" />
  <path
     inkscape:connector-curvature="0"
     style="fill:url(#gradient5);fill-rule:evenodd;stroke:none"
     id="path4008"
     d="m 113.38706,10.395774 1.64779,0 0,0.549264 0.54926,0 0,0.549264 0.54927,0 0,2.197056 1.37316,0 0,1.647792 -0.54926,0 0,1.098527 -0.8239,0 0,0.549263 -0.54927,0 0,1.098528 -3.84484,0 0,-1.647791 -0.54927,0 0,-0.549263 0.54927,0 0,-1.098528 -1.09853,0 0,-0.549264 0.54926,0 0,-0.549264 -0.54926,0 0,-1.098529 -0.54926,0 0,0.549266 -1.64779,0 0,-0.549266 -1.09853,0 0,-0.549264 -0.54927,0 0,-0.549263 -1.37315,0 0,-0.549264 1.92242,0 0,-0.549264 2.19706,0 0,1.098528 1.09852,0 0,0.549263 0.54926,0 0,-1.647791 0.54927,0 0,-1.0985274 1.64779,0 0,1.0985274" />
  <path
     inkscape:connector-curvature="0"
     style="fill:url(#gradient6);fill-rule:evenodd;stroke:none"
     id="path4010"
     d="m 119.70359,8.4733511 2.19706,0 0,-0.5492641 2.19705,0 0,-0.5492641 0.54927,0 0,-0.5492628 3.02094,0 0,0.5492628 1.6478,0 0,-0.5492628 3.84484,0 0,0.5492628 0.54927,0 0,0.5492641 0.54926,0 0,0.5492641 0.54927,0 0,2.4716869 0.54926,0 0,0.549264 0.54927,0 0,0.549263 -1.09853,0 0,0.549264 -1.09853,0 0,0.549266 1.64779,0 0,-0.549266 3.02095,0 0,-0.549264 2.74632,0 0,-0.549263 2.74632,0 0,-0.549264 0.54927,0 0,-0.549264 1.64778,0 0,-0.5492633 0.54927,0 0,-0.5492641 1.92242,0 0,-0.8238955 1.09852,0 0,-0.5492641 6.31654,0 0,0.5492641 2.19705,0 0,0.8238955 2.19706,0 0,0.5492641 2.47168,0 0,0.5492633 0.54927,0 0,1.098528 -0.54927,0 0,0.549263 3.2956,0 0,1.647793 -0.54927,0 0,0.549264 -0.54927,0 0,0.549264 -0.54926,0 0,0.549264 1.09853,0 0,-0.549264 0.54927,0 0,-0.549264 0.54925,0 0,-1.647793 2.74633,0 0,0.549266 1.09853,0 0,1.098527 -0.54927,0 0,1.647792 -0.54926,0 0,0.549262 -1.09854,0 0,0.549264 -0.54926,0 0,1.098528 -0.54927,0 0,0.549264 2.74633,0 0,0.823895 -0.54926,0 0,0.549264 -4.39412,0 0,0.549264 -0.54926,0 0,1.647792 0.54926,0 0,-0.549264 1.09854,0 0,-1.098528 2.19704,0 0,0.549264 0.54927,0 0,1.098528 -2.19706,0 0,1.64779 -1.09852,0 0,-0.549263 -1.09853,0 0,1.647791 -0.54927,0 0,0.549264 0.54927,0 0,2.197055 0.54926,0 0,-1.098528 0.54927,0 0,-2.197055 1.64778,0 0,0.549264 1.6478,0 0,1.098527 0.54927,0 0,1.098528 0.54926,0 0,0.549264 0.54927,0 0,1.098528 -2.74633,0 0,0.549262 0.54926,0 0,0.823897 0.54927,0 0,1.647791 -0.54927,0 0,0.549264 -0.54926,0 0,0.549263 -0.54927,0 0,0.549264 -0.54926,0 0,0.549264 -1.64779,0 0,2.197055 0.54927,0 0,0.549263 0.54927,0 0,2.197056 -0.54927,0 0,1.373158 -0.54927,0 0,0.549264 -1.64779,0 0,0.549265 -0.54927,0 0,0.549264 -1.92241,0 0,0.549262 -1.09853,0 0,-0.549262 -0.54927,0 0,0.549262 -0.54926,0 0,0.549265 -2.19705,0 0,1.098528 -0.54927,0 0,0.549263 -0.54926,0 0,0.549264 -0.54927,0 0,0.549263 -1.64778,0 0,0.549264 -1.6478,0 0,1.098528 -0.54926,0 0,1.647791 -1.37317,0 0,1.922423 -0.54926,0 0,1.64779 -2.47168,0 0,-0.549261 -2.74632,0 0,-0.549264 -0.54926,0 0,-0.549265 -0.54927,0 0,-1.37316 -0.54926,0 0,-0.549263 -0.54927,0 0,-1.098527 -0.54926,0 0,-1.098528 -0.54927,0 0,-1.098528 -0.54925,0 0,-2.197054 -0.54927,0 0,-0.549264 0.54927,0 0,-0.549265 0.54925,0 0,-1.098526 1.09853,0 0,-0.549265 0.54927,0 0,-0.549264 -0.54927,0 0,-0.823895 -1.64778,0 0,-0.549263 -0.54927,0 0,-0.549264 0.54927,0 0,-0.549264 -2.19706,0 0,-0.549264 0.54926,0 0,-0.549264 0.54927,0 0,-4.394109 -0.54927,0 0,-0.549264 -0.54926,0 0,-1.647791 -0.54927,0 0,-0.823897 -0.8239,0 0,-0.549262 -4.39411,0 0,0.549262 -1.64778,0 0,0.823897 -1.09853,0 0,-1.373159 -3.57021,0 0,-1.098528 -0.54927,0 0,-1.647792 2.47168,0 0,-0.549263 -0.54925,0 0,-0.549264 -1.37316,0 0,-0.549264 -1.09853,0 0,-0.549264 -0.54927,0 0,-0.549263 0.54927,0 0,-0.549264 0.54926,0 0,-0.549263 3.02095,0 0,-0.549264 0.54926,0 0,-0.549264 2.19706,0 0,-0.549264 0.54927,0 0,-0.549264 -0.54927,0 0,-1.373159 -1.64779,0 0,-1.098528 0.54926,0 0,-1.098528 -0.54926,0 0,0.549264 -2.19705,0 0,0.549264 -0.8239,0 0,1.098528 -0.54926,0 0,0.823895 -0.54927,0 0,0.549264 -0.54926,0 0,0.549264 -1.09854,0 0,0.549264 -0.54925,0 0,1.647791 -1.09853,0 0,0.549264 -2.19706,0 0,-0.549264 -2.19705,0 0,-0.549263 -1.37316,0 0,-0.549264 -0.54927,0 0,-1.098528 0.54927,0 0,-0.549264 0.8239,0 0,-1.373159 0.54926,0 0,-0.549264 0.54927,0 0,-0.549264 0.54926,0 0,-0.549264 1.09852,0 0,-1.098526 0.54927,0 0,-1.647792 -0.54927,0 0,-1.098527 2.19706,0 0,0.549263 0.54927,0 0,-1.098529 2.74631,0 0,-0.549264 -4.94337,0 0,-0.549263 -1.09854,0 0,-2.1970554 0.54927,0 0,-0.8238955 m 42.56794,30.4841399 0.54926,0 0,-0.549264 -0.54926,0 0,0.549264" />
  <path
     inkscape:connector-curvature="0"
     style="fill:url(#gradient7);fill-rule:evenodd;stroke:none"
     id="path4012"
     d="m 84.550709,21.655683 0,-0.549264 1.373159,0 0,-0.549264 0.54927,0 0,-0.549264 1.09853,0 0,-0.549264 1.09853,0 0,0.549264 1.64778,0 0,0.549264 0.54927,0 0,1.098528 -0.54927,0 0,1.098527 -1.09853,0 0,0.549264 -2.19705,0 0,0.549263 -3.020939,0 0,-1.098527 -1.09854,0 0,-0.549263 1.09854,0 0,-0.549264 0.54925,0" />
  <path
     inkscape:connector-curvature="0"
     style="fill:url(#gradient8);fill-rule:evenodd;stroke:none"
     id="path4014"
     d="m 115.54222,46.020343 2.19705,0 0,1.098527 -2.19705,0 0,-1.098527" />
  <path
     inkscape:connector-curvature="0"
     style="fill:url(#gradient9);fill-rule:evenodd;stroke:none"
     id="path4016"
     d="m 111.73927,27.345374 0,-1.64779 5.21801,0 0,1.098528 0.54926,0 0,0.549262 -0.54926,0 0,0.823897 1.09853,0 0,0.549264 3.29558,0 0,0.549264 0.54926,0 0,1.098527 1.64778,0 0,1.098527 1.09854,0 0,0.549264 0.54926,0 0,1.098528 1.09853,0 0,2.746318 -1.09853,0 0,0.549264 1.09853,0 0,0.549264 1.37315,0 0,0.549263 0.54927,0 0,1.373159 1.64779,0 0,1.647791 0.54927,0 0,1.098529 -1.09853,0 0,0.549264 -1.6478,0 0,0.549263 -0.54925,0 0,0.549264 0.54925,0 0,1.098527 0.54927,0 0,2.197056 -1.09852,0 0,-0.549264 -0.8239,0 0,1.098527 -1.64779,0 0,-0.549263 -0.54927,0 0,-0.549264 -1.09852,0 0,-0.549264 -0.54926,0 0,-1.098528 -1.09853,0 0,-0.549264 -2.74632,0 0,-0.549263 -0.54926,0 0,-1.098527 0.54926,0 0,-1.098528 1.09852,0 0,0.549264 0.54927,0 0,-0.549264 0.54926,0 0,-1.647791 0.54927,0 0,-3.020951 -0.54927,0 0,-0.549264 -0.54926,0 0,-0.549264 -0.54927,0 0,-0.549264 -1.64778,0 0,-0.549263 -1.09853,0 0,2.197055 -0.8239,0 0,0.549264 -0.54927,0 0,-0.549264 -1.09852,0 0,-2.197055 -1.09853,0 0,-0.549263 -1.09853,0 0,-1.647792 -0.54926,0 0,-1.098528 -0.54927,0 0,-0.549263 -0.54926,0 0,-1.098527 0.54926,0 0,-1.922425 0.54927,0 m 3.29558,7.415061 0,1.098528 0.54926,0 0,-1.098528 -0.54926,0 m 10.71065,6.865798 0,-1.098529 -0.54927,0 0,1.098529 0.54927,0" />
  <path
     inkscape:connector-curvature="0"
     style="fill:url(#gradient10);fill-rule:evenodd;stroke:none"
     id="path4018"
     d="m 177.92555,45.823287 0,1.647792 -0.54926,0 0,0.549264 -0.54927,0 0,0.549264 -1.09853,0 0,0.549263 -1.09853,0 0,0.549263 -3.5702,0 0,0.823896 -2.74633,0 0,-0.823896 -1.64779,0 0,-0.549263 -0.54925,0 0,-0.549263 -1.09854,0 0,-0.549264 -1.64779,0 0,-1.098528 0.54926,0 0,-0.549264 0.54927,0 0,-0.549264 -1.09853,0 0,-1.098527 0.54926,0 0,-1.098527 0.54927,0 0,-0.549264 1.6478,0 0,0.549264 0.54925,0 0,0.549264 0.54926,0 0,0.549263 0.54927,0 0,-0.549263 0.54926,0 0,-0.549264 2.19707,0 0,0.549264 3.02094,0 0,-0.549264 2.19705,0 0,0.549264 0.54927,0 0,0.549263 0.54926,0 0,0.549264 0.54927,0 0,0.549263 0.54926,0" />
  <path
     inkscape:connector-curvature="0"
     style="fill:url(#gradient11);fill-rule:evenodd;stroke:none"
     id="path4020"
     d="m 181.22113,61.202672 0.8239,0 0,-1.922428 0.54927,0 0,-0.549253 2.19706,0 0,1.098518 -0.54927,0 0,0.823898 0.54927,0 0,0.549265 1.64778,0 0,4.668743 0.54927,0 0,0.549265 0.54925,0 0,1.098531 0.54926,0 0,0.549253 0.54927,0 0,0.549265 0.54926,0 0,2.197062 0.54927,0 0,-0.549266 0.54927,0 0,-0.549265 0.54926,0 0,-1.098531 0.54925,0 0,-1.098518 2.4717,0 0,-0.549265 1.09853,0 0,-2.197062 -0.54927,0 0,-2.471681 0.54927,0 0,-0.549265 0.54926,0 0,-0.549266 -2.74631,0 0,-0.549265 -0.54927,0 0,-1.922416 -0.82391,0 0,-1.098531 0.82391,0 0,-2.197061 -0.82391,0 0,-1.647784 0.82391,0 0,-0.549265 -0.82391,0 0,-0.549267 1.37318,0 0,-0.549261 0.54926,0 0,-0.549264 0.54926,0 0,-0.549265 1.09853,0 0,-0.549264 0.54926,0 0,-0.823896 0.54927,0 0,-0.549263 0.54926,0 0,-0.549263 0.54927,0 0,-0.549264 0.54926,0 0,-0.549264 0.54927,0 0,-1.098528 0.54925,0 0,-1.098527 0.54927,0 0,-1.098527 1.09853,0 0,-1.647793 0.54926,0 0,-1.098526 0.54927,0 0,-1.098529 0.54927,0 0,-1.922422 0.82388,0 0,-1.098528 0.54927,0 0,-0.549264 1.64779,0 0,0.549264 0.54927,0 0,0.549264 0.54925,0 0,0.549264 0.54927,0 0,0.549264 0.54926,0 0,1.373158 0.54927,0 0,0.549264 0.54926,0 0,0.549265 0.54927,0 0,0.549264 0.54926,0 0,1.098527 0.54927,0 0,0.549264 0.54926,0 0,1.098527 0.54926,0 0,0.549264 0.54926,0 0,0.549263 0.54927,0 0,1.098528 0.82389,0 0,0.549264 0.54926,0 0,1.098528 0.54926,0 0,0.549263 0.54927,0 0,1.373159 0.54926,0 0,1.098529 0.54927,0 0,0.549264 0.54926,0 0,1.098528 0.54927,0 0,1.09853 0.54926,0 0,1.098519 0.54927,0 0,1.09853 0.54927,0 0,1.098531 0.54925,0 0,1.098531 0.54926,0 0,1.098518 0.54927,0 0,1.373163 0.54926,0 0,1.647796 0.54927,0 0,1.098518 0.54926,0 0,1.922429 0.54927,0 0,1.098531 0.82389,0 0,1.647783 0.54926,0 0,1.647796 0.54927,0 0,1.647796 0.54926,0 0,2.197049 0.54927,0 0,2.471682 0.54926,0 0,2.197061 0.54926,0 0,2.746314 0.54926,0 0,2.746327 0.54927,0 0,28.287076 -1.09853,0 0,0.54926 0.54926,0 0,3.02095 -0.54926,0 0,2.74633 -0.54926,0 0,2.19705 -0.54926,0 0,2.19705 -0.54927,0 0,2.19704 -0.54926,0 0,1.37318 -0.54927,0 0,0.54925 -0.54926,0 0,1.09853 -0.82389,0 0,1.09853 0.82389,0 0,1.09853 -0.82389,0 0,1.09854 -0.54927,0 0,1.64778 -0.54926,0 0,1.09852 -0.54927,0 0,1.92243 -0.54926,0 0,1.09853 -0.54927,0 0,1.09853 -0.54926,0 0,1.09852 -0.54925,0 0,1.09853 -0.54927,0 0,1.09853 -0.54927,0 0,1.09853 -0.54926,0 0,1.09853 -0.54927,0 0,1.09852 -0.54926,0 0,0.54926 -0.54927,0 0,1.37315 -0.54926,0 0,1.09853 -0.54927,0 0,0.54927 -0.54926,0 0,1.09853 -0.54926,0 0,0.54926 -0.82389,0 0,1.09854 -0.54927,0 0,0.54925 -0.54926,0 0,0.54926 -0.54926,0 0,1.09853 -0.54926,0 0,0.54927 -0.54927,0 0,1.09853 -3.29559,0 0,0.82389 -2.74631,0 0,-0.82389 -1.37315,0 0,-2.74633 -0.54927,0 0,-1.09851 -0.54927,0 0,-0.54927 -0.54926,0 0,-0.54927 -0.54927,0 0,-2.19706 -0.54926,0 0,-1.09853 -0.54927,0 0,-1.92241 -0.54925,0 0,-1.64779 -0.54927,0 0,-1.64779 -0.54926,0 0,-1.09853 -0.54927,0 0,-1.09853 -0.54926,0 0,-1.64779 0.54926,0 0,-2.47169 1.09853,0 0,-1.09853 -0.54926,0 0,-0.54926 0.54926,0 0,-0.54926 0.54927,0 0,-1.64778 -0.54927,0 0,-1.09854 -0.54926,0 0,-0.54926 -0.54927,0 0,-2.19706 -0.54926,0 0,-0.54927 -0.54927,0 0,-1.92243 -1.09853,0 0,-0.54926 -0.54926,0 0,-2.19705 0.54926,0 0,-1.09852 0.54927,0 0,-1.64779 -0.54927,0 0,-0.54927 -3.57021,0 0,-0.54925 -1.09853,0 0,-0.54927 -2.74631,0 0,0.54927 -2.19705,0 0,0.54925 -0.54927,0 0,-0.54925 -4.11949,0 0,0.54925 -3.29558,0 0,-0.54925 -0.54926,0 0,-0.54927 -0.54927,0 0,-0.54926 -0.54926,0 0,-0.54927 -1.09853,0 0,-1.09853 -0.54926,0 0,-1.37315 -0.54926,0 0,-0.54927 -0.54927,0 0,-0.54926 -1.37315,0 0,-0.54927 -0.54926,0 0,-0.54926 -0.54927,0 0,-0.54927 -0.54926,0 0,-0.54926 -0.54927,0 0,-3.29558 0.54927,0 0,-0.54927 0.54926,0 0,-1.09853 -0.54926,0 0,-2.47168 -0.54927,0 0,-0.54927 0.54927,0 0,-1.09852 0.54926,0 0,-0.54926 1.09853,0 0,-2.746322 1.92242,0 0,-1.098531 0.54926,0 0,-0.549253 0.54926,0 0,-0.549265 1.09853,0 0,-0.549265 0.54926,0 0,-0.549265 0.54927,0 0,-0.549266 0.54926,0 0,-1.373163 0.54927,0 0,-1.098518 0.54926,0 0,-0.549266 0.54927,0 0,-0.549265 0.54925,0 0,-1.647796 0.54927,0 0,-0.549265 -0.54927,0 0,-1.098519 -1.09852,0 0,-7.964322 1.09852,0 0,-0.549265 1.09853,0 0,0.549265 5.21802,0 0,-3.295592 -0.54926,0 0,-0.549265 -0.54927,0 0,-0.549266 -0.54926,0 0,-0.549253 -1.09853,0 0,-1.922428 1.09853,0 0,-0.549265 1.64779,0 0,-0.549266 -2.19706,0 0,0.549266 -2.47169,0 0,-1.098519 0.54926,0 0,-0.549265 0.8239,0 0,-0.549265 1.09853,0 0,-0.549266 -1.09853,0 0,-0.549265 -0.8239,0 0,0.549265 -1.64779,0 0,0.549266 -2.19705,0 0,-3.29558 -1.09853,0 0,-1.098531 0.54926,0 0,-0.549265 1.09853,0 0,0.549265 0.54927,0 0,-1.647796 3.57021,0 0,-1.373163 -0.8239,0 0,-2.197049 m 16.47792,-3.570212 0,0.549265 -0.54926,0 0,0.549266 -0.54927,0 0,1.098518 -0.54926,0 0,0.823898 -0.54927,0 0,0.549265 1.09853,0 0,-0.549265 0.54927,0 0,1.647796 0.54926,0 0,1.098518 -0.54926,0 0,2.471694 2.74631,0 0,0.549265 2.19707,0 0,-0.549265 0.82388,0 0,-0.549265 1.09853,0 0,0.549265 0.54927,0 0,-0.549265 1.09853,0 0,-1.373164 0.54925,0 0,-1.647783 0.54927,0 0,-0.549265 0.54926,0 0,-0.549266 0.54927,0 0,-0.549265 0.54926,0 0,0.549265 0.54927,0 0,0.549266 0.54926,0 0,-1.098531 -0.54926,0 0,-2.471682 0.54926,0 0,-0.549265 -0.54926,0 0,-0.549265 -1.09853,0 0,-0.549266 -0.54927,0 0,-5.492636 -0.54926,0 0,0.549265 -1.09852,0 0,0.549264 -0.54927,0 0,0.549261 -0.54926,0 0,3.295581 1.09853,0 0,2.197061 -0.54927,0 0,0.549266 -0.54926,0 0,1.098518 -0.54927,0 0,1.373163 -0.54926,0 0,1.647796 -0.54927,0 0,1.098518 -1.37315,0 0,0.823898 -2.19706,0 0,-0.823898 -0.54927,0 0,-1.098518 -0.54925,0 0,-1.647796 -0.54927,0 0,-1.373163 0.54927,0 0,-2.197049 -0.54927,0 m 12.9077,-10.710645 -1.64779,0 0,0.549264 -0.54927,0 0,0.549264 -0.54926,0 0,2.471686 0.54926,0 0,-0.823896 0.54927,0 0,-0.549263 0.54926,0 0,-0.549263 0.54927,0 0,-0.549264 0.54926,0 0,-1.098528 m 2.47168,10.710645 0,-0.549265 0.54926,0 0,-0.549266 -1.37315,0 0,0.549266 -1.64779,0 0,0.549265 2.47168,0 m -12.0838,23.343702 0,1.098531 1.09854,0 0,0.549265 0.82388,0 0,0.549265 1.09853,0 0,1.098531 0.54927,0 0,2.471681 -0.54927,0 0,0.549266 -1.09853,0 0,0.549265 -1.37315,0 0,1.098531 -0.54927,0 0,-0.549266 -2.19706,0 0,-0.549265 -0.54925,0 0,-1.098531 1.64778,0 0,-2.471681 -1.09853,0 0,-0.549265 -0.54925,0 0,-1.098531 -1.09853,0 0,-0.549265 -0.54927,0 0,4.119477 -0.54926,0 0,0.549265 -1.6478,0 0,-3.570212 0.54927,0 0,-1.647796 -1.09853,0 0,0.549266 -2.4717,0 0,-0.549266 -0.54925,0 0,1.647796 -0.54926,0 0,0.549266 -1.6478,0 0,0.549265 -1.09853,0 0,1.922416 -0.54925,0 0,0.549265 -0.54927,0 0,2.197062 1.09852,0 0,-0.549266 3.84484,0 0,-0.549265 5.21802,0 0,0.549265 0.54927,0 0,3.29558 0.54926,0 0,0.549265 1.64779,0 0,0.549266 1.64779,0 0,0.549265 0.54927,0 0,1.098518 0.54927,0 0,0.823898 1.37315,0 0,0.549266 1.64779,0 0,-0.549266 -0.54926,0 0,-1.373163 0.54926,0 0,-0.549253 3.84485,0 0,0.549253 2.74631,0 0,0.549265 6.31654,0 0,-0.549265 0.54927,0 0,-0.549253 0.54925,0 0,-1.098531 0.54926,0 0,-0.549265 0.54927,0 0,-1.098531 -0.54927,0 0,-0.549265 -2.74631,0 0,-0.549265 -0.54927,0 0,0.549265 -2.19706,0 0,-0.549265 -1.09852,0 0,-0.549253 -0.82389,0 0,-1.098531 -0.54927,0 0,-0.549265 -0.54926,0 0,-2.197061 -0.54926,0 0,0.549265 -0.54926,0 0,2.197061 -0.54927,0 0,0.549265 -0.54926,0 0,1.098519 -1.6478,0 0,-0.549253 -0.54926,0 0,-0.549266 -0.54927,0 0,-1.09853 -0.54925,0 0,-2.197061 -0.54927,0 0,-1.922417 -0.54926,0 0,-0.549265 -1.09853,0 0,-0.549265 -0.54927,0 0,-0.549266 -0.82388,0 0,-0.549265 -1.09854,0 m 13.73159,17.576441 0,0.549265 1.09853,0 0,-1.098531 -0.54927,0 0,-0.549253 -0.54926,0 0,-0.549265 -0.54927,0 0,-0.549265 -0.54926,0 0,2.197049 1.09853,0 m -14.28085,-4.668743 0,0.549265 0.54926,0 0,-0.549265 -0.54926,0 m 18.67496,6.31654 0.54926,0 0,1.09853 0.54927,0 0,1.09852 0.54926,0 0,1.09852 0.54927,0 0,1.09854 0.54926,0 0,1.37316 0.54927,0 0,2.19705 1.37315,0 0,1.09853 0.54927,0 0,0.54926 0.54926,0 0,0.54927 1.09853,0 0,0.54925 0.54926,0 0,-1.09852 -0.54926,0 0,-1.64779 -0.54926,0 0,-0.54927 -0.54927,0 0,-1.64778 -0.54926,0 0,-0.54927 -0.54927,0 0,-0.82389 -0.54926,0 0,-1.09854 -0.82389,0 0,-1.09852 -0.54927,0 0,-1.09852 -0.54926,0 0,-0.54926 -0.54927,0 0,-1.098537 -0.54926,0 0,-0.549265 -0.54927,0 0,-0.549265 -1.09851,0 0,0.549265 0.54925,0 0,1.098532 m -36.52603,-33.77972 0,0.549266 -0.54927,0 0,0.549265 1.6478,0 0,-1.098531 -1.09853,0 m 1.64779,7.68969 0,1.373163 0.54927,0 0,0.549253 0.54926,0 0,-1.922416 -1.09853,0 m 4.94336,-2.197049 0,0.549253 -1.09853,0 0,0.549266 -1.09851,0 0,0.549265 3.84484,0 0,-0.549265 -0.54926,0 0,-1.098519 -1.09854,0 m -8.51358,17.576429 1.37316,0 0,0.549265 2.19706,0 0,-0.549265 1.09853,0 0,-1.098519 -2.19706,0 0,0.549266 -2.47169,0 0,0.549253" />
  <path
     inkscape:connector-curvature="0"
     style="fill:url(#gradient12);fill-rule:evenodd;stroke:none"
     id="path4022"
     d="m 190.28399,86.19417 -1.6478,0 0,-1.09853 1.6478,0 0,1.09853" />
  <path
     inkscape:connector-curvature="0"
     style="fill:url(#gradient13);fill-rule:evenodd;stroke:none"
     id="path4024"
     d="m 163.91932,103.49597 -0.54926,0 0,1.09854 -0.54927,0 0,0.82389 -1.09853,0 0,-1.92243 0.54927,0 0,-1.09852 1.64779,0 0,1.09852" />
  <path
     inkscape:connector-curvature="0"
     style="fill:url(#gradient14);fill-rule:evenodd;stroke:none"
     id="path4026"
     d="m 134.21718,102.04524 0,0.54927 -0.54927,0 0,-0.54927 0.54927,0" />
  <path
     inkscape:connector-curvature="0"
     style="fill:url(#gradient15);fill-rule:evenodd;stroke:none"
     id="path4028"
     d="m 131.19623,103.4184 -2.19705,0 0,-1.92243 4.11948,0 0,1.09854 -1.92243,0 0,0.82389" />
  <path
     inkscape:connector-curvature="0"
     style="fill:url(#gradient16);fill-rule:evenodd;stroke:none"
     id="path4030"
     d="m 134.21718,106.71398 0,-2.74631 0.54926,0 0,-0.54927 1.09853,0 0,3.84485 -1.09853,0 0,-0.54927 -0.54926,0" />
  <path
     inkscape:connector-curvature="0"
     style="fill:url(#gradient17);fill-rule:evenodd;stroke:none"
     id="path4032"
     d="m 135.31571,102.04524 0,0.54927 -0.54927,0 0,-0.54927 0.54927,0" />
  <path
     inkscape:connector-curvature="0"
     style="fill:url(#gradient18);fill-rule:evenodd;stroke:none"
     id="path4034"
     d="m 122.95728,95.454084 0,0.549253 -0.8239,0 0,-2.197048 1.37316,0 0,1.647795 -0.54926,0" />
  <path
     inkscape:connector-curvature="0"
     style="fill:url(#gradient19);fill-rule:evenodd;stroke:none"
     id="path4036"
     d="m 121.58411,94.355554 -2.19705,0 0,-0.549265 2.19705,0 0,0.549265" />
  <path
     inkscape:connector-curvature="0"
     style="fill:url(#gradient20);fill-rule:evenodd;stroke:none"
     id="path4038"
     d="m 121.58411,98.74967 0,-1.098537 -0.54926,0 0,-1.09853 1.92243,0 0,2.197067 -1.37317,0" />
  <path
     inkscape:connector-curvature="0"
     style="fill:url(#gradient21);fill-rule:evenodd;stroke:none"
     id="path4040"
     d="m 121.58411,98.74967 0,0.54926 1.37317,0 0,0.54926 1.09853,0 0,-0.54926 2.19705,0 0,1.09852 1.09853,0 0,0.54926 1.09853,0 0,1.6478 -1.6478,0 0,0.82389 -2.19705,0 0,-0.82389 -1.64779,0 0,-1.09854 -1.37317,0 0,0.54927 0.54927,0 0,1.37316 -1.09853,0 0,-2.47169 -1.64779,0 0,-0.54926 -1.09853,0 0,-0.54926 -0.54926,0 0,-0.54926 -1.64779,0 0,-0.54926 -0.54926,0 0,0.54926 -1.6478,0 0,-1.647797 1.09853,0 0,-0.549265 2.19705,0 0,0.549265 1.6478,0 0,0.549267 1.64779,0 0,0.54927 1.09852,0" />
  <path
     inkscape:connector-curvature="0"
     style="fill:url(#gradient22);fill-rule:evenodd;stroke:none"
     id="path4042"
     d="m 125.70359,96.552603 0,1.09853 -2.19705,0 0,-1.09853 2.19705,0" />
  <path
     inkscape:connector-curvature="0"
     style="fill:url(#gradient23);fill-rule:evenodd;stroke:none"
     id="path4044"
     d="m 109.54222,48.020343 -1.6478,0 0,-1.098528 -1.09853,0 0,-1.647791 0.54927,0 0,-1.098527 1.09853,0 0,-0.549264 0.54926,0 0,-0.549264 0.54927,0 0,1.098528 1.09852,0 0,0.549263 0.54926,0 0,0.549264 1.09853,0 0,1.098527 0.54927,0 0,0.549264 0.54926,0 0,0.549264 1.09853,0 0,-0.549264 0.54926,0 0,-0.549264 1.09853,0 0,2.197056 -1.64779,0 0,0.549263 0.54926,0 0,0.549263 3.57022,0 0,0.823896 0.54925,0 0,0.549264 0.54927,0 0,0.549265 1.09853,0 0,3.844841 0.54927,0 0,0.549265 1.64779,0 0,-0.549265 1.09852,0 0,-1.647784 0.54927,0 0,-0.549265 1.09853,0 0,1.09853 0.54926,0 0,1.098519 0.8239,0 0,1.09853 0.54925,0 0,1.647796 0.54927,0 0,1.098519 0.54926,0 0,0.549265 0.54927,0 0,1.922429 0.54926,0 0,0.549265 2.19705,0 0,0.549265 0.54927,0 0,0.549253 0.54926,0 0,1.373163 0.54927,0 0,2.197062 -0.54927,0 0,0.549265 -1.09853,0 0,0.549253 -0.54925,0 0,0.549265 -0.54927,0 0,0.549266 -0.54926,0 0,0.549265 -1.09853,0 0,-0.549265 -1.6478,0 0,0.549265 -4.11948,0 0,0.549265 1.6478,0 0,2.197049 -0.54926,0 0,1.647796 0.54926,0 0,0.823898 1.09853,0 0,0.549265 0.8239,0 0,0.549253 0.54925,0 0,1.098531 -1.37315,0 0,0.549265 -1.09853,0 0,0.549266 -2.19705,0 0,-0.549266 -1.09853,0 0,0.549266 -0.54926,0 0,0.549265 -0.54927,0 0,0.549265 0.54927,0 0,0.549266 0.54926,0 0,0.549265 -0.54926,0 0,0.549253 -3.84485,0 0,3.295592 -1.37316,0 0,1.373151 -1.09853,0 0,0.549265 0.54926,0 0,1.098531 -0.54926,0 0,0.549265 -0.54926,0 0,0.549265 -1.09853,0 0,1.098519 -0.54926,0 0,0.549265 -0.54927,0 0,0.549265 -1.09853,0 0,1.098531 -0.54926,0 0,2.197049 0.54926,0 0,1.373163 0.54927,0 0,1.098531 0.54926,0 0,1.647783 -0.54926,0 0,0.549266 -1.64779,0 0,-0.549266 -0.54926,0 0,-0.549253 -0.54927,0 0,-0.549265 -0.54926,0 0,-1.09853 -0.54927,0 0,-1.922429 -0.54926,0 0,-0.549253 -5.21801,0 0,0.549253 -4.943361,0 0,0.549265 -1.09853,0 0,0.823898 -0.8239,0 0,0.549266 -0.54927,0 0,2.197048 0.54927,0 0,1.647796 0.8239,0 0,1.098537 0.54926,0 0,1.64778 0.54927,0 0,0.54926 1.64778,0 0,0.54926 1.647801,0 0,-0.54926 1.09853,0 0,-0.54926 0.54925,0 0,-1.09852 1.64779,0 0,-0.54926 3.02095,0 0,1.64778 -0.8239,0 0,3.57022 3.57023,0 0,3.84484 -0.54927,0 0,0.54927 0.54927,0 0,1.09852 0.54926,0 0,0.54926 1.09852,0 0,0.54927 1.09853,0 0,-0.54927 2.19706,0 0,0.54927 0.54926,0 0,-0.54927 0.54926,0 0,-1.09853 0.54927,0 0,-0.54925 1.92243,0 0,-0.54927 1.09851,0 0,-0.54926 2.74633,0 0,1.09853 1.09853,0 0,0.54925 0.54925,0 0,0.54927 0.54927,0 0,-0.54927 3.57021,0 0,0.54927 1.09853,0 0,0.54926 0.54927,0 0,0.54927 0.54926,0 0,0.54926 0.54927,0 0,0.54927 0.54926,0 0,0.54926 0.54927,0 0,0.54927 1.09852,0 0,0.54925 2.19706,0 0,0.8239 0.54926,0 0,0.54927 1.09852,0 0,0.54926 0.8239,0 0,0.54927 0.54927,0 0,0.54926 0.54926,0 0,2.74632 4.94338,0 0,1.64778 1.64778,0 0,0.54927 2.19706,0 0,0.54926 1.92242,0 0,0.54925 0.54926,0 0,0.54927 1.37317,0 0,0.54926 1.09853,0 0,4.66876 -0.54927,0 0,0.54926 -0.54926,0 0,1.09854 -0.8239,0 0,0.54925 -0.54927,0 0,1.09853 -0.54926,0 0,1.09852 -0.54926,0 0,2.47169 -0.54926,0 0,2.74632 -0.8239,0 0,1.09853 -0.54926,0 0,0.54926 -0.54927,0 0,0.54927 -0.54926,0 0,0.54926 -0.54927,0 0,0.54927 -1.09852,0 0,0.54926 -2.19706,0 0,1.09852 -1.09853,0 0,0.54927 -0.54925,0 0,0.54926 -0.54927,0 0,1.92242 -0.54926,0 0,1.09853 -0.54927,0 0,1.09853 -0.54926,0 0,0.54926 -0.54927,0 0,1.64779 -0.8239,0 0,1.09853 -0.54925,0 0,1.09853 -0.54927,0 0,1.09853 -0.54926,0 0,0.82389 -3.29558,0 0,0.54926 0.54925,0 0,3.57023 -0.54925,0 0,0.54926 -1.09853,0 0,0.54927 -1.09853,0 0,-0.54927 -1.6478,0 0,1.64778 -0.54925,0 0,1.09854 -1.92243,0 0,0.54926 0.54927,0 0,1.6478 -0.54927,0 0,1.09851 -0.54926,0 0,1.64779 -0.54927,0 0,0.54926 -1.09852,0 0,1.92243 1.09852,0 0,2.74633 -0.54927,0 0,0.54925 -0.54925,0 0,0.54927 -0.54926,0 0,1.09853 -0.54927,0 0,0.54926 -0.54926,0 0,1.09853 0.54926,0 0,2.19705 0.54927,0 0,0.54927 0.54926,0 0,0.8239 1.64779,0 0,0.54925 0.54926,0 0,0.54926 0.54927,0 0,1.6478 -0.54927,0 0,1.09853 -1.09853,0 0,-0.54926 -1.09852,0 0,0.54926 -1.09853,0 0,-0.54926 -2.19706,0 0,-1.09853 -1.09852,0 0,-1.6478 1.09852,0 0,-1.37315 -0.54927,0 0,-0.54927 -1.09851,0 0,0.54927 -1.09853,0 0,-0.54927 -0.8239,0 0,-0.54926 -0.54927,0 0,-0.54926 -0.54926,0 0,-6.59117 0.54926,0 0,-2.47169 0.54927,0 0,-0.54927 0.8239,0 0,-4.39409 -0.8239,0 0,-1.09853 0.8239,0 0,-1.09854 0.54926,0 0,-0.54926 -0.54926,0 0,-4.11948 0.54926,0 0,-1.64779 0.54927,0 0,-3.02095 0.54926,0 0,-3.84485 0.54925,0 0,-1.64779 0.54927,0 0,-9.06284 -0.54927,0 0,-0.54927 -0.54925,0 0,-0.54926 -0.54926,0 0,-0.54927 -1.09853,0 0,-0.54926 -1.37317,0 0,-0.8239 -0.54926,0 0,-0.54927 -0.54926,0 0,-0.54926 -0.54926,0 0,-0.54926 -0.54927,0 0,-2.74631 -0.54926,0 0,-1.09853 -0.54927,0 0,-1.09853 -0.54926,0 0,-0.54927 -0.54927,0 0,-0.54926 -0.54926,0 0,-1.64779 -0.54926,0 0,-1.37317 0.54926,0 0,-2.19705 0.54926,0 0,-0.54925 1.09853,0 0,-1.09853 0.54927,0 0,-1.6478 0.54926,0 0,-1.09852 0.54927,0 0,-1.09853 0.54926,0 0,-2.47168 -0.54926,0 0,-0.54927 -2.19706,0 0,-0.54926 -3.84485,0 0,-0.54927 -1.09853,0 0,-1.64779 -0.8239,0 0,-1.09852 -0.54925,0 0,-0.54927 -1.09853,0 0,-0.54926 -1.6478,0 0,-0.54927 -0.54926,0 0,-0.54926 -0.54925,0 0,-0.54927 -0.54927,0 0,-0.54926 -6.316541,0 0,-1.09852 -2.746311,0 0,-0.54927 -1.09853,0 0,-0.82389 -2.19705,0 0,-0.54927 -1.09853,0 0,-1.64779 -0.54927,0 0,-2.19705 -0.54926,0 0,-0.549267 -0.54927,0 0,-0.549265 -1.373159,0 0,-1.098531 -1.09852,0 0,-0.549253 -0.54927,0 0,-1.09853 -1.09853,0 0,1.09853 0.54927,0 0,0.549253 0.54926,0 0,1.098531 0.54927,0 0,0.549265 0.54927,0 0,1.098537 -1.6478,0 0,-0.54927 -1.098531,0 0,-1.098532 -0.549266,0 0,-0.549265 -0.549265,0 0,-1.098519 -0.549253,0 0,-0.549265 -0.549265,0 0,-0.549265 -1.098531,0 0,-1.098531 -0.549265,0 0,-1.373163 -0.549266,0 0,-0.549253 -0.549265,0 0,-1.098531 -0.549265,0 0,-0.549265 -0.823886,0 0,-1.647796 -0.549265,0 0,-0.549265 -1.647796,0 0,-0.549253 -0.549266,0 0,-0.549266 -0.549265,0 0,-1.09853 -1.098518,0 0,-1.098531 -0.549265,0 0,-0.549265 -0.549266,0 0,-1.373151 -0.549268,0 0,-1.098531 -0.549265,0 0,-5.492641 0.549265,0 0,-2.746314 0.549268,0 0,-4.119477 -0.549268,0 0,-0.549266 -0.549265,0 0,-0.549265 -1.098531,0 0,-0.549265 -0.549253,0 0,-0.549266 -1.09853,0 0,-0.549265 -0.823898,0 0,-1.098518 -0.549265,0 0,-0.549266 -0.549266,0 0,-0.549265 -0.549265,0 0,-1.922429 -0.549265,0 0,-1.647783 0.549265,0 0,-0.549265 -1.098518,0 0,-0.549266 -0.549266,0 0,-1.922428 -1.09853,0 0,-1.098519 -0.549266,0 0,-0.549265 -0.549265,0 0,-0.549265 -1.647784,0 0,-0.549266 -2.471693,0 0,-0.549265 -0.549266,0 0,-0.549265 -0.549265,0 0,-1.098519 0.549265,0 0,-1.09853 0.549266,0 0,-1.098528 0.549265,0 0,-0.549264 0.549265,0 0,-1.098529 0.549265,0 0,-1.373159 0.823898,0 0,-0.549263 0.549266,0 0,-1.098528 0.549253,0 0,-0.549264 0.549265,0 0,-1.098528 0.549265,0 0,-0.549263 0.549266,0 0,-0.549264 0.549265,0 0,-1.098527 0.549265,0 0,-0.549264 0.549266,0 0,-1.098527 0.549253,0 0,-0.549264 0.549265,0 0,-0.549265 0.549265,0 0,-0.549264 0.549266,0 0,-1.373158 0.549265,0 0,-0.549264 0.823898,0 0,-0.549264 0.549265,0 0,-0.549264 0.549265,0 0,-0.549264 0.549253,0 0,-0.549263 0.549266,0 0,-0.549263 0.549265,0 0,-0.549264 0.549265,0 0,-0.549264 0.549268,0 0,-0.549264 0.549266,0 0,-0.549264 2.746314,0 0,0.549264 1.09853,0 0,0.549264 1.098531,0 0,0.549264 0.823886,0 0,0.549264 0.549265,0 0,0.549263 0.549265,0 0,-1.098527 1.098531,0 0,0.549264 0.549265,0 0,0.549263 0.549266,0 0,1.647791 -0.549266,0 0,0.549264 2.746315,0 0,-0.549264 1.098531,0 0,0.549264 0.54926,0 0,1.098527 0.54927,0 0,-0.549263 0.54927,0 0,-0.549264 -0.54927,0 0,-1.647792 0.54927,0 0,-0.549263 2.471679,0 0,-0.549263 0.54926,0 0,0.549263 0.54927,0 0,1.098527 1.64778,0 0,0.549264 0.54927,0 0,0.549264 0.54926,0 0,0.549264 0.54927,0 0,-0.549264 2.19705,0 0,-1.647792 3.570221,0 0,1.098528 -0.54926,0 0,0.549264 1.64778,0 0,-0.549264 0.54926,0 0,-1.098528 -0.54926,0 0,-0.549263 -0.54925,0 0,-1.098527 -0.54927,0 0,-0.549264 -1.37316,0 0,0.549264 -1.098531,0 0,-0.549264 -1.09853,0 0,-1.647792 -0.54926,0 0,1.098528 -0.54926,0 0,0.549264 -2.74633,0 0,-0.549264 -1.64778,0 0,0.549264 -3.020959,0 0,0.549264 -2.74632,0 0,-0.549264 -0.549261,0 0,-0.549264 -1.647784,0 0,-0.549264 -0.549265,0 0,-1.647791 4.39411,0 0,-0.549263 -1.09853,0 0,-0.549264 -1.098531,0 0,0.549264 -2.197049,0 0,-0.549264 -1.098531,0 0,-1.922423 -0.549265,0 0,-1.098528 -0.549266,0 0,0.549264 -1.09853,0 0,-0.549264 0.549265,0 0,-0.549264 1.098531,0 0,-0.549264 0.549265,0 0,-0.549264 0.549265,0 0,-0.549263 0.549266,0 0,-0.549264 0.549265,0 0,0.549264 0.549253,0 0,-1.098528 0.549265,0 0,-0.549264 0.549266,0 0,0.549264 1.098531,0 0,1.647791 0.54926,0 0,-1.098527 1.64779,0 0,0.549264 2.471689,0 0,0.549263 0.54927,0 0,-0.549263 1.64778,0 0,0.549263 0.54927,0 0,3.295582 0.54926,0 0,1.373161 1.6478,0 0,0.549264 1.64778,0 0,1.64779 1.098531,0 0,-1.098527 1.37317,0 0,-1.098527 0.54926,0 0,-0.549264 0.54927,0 0,-1.373159 -0.54927,0 0,0.549262 -3.020961,0 0,-0.549262 -1.09852,0 0,-1.098528 -0.54926,0 0,-0.549264 -0.54927,0 0,-0.549264 -0.54926,0 0,-1.647791 1.64779,0 0,-2.197055 0.54926,0 0,-0.549263 3.570221,0 0,0.549263 0.54927,0 0,4.943374 2.74631,0 0,2.471687 0.549271,0 0,2.197055 0.54926,0 0,2.746319 1.64778,0 0,0.549264 0.54927,0 0,-0.549264 1.09853,0 0,2.197054 0.54927,0 0,0.549264 0.54926,0 0,-1.647791 0.54925,0 0,-0.549263 0.8239,0 0,-0.549264 -0.8239,0 0,-1.647792 3.02096,0 0,1.647792 1.09853,0 0,1.64779 -0.54926,0 0,0.549264 -0.54927,0 0,0.549264 1.09853,0 0,3.02095 -0.54926,0 0,0.549265 -0.54927,0 0,1.098526 -2.19706,0 0,0.549265 -1.37315,0 0,-0.549265 -1.6478,0 0,0.549265 1.09854,0 0,1.647791 -0.54927,0 0,0.549264 -0.54927,0 0,1.098527 -0.54926,0 0,2.746319 -2.74631,0 0,0.549263 -1.098541,0 0,1.37316 -0.54926,0 0,0.549265 -0.54927,0 0,0.549264 -0.54926,0 0,0.549261 -0.54925,0 0,1.647797 -0.54927,0 0,1.098519 0.54927,0 0,0.549265 0.54925,0 0,0.549265 0.54926,0 0,-0.549265 0.54927,0 0,1.098531 0.54926,0 0,0.549265 1.098541,0 0,1.098531 0.54926,0 0,1.922416 0.54927,0 0,0.549265 0.54925,0 0,0.549266 5.21801,0 0,0.549265 0.54926,0 0,1.647783 0.54927,0 0,1.922429 0.54926,0 0,0.549265 0.54927,0 0,1.098531 0.54926,0 0,0.549253 0.54926,0 0,-0.549253 0.54926,0 0,-1.098531 -0.54926,0 0,-4.119477 0.54926,0 0,-0.549265 0.54927,0 0,-0.549266 0.54926,0 0,-0.549265 0.54927,0 0,-0.823898 -0.54927,0 0,-2.197049 -0.54926,0 0,-3.29558 0.54926,0 0,-1.647797 -0.54926,0 0,-2.197054 0.54926,0 0,-3.02095 -1.09853,0 0,-0.549264 -1.09852,0 0,0.549264 -0.54926,0 0,0.549264 m 28.28708,73.601337 0,-0.54926 -0.54927,0 0,0.54926 0.54927,0 m -1.37317,0 0,0.54927 0.8239,0 0,-0.54927 -0.8239,0 m -14.00621,-50.806889 -0.54927,0 0,0.549265 0.54927,0 0,-0.549265 m 1.09851,-0.549266 -0.54925,0 0,0.549266 0.54925,0 0,-0.549266 m -2.19704,1.647796 0,-0.549265 -0.54927,0 0,0.549265 0.54927,0 m -15.92865,1.098519 -1.09853,0 0,-0.549266 -0.54927,0 0,-0.549253 -1.64779,0 0,0.549253 -0.54925,0 0,0.549266 -0.54927,0 0,0.549265 2.19705,0 0,-0.549265 0.54926,0 0,0.549265 1.6478,0 0,-0.549265 m 1.92242,1.922428 0,0.549265 1.09853,0 0,1.647784 0.54926,0 0,-1.647784 0.54927,0 0,-0.549265 -2.19706,0 m 5.49264,2.197049 0.54926,0 0,-0.549265 -1.09853,0 0,1.647796 0.54927,0 0,-1.098531 m 1.64779,0 0.54926,0 0,-0.549265 -0.54926,0 0,0.549265 m -3.29559,-1.647784 -0.54926,0 0,0.549253 0.54926,0 0,-0.549253 m 0.54927,3.29558 0.54926,0 0,-0.549265 -2.19705,0 0,0.549265 -0.54926,0 0,0.549265 2.19705,0 0,-0.549265 m -2.19705,-3.29558 0,0.549253 0.54926,0 0,-0.549253 -0.54926,0 m -4.11948,1.098519 -0.54926,0 0,0.549265 -0.54927,0 0,1.647796 -0.54927,0 0,0.549265 1.09854,0 0,-1.647796 0.54926,0 0,-1.09853 m -25.815396,16.752555 -0.549265,0 0,0.549253 0.549265,0 0,-0.549253" />
  <path
     inkscape:connector-curvature="0"
     style="fill:url(#gradient18-6);fill-rule:evenodd;stroke:none"
     id="path42"
     d="m 29.749994,172.82795 0.764804,3.05924 -2.294423,1.01974 q -18.8652544,10.19743 -18.8652544,24.98372 0,14.78628 18.8652544,24.98372 18.865255,10.45237 45.888463,10.45237 26.768272,0 45.633532,-10.45237 18.86525,-10.19744 18.86525,-24.98372 0,-13.25667 -15.29615,-22.94423 l -0.25494,-4.33391 0.76482,0.50987 q 20.39487,11.47211 20.39487,27.27814 0,16.06096 -20.39487,27.27814 -20.39488,11.47212 -49.202642,11.47212 -28.807752,0 -49.45756,-11.47212 -20.3948744,-11.21718 -20.3948744,-27.27814 0,-15.80603 20.3948744,-27.27814 l 4.588846,-2.29443" />
  <path
     inkscape:connector-curvature="0"
     style="fill:url(#gradient19-6);fill-rule:evenodd;stroke:none"
     id="path44"
     d="m 30.514798,175.88719 1.274685,6.11846 q 1.784553,3.31417 6.628334,1.78455 l 30.84724,-12.7468 q 12.491855,27.53308 16.570832,51.24212 l 9.17769,6.62834 q 21.159681,-5.09873 29.062701,-15.04122 0.76481,-17.33565 -0.76481,-34.92622 15.29615,9.68756 15.29615,22.94423 0,14.78628 -18.86525,24.98372 -18.86526,10.45237 -45.633532,10.45237 -27.023208,0 -45.888463,-10.45237 -18.8652544,-10.19744 -18.8652544,-24.98372 0,-14.78629 18.8652544,-24.98372 l 2.294423,-1.01974" />
  <path
     inkscape:connector-curvature="0"
     style="fill:url(#gradient20-6);fill-rule:evenodd;stroke:none"
     id="path46"
     d="M 29.749994,172.82795 Q 2.9817203,59.38148 1.1971769,54.792633 -1.6071264,46.124813 8.5903156,43.83039 L 127.90031,22.415775 q 6.11847,-1.784552 7.39315,6.373396 l 11.98199,103.249049 q 0.7648,6.11845 -3.82404,7.90301 l -24.21891,10.19743 -3.56911,1.52962 -30.337371,12.7468 -5.35365,2.29442 -7.138204,2.80429 -0.509881,-0.25493 0.254935,0.50987 -3.314162,1.27467 -30.84724,12.7468 q -4.843781,1.52962 -6.628334,-1.78455 l -1.274685,-6.11846 -0.764804,-3.05924 M 10.88474,49.693915 128.66513,25.984877 q 2.54936,-2.549359 -3.05924,-1.274679 L 8.3353816,46.379749 q -3.824042,1.274679 -4.0789773,6.373397 l 29.5725667,127.977824 1.529608,1.52961 q 1.274685,0 0.509881,-2.80429 L 34.593775,173.8477 34.083906,171.0434 9.3551206,53.517954 10.88474,49.693915 M 140.64711,133.56783 128.15526,40.516223 19.297617,63.71539 40.967175,172.57302 q 0,2.80429 2.549358,1.78455 l 100.189807,-39.76999 -3.05923,-1.01975" />
  <path
     inkscape:connector-curvature="0"
     style="fill:url(#gradient21-3);fill-rule:evenodd;stroke:none"
     id="path48"
     d="M 10.88474,49.693915 9.3551206,53.517954 34.083906,171.0434 l 0.509869,2.8043 1.274685,5.60859 q 0.764804,2.80429 -0.509881,2.80429 L 33.828971,180.73097 4.2564043,52.753146 Q 4.5113396,47.654428 8.3353816,46.379749 L 125.60589,24.710198 q 5.6086,-1.27468 3.05924,1.274679 L 10.88474,49.693915" />
  <path
     inkscape:connector-curvature="0"
     style="fill:url(#gradient22-3);fill-rule:evenodd;stroke:none"
     id="path50"
     d="M 40.967175,172.57302 19.297617,63.71539 128.15526,40.516223 140.64711,133.56783 40.967175,172.57302 M 106.99557,54.027826 Q 90.1698,82.325711 75.383523,148.35411 l -2.039489,-2.8043 -2.294423,-3.31416 -3.059238,-3.82404 q -10.452366,-12.74679 -26.258394,-26.51333 15.806028,13.76654 26.258394,26.51333 l 3.059238,3.82404 2.294423,3.31416 2.039489,2.8043 Q 90.1698,82.325711 106.99557,54.027826" />
  <path
     inkscape:connector-curvature="0"
     style="fill:url(#gradient23-3);fill-rule:evenodd;stroke:none"
     id="path52"
     d="m 40.967175,172.57302 99.679935,-39.00519 3.05923,1.01975 -100.189807,39.76999 q -2.549358,1.01974 -2.549358,-1.78455" />
  <path
     inkscape:connector-curvature="0"
     style="fill:url(#gradient24);fill-rule:evenodd;stroke:none"
     id="path54"
     d="m 69.265057,171.0434 3.314162,-1.27467 q 7.648085,16.82576 9.687573,24.72878 l 7.138204,26.2584 1.529608,1.01973 4.078975,3.31418 0.25494,0 q 16.570831,-4.07898 25.748521,-12.7468 0,-18.35539 -1.78454,-35.69102 l -0.50988,-4.07898 -3.05923,-20.90474 3.56911,-1.52962 3.82403,24.47385 0.25494,4.33391 q 1.52962,17.59057 0.76481,34.92622 -7.90302,9.94249 -29.062701,15.04122 l -9.17769,-6.62834 Q 81.756912,198.57648 69.265057,171.0434" />
  <path
     inkscape:connector-curvature="0"
     style="fill:url(#gradient25);fill-rule:evenodd;stroke:none"
     id="path56"
     d="m 72.834165,169.51379 7.138204,-2.80429 5.35365,-2.29442 30.337371,-12.7468 3.05923,20.90474 0.50988,4.07898 q 1.78454,17.33563 1.78454,35.69102 -9.17769,8.66782 -25.748521,12.7468 -1.784541,-21.9245 -11.472119,-50.98718 l -10.962235,-4.58885 m 18.100439,52.26185 4.333915,3.31418 -0.25494,0 -4.078975,-3.31418" />
  <path
     inkscape:connector-curvature="0"
     style="fill:url(#gradient26);fill-rule:evenodd;stroke:none"
     id="path58"
     d="m 72.579219,169.76873 -0.254935,-0.50987 0.509881,0.25493 10.962235,4.58885 q 9.687578,29.06268 11.472119,50.98718 l -4.333915,-3.31418 -1.529608,-1.01973 -7.138204,-26.2584 q -2.039488,-7.90302 -9.687573,-24.72878" />
  <path
     style="fill:none;stroke:#982010;stroke-width:10.96224403;stroke-linecap:round;stroke-linejoin:round;stroke-opacity:1"
     inkscape:connector-curvature="0"
     id="path64"
     d="m 41.731979,111.89828 q 15.806028,13.76654 26.258394,26.51333 l 3.059238,3.82404 2.294423,3.31416 2.039489,2.8043 Q 90.1698,82.325711 106.99557,54.027826" />
</svg>
