<?xml version="1.0" encoding="UTF-8" standalone="no"?>
<!-- Created with Inkscape (http://www.inkscape.org/) -->

<svg
   xmlns:dc="http://purl.org/dc/elements/1.1/"
   xmlns:cc="http://creativecommons.org/ns#"
   xmlns:rdf="http://www.w3.org/1999/02/22-rdf-syntax-ns#"
   xmlns:svg="http://www.w3.org/2000/svg"
   xmlns="http://www.w3.org/2000/svg"
   xmlns:sodipodi="http://sodipodi.sourceforge.net/DTD/sodipodi-0.dtd"
   xmlns:inkscape="http://www.inkscape.org/namespaces/inkscape"
   width="13.068143mm"
   height="9.9906673mm"
   viewBox="0 0 46.304443 35.400002"
   id="svg3701"
   version="1.1"
   inkscape:version="0.91 r13725"
   inkscape:export-filename="C:\Users\Administrator\Desktop\laptop.png"
   inkscape:export-xdpi="497.57999"
   inkscape:export-ydpi="497.57999"
   sodipodi:docname="laptop.svg">
  <defs
     id="defs3703">
    <linearGradient
       gradientTransform="matrix(0,0.0022,0.0072,0,129.55936,126.56935)"
       gradientUnits="userSpaceOnUse"
       id="gradient28"
       spreadMethod="pad"
       x1="-819.20001"
       x2="819.20001">
      <stop
         offset="0.0"
         stop-color="#7d7dc5"
         id="stop257" />
      <stop
         offset="0.24705882352941178"
         stop-color="#7d7dc5"
         id="stop259" />
      <stop
         offset="1.0"
         stop-color="#a7a7d3"
         id="stop261" />
    </linearGradient>
    <radialGradient
       cx="0"
       cy="0"
       gradientTransform="matrix(0.025,0,0,0.025,111.05936,102.46935)"
       gradientUnits="userSpaceOnUse"
       id="gradient27"
       r="819.20001"
       spreadMethod="pad">
      <stop
         offset="0.0"
         stop-color="#ccffff"
         id="stop252" />
      <stop
         offset="1.0"
         stop-color="#0099ff"
         id="stop254" />
    </radialGradient>
    <linearGradient
       gradientTransform="matrix(-0.0148,-0.0138,-0.0125,0.0134,115.65936,108.61935)"
       gradientUnits="userSpaceOnUse"
       id="gradient26"
       spreadMethod="pad"
       x1="-819.20001"
       x2="819.20001">
      <stop
         offset="0.0"
         stop-color="#5858b5"
         id="stop245" />
      <stop
         offset="0.5647058823529412"
         stop-color="#a7a7d3"
         id="stop247" />
      <stop
         offset="1.0"
         stop-color="#a5adbb"
         id="stop249" />
    </linearGradient>
    <linearGradient
       gradientTransform="matrix(-6e-4,0.0066,0.0252,0.0022,126.45936,127.21935)"
       gradientUnits="userSpaceOnUse"
       id="gradient25"
       spreadMethod="pad"
       x1="-819.20001"
       x2="819.20001">
      <stop
         offset="0.0"
         stop-color="#335cae"
         id="stop238" />
      <stop
         offset="0.7098039215686275"
         stop-color="#7d7dc5"
         id="stop240" />
      <stop
         offset="1.0"
         stop-color="#a7a7d3"
         id="stop242" />
    </linearGradient>
    <linearGradient
       gradientTransform="matrix(8e-4,0.0078,0.0245,-0.0026,125.50936,123.86935)"
       gradientUnits="userSpaceOnUse"
       id="gradient24"
       spreadMethod="pad"
       x1="-819.20001"
       x2="819.20001">
      <stop
         offset="0.0"
         stop-color="#7d7dc5"
         id="stop231" />
      <stop
         offset="0.43529411764705883"
         stop-color="#7d7dc5"
         id="stop233" />
      <stop
         offset="1.0"
         stop-color="#ffffff"
         id="stop235" />
    </linearGradient>
  </defs>
  <sodipodi:namedview
     id="base"
     pagecolor="#ffffff"
     bordercolor="#666666"
     borderopacity="1.0"
     inkscape:pageopacity="0.0"
     inkscape:pageshadow="2"
     inkscape:zoom="22.4"
     inkscape:cx="16.096066"
     inkscape:cy="17.943086"
     inkscape:document-units="px"
     inkscape:current-layer="layer1"
     showgrid="false"
     fit-margin-top="0"
     fit-margin-left="0"
     fit-margin-right="0"
     fit-margin-bottom="0"
     inkscape:window-width="1920"
     inkscape:window-height="1033"
     inkscape:window-x="-4"
     inkscape:window-y="-4"
     inkscape:window-maximized="1" />
  <metadata
     id="metadata3706">
    <rdf:RDF>
      <cc:Work
         rdf:about="">
        <dc:format>image/svg+xml</dc:format>
        <dc:type
           rdf:resource="http://purl.org/dc/dcmitype/StillImage" />
        <dc:title></dc:title>
      </cc:Work>
    </rdf:RDF>
  </metadata>
  <g
     inkscape:label="Layer 1"
     inkscape:groupmode="layer"
     id="layer1"
     transform="translate(-99.704917,-97.519347)">
    <path
       inkscape:connector-curvature="0"
       style="fill:url(#gradient24);fill-rule:evenodd;stroke:none"
       id="path54"
       d="m 129.00936,117.26935 1.3,-0.2 13.5,5.95 q 1.55,0.5 2.05,1.45 l 0.15,0.4 q -0.25,0.9 -1.45,1.05 l -23,4.85 -1.95,0.1 -0.8,-0.25 -1.3,-0.5 -0.45,-0.3 -3.3,-2.4 -8.7,-6.65 23.95,-3.5 m -1.4,1.15 -2.75,0.4 -2.75,0.45 -2.65,0.4 -2.75,0.4 -2.7,0.4 -2.7,0.4 -2.9,0.45 1.65,1.2 1.7,1.25 1.8,1.35 1.95,1.4 3.2,-0.55 3.05,-0.55 2.9,-0.55 2.95,-0.55 2.95,-0.5 2.95,-0.55 2.9,-0.55 2.8,-0.5 -2.55,-1.15 -2.25,-1.05 -2.2,-1 -2.15,-1 -2.45,0.4 m -0.45,10 8.3,-1.7 -3.7,-2 -8.05,1.45 3.45,2.25" />
    <path
       inkscape:connector-curvature="0"
       style="fill:url(#gradient25);fill-rule:evenodd;stroke:none"
       id="path56"
       d="m 146.00936,124.86935 0,-0.1 0,0.15 -0.1,0.35 -0.65,1.35 q -0.8,1 -1.85,1.4 l -21.35,4.7 -2.9,0.2 q -1.45,-0.15 -2.6,-1.1 l -10.85,-8.95 q -1.75,-0.9 -0.7,-2 l 0.05,-0.05 0,-0.05 8.7,6.65 3.3,2.4 0.45,0.3 q 1,0.6 2.1,0.75 l 1.95,-0.1 23,-4.85 q 1.2,-0.15 1.45,-1.05" />
    <path
       inkscape:connector-curvature="0"
       style="fill:url(#gradient26);fill-rule:evenodd;stroke:none"
       id="path58"
       d="m 101.20936,99.369347 0.5,-0.3 12.05,-1.55 10.55,0.35 q 0.6,0 1.4,1.35 0.7,1.150003 0.95,2.250003 l 3.5,15.6 -1.15,0.2 -23.95,3.5 -4.55,-18.15 q -0.15,-2.25 0.7,-3.250003 m 21.65,0.650003 -0.55,-0.05 -18.05,1.25 q -1.55,0 -1.3,1.2 l 3.55,14.35 q 0.2,1.05 0.55,1.25 l 1.35,0.05 18,-2.5 0.45,-0.2 0.15,-0.4 -0.05,-0.25 -3.15,-13.9 -0.5,-0.65 -0.45,-0.15" />
    <path
       style="fill:#335cae;fill-rule:evenodd;stroke:none"
       inkscape:connector-curvature="0"
       id="path60"
       d="m 105.00936,120.86935 q -0.45,0.1 -0.75,-0.35 l -4.499999,-17.8 q -0.35,-2.4 1.549999,-3.500003 l -0.1,0.15 q -0.85,1.000003 -0.7,3.250003 l 4.55,18.15 0,0.05 -0.05,0.05" />
    <path
       inkscape:connector-curvature="0"
       style="fill:url(#gradient27);fill-rule:evenodd;stroke:none"
       id="path62"
       d="m 126.85936,115.36935 -0.45,0.2 -18,2.5 -1.35,-0.05 q -0.35,-0.2 -0.55,-1.25 l -3.55,-14.35 q -0.25,-1.2 1.3,-1.2 l 18.05,-1.250003 0.55,0.05 0.6,0.5 3.3,14.5 q 0.05,0.35 -0.15,0.5 l 0.25,-0.15 m -3.55,-15.2 0.5,0.65 3.15,13.9 0.05,0.25 -0.05,-0.1 -3.2,-14 -0.45,-0.7" />
    <path
       style="fill:#e6e6e6;fill-rule:evenodd;stroke:none"
       inkscape:connector-curvature="0"
       id="path64"
       d="m 126.85936,115.36935 -0.25,0.15 q 0.2,-0.15 0.15,-0.5 l -3.3,-14.5 -0.6,-0.5 0.45,0.15 0.45,0.7 3.2,14 0.05,0.1 -0.15,0.4 m -2,3.45 2.75,-0.4 2.05,1 -2.85,0.45 -1.95,-1.05 1.95,1.05 2.85,-0.45 -2.05,-1 2.45,-0.4 2.15,1 2.2,1 2.25,1.05 2.55,1.15 -2.8,0.5 -2.9,0.55 -2.95,0.55 -2.95,0.5 -2.95,0.55 -2.9,0.55 -3.05,0.55 -3.2,0.55 -1.95,-1.4 -1.8,-1.35 -1.7,-1.25 -1.65,-1.2 2.9,-0.45 2.7,-0.4 2.7,-0.4 2.75,-0.4 2.65,-0.4 2.75,-0.45 m -11.3,6.3 3.1,-0.55 2.05,1.4 -2.05,-1.4 -3.1,0.55 m -1.8,-1.35 3,-0.55 -1.7,-1.15 -3,0.45 3,-0.45 1.7,1.15 -3,0.55 m 2.25,-3.3 1.85,1.15 -2.8,0.45 -1.75,-1.2 1.75,1.2 2.8,-0.45 -1.85,-1.15 m 14.2,2.05 2.9,-0.5 -2.15,-1.1 -2.85,0.5 -2.05,-1.1 2.75,-0.45 2.15,1.05 -2.15,-1.05 -2.75,0.45 2.05,1.1 2.85,-0.5 2.85,-0.45 -2.15,-1.05 2.55,-0.4 -2.55,0.4 2.15,1.05 -2.85,0.45 2.15,1.1 -2.9,0.5 2.35,1.3 -2.35,-1.3 -2.85,0.5 2.25,1.3 -2.25,-1.3 2.85,-0.5 -2.1,-1.1 -2.85,0.45 2.1,1.15 -2.85,0.5 2.15,1.35 -2.15,-1.35 2.85,-0.5 -2.1,-1.15 2.85,-0.45 2.1,1.1 m 8.45,-1.45 -2.65,0.45 -2.2,-1.05 2.6,-0.45 -2.6,0.45 2.2,1.05 2.65,-0.45 m -3.15,2.2 -2.4,-1.25 2.9,-0.5 2.4,1.2 -2.4,-1.2 -2.9,0.5 2.4,1.25 m -11.4,-4 1.95,1.05 -2.7,0.4 -1.9,-1.05 1.9,1.05 2.7,-0.4 -1.95,-1.05 m -5.4,0.8 1.85,1.1 2.8,-0.45 1.9,1.15 -2.8,0.45 2.05,1.2 -2.85,0.5 -2,-1.25 2.8,-0.45 -2.8,0.45 2,1.25 2.85,-0.5 -2.05,-1.2 -1.9,-1.15 -2.7,0.45 1.8,1.15 -2.9,0.45 1.9,1.35 3,-0.55 2.1,1.4 -2.1,-1.4 -3,0.55 -1.9,-1.35 2.9,-0.45 -1.8,-1.15 2.7,-0.45 1.9,1.15 2.8,-0.45 -1.9,-1.15 -2.8,0.45 -1.85,-1.1" />
    <path
       inkscape:connector-curvature="0"
       style="fill:url(#gradient28);fill-rule:evenodd;stroke:none"
       id="path66"
       d="m 127.15936,128.41935 -3.45,-2.25 8.05,-1.45 3.7,2 -8.3,1.7" />
    <path
       style="fill:none;stroke:#7d7dc5;stroke-width:1;stroke-linecap:round;stroke-linejoin:round"
       inkscape:connector-curvature="0"
       id="path96"
       d="m 127.60936,118.41935 -2.75,0.4 1.95,1.05 2.85,-0.45 -2.05,-1 2.45,-0.4 2.15,1 2.2,1 2.25,1.05 2.55,1.15 -2.8,0.5 -2.9,0.55 -2.95,0.55 -2.95,0.5 -2.95,0.55 -2.9,0.55 -3.05,0.55 -3.2,0.55 -1.95,-1.4 -1.8,-1.35 -1.7,-1.25 -1.65,-1.2 2.9,-0.45 2.7,-0.4 2.7,-0.4 2.75,-0.4 2.65,-0.4 2.75,-0.45 m -4.4,3.5 -2.8,0.45 2,1.25 2.85,-0.5 -2.05,-1.2 -1.9,-1.15 -2.7,0.45 1.8,1.15 -2.9,0.45 1.9,1.35 3,-0.55 2.1,1.4 m -1.3,-3.1 2.8,-0.45 -1.9,-1.15 -2.8,0.45 -1.85,-1.1 m 2.75,-0.4 1.9,1.05 2.7,-0.4 -1.95,-1.05 m 6.85,1.65 -2.15,-1.05 -2.75,0.45 2.05,1.1 2.85,-0.5 2.85,-0.45 -2.15,-1.05 2.55,-0.4 m -1.65,4.8 -2.35,-1.3 -2.85,0.5 2.25,1.3 m 0.6,-1.8 -2.1,-1.1 -2.85,0.45 2.1,1.15 -2.85,0.5 2.15,1.35 m 11.75,-2.15 -2.4,-1.2 -2.9,0.5 2.4,1.25 m 0.9,-3.25 -2.6,0.45 2.2,1.05 2.65,-0.45 m -7.7,-0.15 2.15,1.1 -2.9,0.5 m -16.9,-1.65 1.75,1.2 2.8,-0.45 -1.85,-1.15 m -3.95,2.05 3,-0.45 1.7,1.15 -3,0.55 m 6.95,2.2 -2.05,-1.4 -3.1,0.55" />
  </g>
</svg>
