<?xml version="1.0" encoding="UTF-8" standalone="no"?>
<svg
   xmlns:dc="http://purl.org/dc/elements/1.1/"
   xmlns:cc="http://creativecommons.org/ns#"
   xmlns:rdf="http://www.w3.org/1999/02/22-rdf-syntax-ns#"
   xmlns:svg="http://www.w3.org/2000/svg"
   xmlns="http://www.w3.org/2000/svg"
   xmlns:sodipodi="http://sodipodi.sourceforge.net/DTD/sodipodi-0.dtd"
   xmlns:inkscape="http://www.inkscape.org/namespaces/inkscape"
   height="54.032654"
   width="34.673557"
   id="svg2"
   version="1.1"
   inkscape:version="0.91 r13725"
   sodipodi:docname="Monitor.svg">
  <metadata
     id="metadata128">
    <rdf:RDF>
      <cc:Work
         rdf:about="">
        <dc:format>image/svg+xml</dc:format>
        <dc:type
           rdf:resource="http://purl.org/dc/dcmitype/StillImage" />
        <dc:title></dc:title>
      </cc:Work>
    </rdf:RDF>
  </metadata>
  <sodipodi:namedview
     pagecolor="#ffffff"
     bordercolor="#666666"
     borderopacity="1"
     objecttolerance="10"
     gridtolerance="10"
     guidetolerance="10"
     inkscape:pageopacity="0"
     inkscape:pageshadow="2"
     inkscape:window-width="1920"
     inkscape:window-height="1033"
     id="namedview126"
     showgrid="false"
     fit-margin-top="0"
     fit-margin-left="0"
     fit-margin-right="0"
     fit-margin-bottom="0"
     inkscape:zoom="12.349839"
     inkscape:cx="26.153795"
     inkscape:cy="26.266895"
     inkscape:window-x="-4"
     inkscape:window-y="-4"
     inkscape:window-maximized="1"
     inkscape:current-layer="svg2" />
  <path
     inkscape:connector-curvature="0"
     style="fill:url(#gradient5);fill-rule:evenodd;stroke:none"
     id="path28"
     d="m 0.55555556,44.482653 q 0,3.95 4.90000004,6.75 4.8500004,2.8 11.8000004,2.8 6.9,0 11.8,-2.8 4.85,-2.8 4.85,-6.75 0,-3.95 -4.85,-6.7 -4.9,-2.8 -11.8,-2.8 -6.95,0 -11.8000004,2.8 -4.90000004,2.75 -4.90000004,6.7" />
  <path
     inkscape:connector-curvature="0"
     style="fill:url(#gradient6);fill-rule:evenodd;stroke:none"
     id="path30"
     d="m 1.6555556,44.332653 q 0,3.65 4.5,6.2 4.5500004,2.6 10.9500004,2.6 6.4,0 10.95,-2.6 4.55,-2.55 4.55,-6.2 0,-3.6 -4.55,-6.2 -4.55,-2.55 -10.95,-2.55 -6.4,0 -10.9500004,2.55 -4.5,2.6 -4.5,6.2" />
  <path
     inkscape:connector-curvature="0"
     style="fill:url(#gradient7);fill-rule:evenodd;stroke:none"
     id="path32"
     d="m 26.005556,31.632653 0.9,5.25 -0.25,-5.5 -0.65,0.25 -0.35,-2 q -1.4,-0.7 -1.9,-0.45 l -7.95,5.35 q -1.1,0.45 -1,0.75 1.65,3.25 2.65,6.45 l 1.75,7.1 2.45,1.5 q 4.75,-1.45 6.25,-3.05 0.15,-2.85 -0.75,-8.7 l -0.25,-1.7 0,6 q -2.25,2.05 -6,2.95 l 0.7,3.5 -1.65,-4.3 q -0.7,-3.8 -1.8,-6.5 l -1.5,-3.3 9.35,-3.6" />
  <path
     inkscape:connector-curvature="0"
     style="fill:url(#gradient8);fill-rule:evenodd;stroke:none"
     id="path34"
     d="m 26.905556,31.432653 -10.5,4.1 q 3.15,5.8 4.35,12.55 l 1,0.9 q 4.5,-1.6 6.15,-3.1 0,-8.15 -1,-14.45" />
  <path
     inkscape:connector-curvature="0"
     style="fill:url(#gradient9);fill-rule:evenodd;stroke:none"
     id="path36"
     d="m 8.6055556,39.882653 25.1000004,-10.8 q 1.1,-0.5 0.95,-1.95 l -2.9,-25.4999999 q -0.3,-2.00000004 -1.8,-1.55000004 L 1.9055556,5.0326531 q -2.45000004,0.5 -1.75000004,2.65 0.45,1.25 6.85000004,31.7999999 0.45,0.8 1.6,0.4" />
  <path
     inkscape:connector-curvature="0"
     style="fill:url(#gradient10);fill-rule:evenodd;stroke:none"
     id="path38"
     d="m 9.2055556,37.132653 23.8500004,-9.55 -3,-22.9999999 -25.4500004,5.3 4.6,27.2499999" />
  <path
     inkscape:connector-curvature="0"
     style="fill:url(#gradient11);fill-rule:evenodd;stroke:none"
     id="path40"
     d="m 8.2055556,38.632653 -5.65,-30.6499999 q 0.3,-1 0.7,-1.15 l 26.5500004,-4.9 q 0.8,-1.20000004 -0.55,-0.9 l -27.0000004,5 q -0.9,0.3 -1,1.65 l 6.25,31.4499999 q 0.05,0.4 0.5,0.25 0.4,-0.1 0.2,-0.75" />
  <path
     inkscape:connector-curvature="0"
     style="fill:url(#gradient12);fill-rule:evenodd;stroke:none"
     id="path42"
     d="m 9.2055556,37.132653 q 0,0.65 0.65,0.4 l 23.9500004,-9.8 -0.75,-0.2 -23.8500004,9.6" />
  <path
     inkscape:connector-curvature="0"
     style="fill:url(#gradient13);fill-rule:evenodd;stroke:none"
     id="path44"
     d="m 18.855556,42.082653 1.35,5.9 1.45,0.9 q -0.45,-5.4 -2.2,-11.35 -1.35,-0.65 -2.75,-1.25 1.65,3.9 2.15,5.8" />
  <defs
     id="defs46">
    <linearGradient
       gradientTransform="matrix(-0.0259,0,0,0.0253,32.8,23.2)"
       gradientUnits="userSpaceOnUse"
       id="gradient0"
       spreadMethod="pad"
       x1="-819.20001"
       x2="819.20001">
      <stop
         offset="0.0"
         stop-color="#666699"
         id="stop49" />
      <stop
         offset="1.0"
         stop-color="#9999cc"
         id="stop51" />
    </linearGradient>
    <linearGradient
       gradientTransform="matrix(-0.0251,0,0,0.0242,32.45,23.25)"
       gradientUnits="userSpaceOnUse"
       id="gradient1"
       spreadMethod="pad"
       x1="-819.20001"
       x2="819.20001">
      <stop
         offset="0.0"
         stop-color="#9999cc"
         id="stop54" />
      <stop
         offset="1.0"
         stop-color="#eeeeee"
         id="stop56" />
    </linearGradient>
    <linearGradient
       gradientTransform="matrix(0,0.0212,0.0074,0,47.25,25.688055)"
       gradientUnits="userSpaceOnUse"
       id="gradient2"
       spreadMethod="pad"
       x1="-819.20001"
       x2="819.20001">
      <stop
         offset="0.0"
         stop-color="#6666cc"
         id="stop59" />
      <stop
         offset="1.0"
         stop-color="#aaaaaa"
         id="stop61" />
    </linearGradient>
    <linearGradient
       gradientTransform="matrix(0,0.0056,0.025,0,32.7,7.7)"
       gradientUnits="userSpaceOnUse"
       id="gradient3"
       spreadMethod="pad"
       x1="-819.20001"
       x2="819.20001">
      <stop
         offset="0.0"
         stop-color="#9999cc"
         id="stop64" />
      <stop
         offset="1.0"
         stop-color="#ffffff"
         id="stop66" />
    </linearGradient>
    <linearGradient
       gradientTransform="matrix(-0.0144,-0.0015,-5e-4,0.0049,30.6,31.8)"
       gradientUnits="userSpaceOnUse"
       id="gradient4"
       spreadMethod="pad"
       x1="-819.20001"
       x2="819.20001">
      <stop
         offset="0.0"
         stop-color="#9999cc"
         id="stop69" />
      <stop
         offset="1.0"
         stop-color="#9999cc"
         id="stop71" />
    </linearGradient>
    <linearGradient
       gradientTransform="matrix(0,0.0116,0.0204,0,17.205556,44.532653)"
       gradientUnits="userSpaceOnUse"
       id="gradient5"
       spreadMethod="pad"
       x1="-819.20001"
       x2="819.20001">
      <stop
         offset="0.0"
         stop-color="#9999cc"
         id="stop74" />
      <stop
         offset="1.0"
         stop-color="#666699"
         id="stop76" />
    </linearGradient>
    <radialGradient
       cx="0"
       cy="0"
       gradientTransform="matrix(0.0311,0,0,0.0311,8.1055556,42.032653)"
       gradientUnits="userSpaceOnUse"
       id="gradient6"
       r="819.20001"
       spreadMethod="pad">
      <stop
         offset="0.0"
         stop-color="#ffffff"
         id="stop79" />
      <stop
         offset="0.2823529411764706"
         stop-color="#dddddd"
         id="stop81" />
      <stop
         offset="1.0"
         stop-color="#9999cc"
         id="stop83" />
    </radialGradient>
    <linearGradient
       gradientTransform="matrix(-0.0059,-0.0057,-0.007,0.0072,22.305556,42.032653)"
       gradientUnits="userSpaceOnUse"
       id="gradient7"
       spreadMethod="pad"
       x1="-819.20001"
       x2="819.20001">
      <stop
         offset="0.0"
         stop-color="#666699"
         id="stop86" />
      <stop
         offset="1.0"
         stop-color="#9999cc"
         id="stop88" />
    </linearGradient>
    <linearGradient
       gradientTransform="matrix(-0.0027,0.0108,0.0081,0.002,21.605556,40.132653)"
       gradientUnits="userSpaceOnUse"
       id="gradient8"
       spreadMethod="pad"
       x1="-819.20001"
       x2="819.20001">
      <stop
         offset="0.0"
         stop-color="#333399"
         id="stop91" />
      <stop
         offset="0.27450980392156865"
         stop-color="#6666cc"
         id="stop93" />
      <stop
         offset="1.0"
         stop-color="#999999"
         id="stop95" />
    </linearGradient>
    <linearGradient
       gradientTransform="matrix(-0.0177,-0.0171,-0.0191,0.0197,19.255556,21.332653)"
       gradientUnits="userSpaceOnUse"
       id="gradient9"
       spreadMethod="pad"
       x1="-819.20001"
       x2="819.20001">
      <stop
         offset="0.0"
         stop-color="#6666cc"
         id="stop98" />
      <stop
         offset="1.0"
         stop-color="#999999"
         id="stop100" />
    </linearGradient>
    <radialGradient
       cx="0"
       cy="0"
       gradientTransform="matrix(0.0404,0,0,0.0404,19.005556,5.5826531)"
       gradientUnits="userSpaceOnUse"
       id="gradient10"
       r="819.20001"
       spreadMethod="pad">
      <stop
         offset="0.0"
         stop-color="#ccffff"
         id="stop103" />
      <stop
         offset="0.09411764705882353"
         stop-color="#ccffff"
         id="stop105" />
      <stop
         offset="1.0"
         stop-color="#0099ff"
         id="stop107" />
    </radialGradient>
    <linearGradient
       gradientTransform="matrix(-0.0121,-0.0117,-0.0182,0.0189,21.505556,22.382653)"
       gradientUnits="userSpaceOnUse"
       id="gradient11"
       spreadMethod="pad"
       x1="-819.20001"
       x2="819.20001">
      <stop
         offset="0.0"
         stop-color="#9999cc"
         id="stop110" />
      <stop
         offset="1.0"
         stop-color="#ffffff"
         id="stop112" />
    </linearGradient>
    <linearGradient
       gradientTransform="matrix(-0.0141,0.0075,9e-4,0.0018,21.455556,32.682653)"
       gradientUnits="userSpaceOnUse"
       id="gradient12"
       spreadMethod="pad"
       x1="-819.20001"
       x2="819.20001">
      <stop
         offset="0.0"
         stop-color="#6666cc"
         id="stop115" />
      <stop
         offset="0.0784313725490196"
         stop-color="#9999cc"
         id="stop117" />
      <stop
         offset="1.0"
         stop-color="#ffffff"
         id="stop119" />
    </linearGradient>
    <linearGradient
       gradientTransform="matrix(-0.0021,0.006,0.0051,0.0017,19.155556,42.632653)"
       gradientUnits="userSpaceOnUse"
       id="gradient13"
       spreadMethod="pad"
       x1="-819.20001"
       x2="819.20001">
      <stop
         offset="0.0"
         stop-color="#9999cc"
         id="stop122" />
      <stop
         offset="1.0"
         stop-color="#eeeeee"
         id="stop124" />
    </linearGradient>
  </defs>
</svg>
