<?xml version="1.0" encoding="UTF-8" standalone="no"?>
<svg
   xmlns:dc="http://purl.org/dc/elements/1.1/"
   xmlns:cc="http://creativecommons.org/ns#"
   xmlns:rdf="http://www.w3.org/1999/02/22-rdf-syntax-ns#"
   xmlns:svg="http://www.w3.org/2000/svg"
   xmlns="http://www.w3.org/2000/svg"
   xmlns:sodipodi="http://sodipodi.sourceforge.net/DTD/sodipodi-0.dtd"
   xmlns:inkscape="http://www.inkscape.org/namespaces/inkscape"
   height="42.962822"
   width="28.790056"
   id="svg2"
   version="1.1"
   inkscape:version="0.91 r13725"
   sodipodi:docname="System Properties Monitor.svg">
  <metadata
     id="metadata229">
    <rdf:RDF>
      <cc:Work
         rdf:about="">
        <dc:format>image/svg+xml</dc:format>
        <dc:type
           rdf:resource="http://purl.org/dc/dcmitype/StillImage" />
        <dc:title />
      </cc:Work>
    </rdf:RDF>
  </metadata>
  <sodipodi:namedview
     pagecolor="#ffffff"
     bordercolor="#666666"
     borderopacity="1"
     objecttolerance="10"
     gridtolerance="10"
     guidetolerance="10"
     inkscape:pageopacity="0"
     inkscape:pageshadow="2"
     inkscape:window-width="1920"
     inkscape:window-height="1033"
     id="namedview227"
     showgrid="false"
     fit-margin-top="0"
     fit-margin-left="0"
     fit-margin-right="0"
     fit-margin-bottom="0"
     inkscape:zoom="13.86811"
     inkscape:cx="15.868138"
     inkscape:cy="20.615033"
     inkscape:window-x="-4"
     inkscape:window-y="-4"
     inkscape:window-maximized="1"
     inkscape:current-layer="svg2" />
  <path
     inkscape:connector-curvature="0"
     style="fill:url(#gradient18);fill-rule:evenodd;stroke:none"
     id="path42"
     d="m 5.7186275,29.562821 0.15,0.6 -0.45,0.2 q -3.7,2 -3.7,4.9 0,2.9 3.7,4.9 3.7,2.05 8.9999995,2.05 5.25,0 8.95,-2.05 3.7,-2 3.7,-4.9 0,-2.6 -3,-4.5 l -0.05,-0.85 0.15,0.1 q 4,2.25 4,5.35 0,3.15 -4,5.35 -4,2.25 -9.65,2.25 -5.6499995,0 -9.6999995,-2.25 -4.00000005,-2.2 -4.00000005,-5.35 0,-3.1 4.00000005,-5.35 l 0.9,-0.45" />
  <path
     inkscape:connector-curvature="0"
     style="fill:url(#gradient19);fill-rule:evenodd;stroke:none"
     id="path44"
     d="m 5.8686275,30.162821 0.25,1.2 q 0.35,0.65 1.3,0.35 l 6.0499995,-2.5 q 2.45,5.4 3.25,10.05 l 1.8,1.3 q 4.15,-1 5.7,-2.95 0.15,-3.4 -0.15,-6.85 3,1.9 3,4.5 0,2.9 -3.7,4.9 -3.7,2.05 -8.95,2.05 -5.2999995,0 -8.9999995,-2.05 -3.7,-2 -3.7,-4.9 0,-2.9 3.7,-4.9 l 0.45,-0.2" />
  <path
     inkscape:connector-curvature="0"
     style="fill:url(#gradient20);fill-rule:evenodd;stroke:none"
     id="path46"
     d="M 5.7186275,29.562821 Q 0.46862745,7.3128205 0.11862745,6.4128205 q -0.55,-1.7 1.45000005,-2.15 L 24.968627,0.06282051 q 1.2,-0.35 1.45,1.24999999 l 2.35,20.2500005 q 0.15,1.2 -0.75,1.55 l -4.75,2 -0.7,0.3 -5.95,2.5 -1.05,0.45 -1.4,0.55 -0.1,-0.05 0.05,0.1 -0.65,0.25 -6.0499995,2.5 q -0.95,0.3 -1.3,-0.35 l -0.25,-1.2 -0.15,-0.6 m -3.7,-24.1500005 23.0999995,-4.64999999 q 0.5,-0.5 -0.6,-0.25 L 1.5186275,4.7628205 q -0.75000005,0.25 -0.80000005,1.25 l 5.80000005,25.1000005 0.3,0.3 q 0.25,0 0.1,-0.55 l -0.25,-1.1 -0.1,-0.55 -4.85,-23.0500005 0.3,-0.75 m 25.4499995,16.4500005 -2.45,-18.2500005 -21.3499995,4.55 4.25,21.3500005 q 0,0.55 0.5,0.35 l 19.6499995,-7.8 -0.6,-0.2" />
  <path
     inkscape:connector-curvature="0"
     style="fill:url(#gradient21);fill-rule:evenodd;stroke:none"
     id="path48"
     d="m 2.0186275,5.4128205 -0.3,0.75 4.85,23.0500005 0.1,0.55 0.25,1.1 q 0.15,0.55 -0.1,0.55 l -0.3,-0.3 L 0.71862745,6.0128205 q 0.05,-1 0.80000005,-1.25 L 24.518627,0.51282051 q 1.1,-0.25 0.6,0.25 L 2.0186275,5.4128205" />
  <path
     inkscape:connector-curvature="0"
     style="fill:url(#gradient22);fill-rule:evenodd;stroke:none"
     id="path50"
     d="m 7.9186275,29.512821 -4.25,-21.3500005 21.3499995,-4.55 2.45,18.2500005 -19.5499995,7.65 M 20.868627,6.2628205 q -3.3,5.5500005 -6.2,18.5000005 l -0.4,-0.55 -0.45,-0.65 -0.6,-0.75 q -2.05,-2.5 -5.1499995,-5.2 3.0999995,2.7 5.1499995,5.2 l 0.6,0.75 0.45,0.65 0.4,0.55 q 2.9,-12.95 6.2,-18.5000005" />
  <path
     inkscape:connector-curvature="0"
     style="fill:url(#gradient23);fill-rule:evenodd;stroke:none"
     id="path52"
     d="m 7.9186275,29.512821 19.5499995,-7.65 0.6,0.2 -19.6499995,7.8 q -0.5,0.2 -0.5,-0.35" />
  <path
     inkscape:connector-curvature="0"
     style="fill:url(#gradient24);fill-rule:evenodd;stroke:none"
     id="path54"
     d="m 13.468627,29.212821 0.65,-0.25 q 1.5,3.3 1.9,4.85 l 1.4,5.15 0.3,0.2 0.8,0.65 0.05,0 q 3.25,-0.8 5.05,-2.5 0,-3.6 -0.35,-7 l -0.1,-0.8 -0.6,-4.1 0.7,-0.3 0.75,4.8 0.05,0.85 q 0.3,3.45 0.15,6.85 -1.55,1.95 -5.7,2.95 l -1.8,-1.3 q -0.8,-4.65 -3.25,-10.05" />
  <path
     inkscape:connector-curvature="0"
     style="fill:url(#gradient25);fill-rule:evenodd;stroke:none"
     id="path56"
     d="m 14.168627,28.912821 1.4,-0.55 1.05,-0.45 5.95,-2.5 0.6,4.1 0.1,0.8 q 0.35,3.4 0.35,7 -1.8,1.7 -5.05,2.5 -0.35,-4.3 -2.25,-10 l -2.15,-0.9 m 3.55,10.25 0.85,0.65 -0.05,0 -0.8,-0.65" />
  <path
     inkscape:connector-curvature="0"
     style="fill:url(#gradient26);fill-rule:evenodd;stroke:none"
     id="path58"
     d="m 14.118627,28.962821 -0.05,-0.1 0.1,0.05 2.15,0.9 q 1.9,5.7 2.25,10 l -0.85,-0.65 -0.3,-0.2 -1.4,-5.15 q -0.4,-1.55 -1.9,-4.85" />
  <path
     style="fill:none;stroke:#982010;stroke-width:2.1500001;stroke-linecap:round;stroke-linejoin:round;stroke-opacity:1"
     inkscape:connector-curvature="0"
     id="path64"
     d="m 8.0686275,17.612821 q 3.0999995,2.7 5.1499995,5.2 l 0.6,0.75 0.45,0.65 0.4,0.55 q 2.9,-12.95 6.2,-18.5000005" />
  <defs
     id="defs66">
    <linearGradient
       gradientTransform="matrix(-0.0012,0.0056,0.0102,0.0022,47.5,22.4)"
       gradientUnits="userSpaceOnUse"
       id="gradient0"
       spreadMethod="pad"
       x1="-819.20001"
       x2="819.20001">
      <stop
         offset="0.0"
         stop-color="#9999cc"
         id="stop69" />
      <stop
         offset="1.0"
         stop-color="#666699"
         id="stop71" />
    </linearGradient>
    <radialGradient
       cx="0"
       cy="0"
       gradientTransform="matrix(0.0155,0.0014,-0.0014,0.0155,43.35,20.45)"
       gradientUnits="userSpaceOnUse"
       id="gradient1"
       r="819.20001"
       spreadMethod="pad">
      <stop
         offset="0.0"
         stop-color="#ffffff"
         id="stop74" />
      <stop
         offset="0.2823529411764706"
         stop-color="#dddddd"
         id="stop76" />
      <stop
         offset="1.0"
         stop-color="#9999cc"
         id="stop78" />
    </radialGradient>
    <linearGradient
       gradientTransform="matrix(-0.0035,-7e-4,-0.0011,0.0054,50.85,21.1)"
       gradientUnits="userSpaceOnUse"
       id="gradient2"
       spreadMethod="pad"
       x1="-819.20001"
       x2="819.20001">
      <stop
         offset="0.0"
         stop-color="#666699"
         id="stop81" />
      <stop
         offset="1.0"
         stop-color="#9999cc"
         id="stop83" />
    </linearGradient>
    <linearGradient
       gradientTransform="matrix(-0.0012,0.0055,0.0036,8e-4,50.65,21.2)"
       gradientUnits="userSpaceOnUse"
       id="gradient3"
       spreadMethod="pad"
       x1="-819.20001"
       x2="819.20001">
      <stop
         offset="0.0"
         stop-color="#333399"
         id="stop86" />
      <stop
         offset="0.28627450980392155"
         stop-color="#6666cc"
         id="stop88" />
      <stop
         offset="1.0"
         stop-color="#cccccc"
         id="stop90" />
    </linearGradient>
    <linearGradient
       gradientTransform="matrix(-0.0067,-0.0104,-0.0115,0.0074,51.4,11.25)"
       gradientUnits="userSpaceOnUse"
       id="gradient4"
       spreadMethod="pad"
       x1="-819.20001"
       x2="819.20001">
      <stop
         offset="0.0"
         stop-color="#6666cc"
         id="stop93" />
      <stop
         offset="1.0"
         stop-color="#999999"
         id="stop95" />
    </linearGradient>
    <radialGradient
       cx="0"
       cy="0"
       gradientTransform="matrix(0.0191,0.0017,-0.0017,0.0191,52.3,4.3)"
       gradientUnits="userSpaceOnUse"
       id="gradient5"
       r="819.20001"
       spreadMethod="pad">
      <stop
         offset="0.0"
         stop-color="#ccffff"
         id="stop98" />
      <stop
         offset="0.09411764705882353"
         stop-color="#ccffff"
         id="stop100" />
      <stop
         offset="1.0"
         stop-color="#0099ff"
         id="stop102" />
    </radialGradient>
    <linearGradient
       gradientTransform="matrix(-0.0047,-0.0072,-0.0111,0.0072,53.85,11.5)"
       gradientUnits="userSpaceOnUse"
       id="gradient6"
       spreadMethod="pad"
       x1="-819.20001"
       x2="819.20001">
      <stop
         offset="0.0"
         stop-color="#9999cc"
         id="stop105" />
      <stop
         offset="1.0"
         stop-color="#ffffff"
         id="stop107" />
    </linearGradient>
    <linearGradient
       gradientTransform="matrix(-0.0078,0.0022,3e-4,0.001,51.05,16.95)"
       gradientUnits="userSpaceOnUse"
       id="gradient7"
       spreadMethod="pad"
       x1="-819.20001"
       x2="819.20001">
      <stop
         offset="0.0"
         stop-color="#6666cc"
         id="stop110" />
      <stop
         offset="0.0784313725490196"
         stop-color="#9999cc"
         id="stop112" />
      <stop
         offset="1.0"
         stop-color="#ffffff"
         id="stop114" />
    </linearGradient>
    <linearGradient
       gradientTransform="matrix(-0.0017,0.003,0.0025,0.0015,48.9,21.8)"
       gradientUnits="userSpaceOnUse"
       id="gradient8"
       spreadMethod="pad"
       x1="-819.20001"
       x2="819.20001">
      <stop
         offset="0.0"
         stop-color="#9999cc"
         id="stop117" />
      <stop
         offset="1.0"
         stop-color="#eeeeee"
         id="stop119" />
    </linearGradient>
    <linearGradient
       gradientTransform="matrix(-6e-4,0.0069,0.0125,0.0011,37.8,31.1)"
       gradientUnits="userSpaceOnUse"
       id="gradient9"
       spreadMethod="pad"
       x1="-819.20001"
       x2="819.20001">
      <stop
         offset="0.0"
         stop-color="#9999cc"
         id="stop122" />
      <stop
         offset="1.0"
         stop-color="#666699"
         id="stop124" />
    </linearGradient>
    <radialGradient
       cx="0"
       cy="0"
       gradientTransform="matrix(0.0189,0.0017,-0.0017,0.0189,32.4,29.1)"
       gradientUnits="userSpaceOnUse"
       id="gradient10"
       r="819.20001"
       spreadMethod="pad">
      <stop
         offset="0.0"
         stop-color="#ffffff"
         id="stop127" />
      <stop
         offset="0.2823529411764706"
         stop-color="#dddddd"
         id="stop129" />
      <stop
         offset="1.0"
         stop-color="#9999cc"
         id="stop131" />
    </radialGradient>
    <linearGradient
       gradientTransform="matrix(-0.0043,-4e-4,-6e-4,0.0066,41.15,29)"
       gradientUnits="userSpaceOnUse"
       id="gradient11"
       spreadMethod="pad"
       x1="-819.20001"
       x2="819.20001">
      <stop
         offset="0.0"
         stop-color="#666699"
         id="stop134" />
      <stop
         offset="1.0"
         stop-color="#9999cc"
         id="stop136" />
    </linearGradient>
    <linearGradient
       gradientTransform="matrix(-6e-4,0.0068,0.0045,4e-4,41.15,29.1)"
       gradientUnits="userSpaceOnUse"
       id="gradient12"
       spreadMethod="pad"
       x1="-819.20001"
       x2="819.20001">
      <stop
         offset="0.0"
         stop-color="#333399"
         id="stop139" />
      <stop
         offset="0.28627450980392155"
         stop-color="#6666cc"
         id="stop141" />
      <stop
         offset="1.0"
         stop-color="#cccccc"
         id="stop143" />
    </linearGradient>
    <linearGradient
       gradientTransform="matrix(-0.0095,-0.0114,-0.0126,0.0106,40.05,17.6)"
       gradientUnits="userSpaceOnUse"
       id="gradient13"
       spreadMethod="pad"
       x1="-819.20001"
       x2="819.20001">
      <stop
         offset="0.0"
         stop-color="#6666cc"
         id="stop146" />
      <stop
         offset="1.0"
         stop-color="#999999"
         id="stop148" />
    </linearGradient>
    <radialGradient
       cx="0"
       cy="0"
       gradientTransform="matrix(0.0239,0.0021,-0.0021,0.0239,40.75,8.1)"
       gradientUnits="userSpaceOnUse"
       id="gradient14"
       r="819.20001"
       spreadMethod="pad">
      <stop
         offset="0.0"
         stop-color="#ccffff"
         id="stop151" />
      <stop
         offset="0.09411764705882353"
         stop-color="#ccffff"
         id="stop153" />
      <stop
         offset="1.0"
         stop-color="#0099ff"
         id="stop155" />
    </radialGradient>
    <linearGradient
       gradientTransform="matrix(-0.0067,-0.008,-0.0122,0.0102,41.35,18.35)"
       gradientUnits="userSpaceOnUse"
       id="gradient15"
       spreadMethod="pad"
       x1="-819.20001"
       x2="819.20001">
      <stop
         offset="0.0"
         stop-color="#9999cc"
         id="stop158" />
      <stop
         offset="1.0"
         stop-color="#ffffff"
         id="stop160" />
    </linearGradient>
    <linearGradient
       gradientTransform="matrix(-0.009,0.0038,5e-4,0.0012,41,24.3)"
       gradientUnits="userSpaceOnUse"
       id="gradient16"
       spreadMethod="pad"
       x1="-819.20001"
       x2="819.20001">
      <stop
         offset="0.0"
         stop-color="#6666cc"
         id="stop163" />
      <stop
         offset="0.0784313725490196"
         stop-color="#9999cc"
         id="stop165" />
      <stop
         offset="1.0"
         stop-color="#ffffff"
         id="stop167" />
    </linearGradient>
    <linearGradient
       gradientTransform="matrix(-0.0016,0.0038,0.0032,0.0014,39.25,30.4)"
       gradientUnits="userSpaceOnUse"
       id="gradient17"
       spreadMethod="pad"
       x1="-819.20001"
       x2="819.20001">
      <stop
         offset="0.0"
         stop-color="#9999cc"
         id="stop170" />
      <stop
         offset="1.0"
         stop-color="#eeeeee"
         id="stop172" />
    </linearGradient>
    <linearGradient
       gradientTransform="matrix(0,0.0092,0.0167,0,14.468627,35.412821)"
       gradientUnits="userSpaceOnUse"
       id="gradient18"
       spreadMethod="pad"
       x1="-819.20001"
       x2="819.20001">
      <stop
         offset="0.0"
         stop-color="#9999cc"
         id="stop175" />
      <stop
         offset="1.0"
         stop-color="#666699"
         id="stop177" />
    </linearGradient>
    <radialGradient
       cx="0"
       cy="0"
       gradientTransform="matrix(0.0255,0,0,0.0255,7.0686275,33.362821)"
       gradientUnits="userSpaceOnUse"
       id="gradient19"
       r="819.20001"
       spreadMethod="pad">
      <stop
         offset="0.0"
         stop-color="#ffffff"
         id="stop180" />
      <stop
         offset="0.2823529411764706"
         stop-color="#dddddd"
         id="stop182" />
      <stop
         offset="1.0"
         stop-color="#9999cc"
         id="stop184" />
    </radialGradient>
    <linearGradient
       gradientTransform="matrix(-0.0141,-0.0141,-0.0156,0.0156,15.868627,17.112821)"
       gradientUnits="userSpaceOnUse"
       id="gradient20"
       spreadMethod="pad"
       x1="-819.20001"
       x2="819.20001">
      <stop
         offset="0.0"
         stop-color="#6666cc"
         id="stop187" />
      <stop
         offset="1.0"
         stop-color="#999999"
         id="stop189" />
    </linearGradient>
    <linearGradient
       gradientTransform="matrix(-0.0098,-0.0098,-0.0151,0.0151,17.718627,18.012821)"
       gradientUnits="userSpaceOnUse"
       id="gradient21"
       spreadMethod="pad"
       x1="-819.20001"
       x2="819.20001">
      <stop
         offset="0.0"
         stop-color="#9999cc"
         id="stop192" />
      <stop
         offset="1.0"
         stop-color="#ffffff"
         id="stop194" />
    </linearGradient>
    <radialGradient
       cx="0"
       cy="0"
       gradientTransform="matrix(0.0321,0,0,0.0321,15.718627,4.4128205)"
       gradientUnits="userSpaceOnUse"
       id="gradient22"
       r="819.20001"
       spreadMethod="pad">
      <stop
         offset="0.0"
         stop-color="#ccffff"
         id="stop197" />
      <stop
         offset="0.09411764705882353"
         stop-color="#ccffff"
         id="stop199" />
      <stop
         offset="1.0"
         stop-color="#0099ff"
         id="stop201" />
    </radialGradient>
    <linearGradient
       gradientTransform="matrix(-0.0115,0.0061,8e-4,0.0016,17.968627,25.962821)"
       gradientUnits="userSpaceOnUse"
       id="gradient23"
       spreadMethod="pad"
       x1="-819.20001"
       x2="819.20001">
      <stop
         offset="0.0"
         stop-color="#6666cc"
         id="stop204" />
      <stop
         offset="0.0784313725490196"
         stop-color="#9999cc"
         id="stop206" />
      <stop
         offset="1.0"
         stop-color="#ffffff"
         id="stop208" />
    </linearGradient>
    <linearGradient
       gradientTransform="matrix(-0.0057,0,0,0.0089,18.668627,32.262821)"
       gradientUnits="userSpaceOnUse"
       id="gradient24"
       spreadMethod="pad"
       x1="-819.20001"
       x2="819.20001">
      <stop
         offset="0.0"
         stop-color="#666699"
         id="stop211" />
      <stop
         offset="1.0"
         stop-color="#9999cc"
         id="stop213" />
    </linearGradient>
    <linearGradient
       gradientTransform="matrix(0,0.009,0.006,0,18.718627,32.412821)"
       gradientUnits="userSpaceOnUse"
       id="gradient25"
       spreadMethod="pad"
       x1="-819.20001"
       x2="819.20001">
      <stop
         offset="0.0"
         stop-color="#333399"
         id="stop216" />
      <stop
         offset="0.28627450980392155"
         stop-color="#6666cc"
         id="stop218" />
      <stop
         offset="1.0"
         stop-color="#cccccc"
         id="stop220" />
    </linearGradient>
    <linearGradient
       gradientTransform="matrix(-0.0017,0.0052,0.0044,0.0014,16.318627,34.362821)"
       gradientUnits="userSpaceOnUse"
       id="gradient26"
       spreadMethod="pad"
       x1="-819.20001"
       x2="819.20001">
      <stop
         offset="0.0"
         stop-color="#9999cc"
         id="stop223" />
      <stop
         offset="1.0"
         stop-color="#eeeeee"
         id="stop225" />
    </linearGradient>
  </defs>
</svg>
