<?xml version="1.0" encoding="UTF-8" standalone="no"?>
<!-- Created with Inkscape (http://www.inkscape.org/) -->

<svg
   xmlns:dc="http://purl.org/dc/elements/1.1/"
   xmlns:cc="http://creativecommons.org/ns#"
   xmlns:rdf="http://www.w3.org/1999/02/22-rdf-syntax-ns#"
   xmlns:svg="http://www.w3.org/2000/svg"
   xmlns="http://www.w3.org/2000/svg"
   xmlns:sodipodi="http://sodipodi.sourceforge.net/DTD/sodipodi-0.dtd"
   xmlns:inkscape="http://www.inkscape.org/namespaces/inkscape"
   id="svg2"
   version="1.1"
   inkscape:version="0.91 r13725"
   width="256"
   height="256"
   viewBox="0 0 256 256"
   sodipodi:docname="User Support.svg">
  <metadata
     id="metadata8">
    <rdf:RDF>
      <cc:Work
         rdf:about="">
        <dc:format>image/svg+xml</dc:format>
        <dc:type
           rdf:resource="http://purl.org/dc/dcmitype/StillImage" />
        <dc:title></dc:title>
      </cc:Work>
    </rdf:RDF>
  </metadata>
  <defs
     id="defs6">
    <linearGradient
       gradientTransform="matrix(-0.06871152,-0.06871152,-0.06871152,0.06871152,92.155268,108.34652)"
       gradientUnits="userSpaceOnUse"
       id="gradient0"
       spreadMethod="pad"
       x1="-819.20001"
       x2="819.20001">
      <stop
         offset="0.0"
         stop-color="#003399"
         id="stop4093" />
      <stop
         offset="0.47058823529411764"
         stop-color="#0099ff"
         id="stop4095" />
      <stop
         offset="1.0"
         stop-color="#ccffff"
         id="stop4097" />
    </linearGradient>
    <radialGradient
       cx="0"
       cy="0"
       gradientTransform="matrix(0.15259312,0,0,0.15259312,82.562428,69.52897)"
       gradientUnits="userSpaceOnUse"
       id="gradient1"
       r="819.20001"
       spreadMethod="pad">
      <stop
         offset="0.0"
         stop-color="#ffffff"
         id="stop4100" />
      <stop
         offset="0.0784313725490196"
         stop-color="#ccffff"
         id="stop4102" />
      <stop
         offset="0.2980392156862745"
         stop-color="#0099ff"
         id="stop4104" />
      <stop
         offset="0.5372549019607843"
         stop-color="#0066cc"
         id="stop4106" />
      <stop
         offset="0.7529411764705882"
         stop-color="#003399"
         id="stop4108" />
      <stop
         offset="1.0"
         stop-color="#9999ff"
         id="stop4110" />
    </radialGradient>
    <radialGradient
       cx="0"
       cy="0"
       gradientTransform="matrix(0.00490797,0,0,0.00490797,60.476578,42.981336)"
       gradientUnits="userSpaceOnUse"
       id="gradient2"
       r="819.20001"
       spreadMethod="pad">
      <stop
         offset="0.0"
         stop-color="#00bf00"
         id="stop4113" />
      <stop
         offset="0.9294117647058824"
         stop-color="#006600"
         id="stop4115" />
    </radialGradient>
    <radialGradient
       cx="0"
       cy="0"
       gradientTransform="matrix(0.01293919,0,0,0.01293919,70.069418,45.658408)"
       gradientUnits="userSpaceOnUse"
       id="gradient3"
       r="819.20001"
       spreadMethod="pad">
      <stop
         offset="0.0"
         stop-color="#00bf00"
         id="stop4118" />
      <stop
         offset="0.9294117647058824"
         stop-color="#006600"
         id="stop4120" />
    </radialGradient>
    <radialGradient
       cx="0"
       cy="0"
       gradientTransform="matrix(4.4617873e-4,0,0,4.4617873e-4,67.169258,37.850281)"
       gradientUnits="userSpaceOnUse"
       id="gradient4"
       r="819.20001"
       spreadMethod="pad">
      <stop
         offset="0.0"
         stop-color="#00bf00"
         id="stop4123" />
      <stop
         offset="0.9294117647058824"
         stop-color="#006600"
         id="stop4125" />
    </radialGradient>
    <radialGradient
       cx="0"
       cy="0"
       gradientTransform="matrix(0.00669268,0,0,0.00669268,72.969588,39.411906)"
       gradientUnits="userSpaceOnUse"
       id="gradient5"
       r="819.20001"
       spreadMethod="pad">
      <stop
         offset="0.0"
         stop-color="#00bf00"
         id="stop4128" />
      <stop
         offset="0.9294117647058824"
         stop-color="#006600"
         id="stop4130" />
    </radialGradient>
    <radialGradient
       cx="0"
       cy="0"
       gradientTransform="matrix(0.03167869,0,0,0.03167869,98.624858,52.574178)"
       gradientUnits="userSpaceOnUse"
       id="gradient6"
       r="819.20001"
       spreadMethod="pad">
      <stop
         offset="0.0"
         stop-color="#00bf00"
         id="stop4133" />
      <stop
         offset="0.9294117647058824"
         stop-color="#006600"
         id="stop4135" />
    </radialGradient>
    <radialGradient
       cx="0"
       cy="0"
       gradientTransform="matrix(0.00401561,0,0,0.00401561,53.114628,45.881498)"
       gradientUnits="userSpaceOnUse"
       id="gradient7"
       r="819.20001"
       spreadMethod="pad">
      <stop
         offset="0.0"
         stop-color="#00bf00"
         id="stop4138" />
      <stop
         offset="0.9294117647058824"
         stop-color="#006600"
         id="stop4140" />
    </radialGradient>
    <radialGradient
       cx="0"
       cy="0"
       gradientTransform="matrix(0.00133854,0,0,0.00133854,72.300318,67.744256)"
       gradientUnits="userSpaceOnUse"
       id="gradient8"
       r="819.20001"
       spreadMethod="pad">
      <stop
         offset="0.0"
         stop-color="#00bf00"
         id="stop4143" />
      <stop
         offset="0.9294117647058824"
         stop-color="#006600"
         id="stop4145" />
    </radialGradient>
    <radialGradient
       cx="0"
       cy="0"
       gradientTransform="matrix(0.01383154,0,0,0.01383154,80.331528,59.489949)"
       gradientUnits="userSpaceOnUse"
       id="gradient9"
       r="819.20001"
       spreadMethod="pad">
      <stop
         offset="0.0"
         stop-color="#00bf00"
         id="stop4148" />
      <stop
         offset="0.9294117647058824"
         stop-color="#006600"
         id="stop4150" />
    </radialGradient>
    <radialGradient
       cx="0"
       cy="0"
       gradientTransform="matrix(0.00758504,0,0,0.00758504,120.93381,66.405719)"
       gradientUnits="userSpaceOnUse"
       id="gradient10"
       r="819.20001"
       spreadMethod="pad">
      <stop
         offset="0.0"
         stop-color="#00bf00"
         id="stop4153" />
      <stop
         offset="0.9294117647058824"
         stop-color="#006600"
         id="stop4155" />
    </radialGradient>
    <radialGradient
       cx="0"
       cy="0"
       gradientTransform="matrix(0.05978795,0,0,0.05978795,143.46584,106.78489)"
       gradientUnits="userSpaceOnUse"
       id="gradient11"
       r="819.20001"
       spreadMethod="pad">
      <stop
         offset="0.0"
         stop-color="#00bf00"
         id="stop4158" />
      <stop
         offset="0.9294117647058824"
         stop-color="#006600"
         id="stop4160" />
    </radialGradient>
    <radialGradient
       cx="0"
       cy="0"
       gradientTransform="matrix(8.9235746e-4,0,0,8.9235746e-4,136.55006,97.86132)"
       gradientUnits="userSpaceOnUse"
       id="gradient12"
       r="819.20001"
       spreadMethod="pad">
      <stop
         offset="0.0"
         stop-color="#00bf00"
         id="stop4163" />
      <stop
         offset="0.9294117647058824"
         stop-color="#006600"
         id="stop4165" />
    </radialGradient>
    <radialGradient
       cx="0"
       cy="0"
       gradientTransform="matrix(0.00178472,0,0,0.00178472,114.6873,112.80831)"
       gradientUnits="userSpaceOnUse"
       id="gradient13"
       r="819.20001"
       spreadMethod="pad">
      <stop
         offset="0.0"
         stop-color="#00bf00"
         id="stop4168" />
      <stop
         offset="0.9294117647058824"
         stop-color="#006600"
         id="stop4170" />
    </radialGradient>
    <radialGradient
       cx="0"
       cy="0"
       gradientTransform="matrix(4.4617873e-4,0,0,4.4617873e-4,86.354948,113.25449)"
       gradientUnits="userSpaceOnUse"
       id="gradient14"
       r="819.20001"
       spreadMethod="pad">
      <stop
         offset="0.0"
         stop-color="#00bf00"
         id="stop4173" />
      <stop
         offset="0.9294117647058824"
         stop-color="#006600"
         id="stop4175" />
    </radialGradient>
    <radialGradient
       cx="0"
       cy="0"
       gradientTransform="matrix(0.00223089,0,0,0.00223089,84.124048,113.25449)"
       gradientUnits="userSpaceOnUse"
       id="gradient15"
       r="819.20001"
       spreadMethod="pad">
      <stop
         offset="0.0"
         stop-color="#00bf00"
         id="stop4178" />
      <stop
         offset="0.9294117647058824"
         stop-color="#006600"
         id="stop4180" />
    </radialGradient>
    <radialGradient
       cx="0"
       cy="0"
       gradientTransform="matrix(0.00223089,0,0,0.00223089,87.247298,115.48538)"
       gradientUnits="userSpaceOnUse"
       id="gradient16"
       r="819.20001"
       spreadMethod="pad">
      <stop
         offset="0.0"
         stop-color="#00bf00"
         id="stop4183" />
      <stop
         offset="0.9294117647058824"
         stop-color="#006600"
         id="stop4185" />
    </radialGradient>
    <radialGradient
       cx="0"
       cy="0"
       gradientTransform="matrix(4.4617873e-4,0,0,4.4617873e-4,87.247298,113.25449)"
       gradientUnits="userSpaceOnUse"
       id="gradient17"
       r="819.20001"
       spreadMethod="pad">
      <stop
         offset="0.0"
         stop-color="#00bf00"
         id="stop4188" />
      <stop
         offset="0.9294117647058824"
         stop-color="#006600"
         id="stop4190" />
    </radialGradient>
    <radialGradient
       cx="0"
       cy="0"
       gradientTransform="matrix(0.00133854,0,0,0.00133854,77.431368,107.00798)"
       gradientUnits="userSpaceOnUse"
       id="gradient18"
       r="819.20001"
       spreadMethod="pad">
      <stop
         offset="0.0"
         stop-color="#00bf00"
         id="stop4193" />
      <stop
         offset="0.9294117647058824"
         stop-color="#006600"
         id="stop4195" />
    </radialGradient>
    <radialGradient
       cx="0"
       cy="0"
       gradientTransform="matrix(8.9235746e-4,0,0,8.9235746e-4,75.423568,106.33871)"
       gradientUnits="userSpaceOnUse"
       id="gradient19"
       r="819.20001"
       spreadMethod="pad">
      <stop
         offset="0.0"
         stop-color="#00bf00"
         id="stop4198" />
      <stop
         offset="0.9294117647058824"
         stop-color="#006600"
         id="stop4200" />
    </radialGradient>
    <radialGradient
       cx="0"
       cy="0"
       gradientTransform="matrix(0.00133854,0,0,0.00133854,76.762098,109.23888)"
       gradientUnits="userSpaceOnUse"
       id="gradient20"
       r="819.20001"
       spreadMethod="pad">
      <stop
         offset="0.0"
         stop-color="#00bf00"
         id="stop4203" />
      <stop
         offset="0.9294117647058824"
         stop-color="#006600"
         id="stop4205" />
    </radialGradient>
    <radialGradient
       cx="0"
       cy="0"
       gradientTransform="matrix(0.00758504,0,0,0.00758504,75.869748,111.46977)"
       gradientUnits="userSpaceOnUse"
       id="gradient21"
       r="819.20001"
       spreadMethod="pad">
      <stop
         offset="0.0"
         stop-color="#00bf00"
         id="stop4208" />
      <stop
         offset="0.9294117647058824"
         stop-color="#006600"
         id="stop4210" />
    </radialGradient>
    <radialGradient
       cx="0"
       cy="0"
       gradientTransform="matrix(0.00133854,0,0,0.00133854,78.769908,108.7927)"
       gradientUnits="userSpaceOnUse"
       id="gradient22"
       r="819.20001"
       spreadMethod="pad">
      <stop
         offset="0.0"
         stop-color="#00bf00"
         id="stop4213" />
      <stop
         offset="0.9294117647058824"
         stop-color="#006600"
         id="stop4215" />
    </radialGradient>
    <radialGradient
       cx="0"
       cy="0"
       gradientTransform="matrix(0.12626858,0,0,0.12626858,75.869748,65.95954)"
       gradientUnits="userSpaceOnUse"
       id="gradient23"
       r="819.20001"
       spreadMethod="pad">
      <stop
         offset="0.0"
         stop-color="#00bf00"
         id="stop4218" />
      <stop
         offset="0.9294117647058824"
         stop-color="#006600"
         id="stop4220" />
    </radialGradient>
    <radialGradient
       cx="0"
       cy="0"
       gradientTransform="matrix(0.0208,0,0,0.0208,229.67886,73.516454)"
       gradientUnits="userSpaceOnUse"
       id="gradient0-3"
       r="819.20001"
       spreadMethod="pad">
      <stop
         offset="0.0"
         stop-color="#ccffcc"
         id="stop51" />
      <stop
         offset="1.0"
         stop-color="#009900"
         id="stop53" />
    </radialGradient>
    <linearGradient
       gradientTransform="matrix(-7e-4,0.0077,0.0063,5e-4,231.27886,78.666454)"
       gradientUnits="userSpaceOnUse"
       id="gradient1-8"
       spreadMethod="pad"
       x1="-819.20001"
       x2="819.20001">
      <stop
         offset="0.0"
         stop-color="#99ccff"
         id="stop56" />
      <stop
         offset="0.09411764705882353"
         stop-color="#99ccff"
         id="stop58" />
      <stop
         offset="0.396078431372549"
         stop-color="#ffffff"
         id="stop60" />
      <stop
         offset="1.0"
         stop-color="#ccffff"
         id="stop62" />
    </linearGradient>
    <radialGradient
       cx="0"
       cy="0"
       gradientTransform="matrix(0.0277,0,0,0.0277,230.42886,53.816454)"
       gradientUnits="userSpaceOnUse"
       id="gradient2-0"
       r="819.20001"
       spreadMethod="pad">
      <stop
         offset="0.0"
         stop-color="#ffff99"
         id="stop65" />
      <stop
         offset="0.24313725490196078"
         stop-color="#ffcc66"
         id="stop67" />
      <stop
         offset="0.7137254901960784"
         stop-color="#ff9933"
         id="stop69" />
      <stop
         offset="1.0"
         stop-color="#996600"
         id="stop71" />
    </radialGradient>
    <linearGradient
       gradientTransform="matrix(0,0.0022,0.0096,0,232.12886,59.216454)"
       gradientUnits="userSpaceOnUse"
       id="gradient3-0"
       spreadMethod="pad"
       x1="-819.20001"
       x2="819.20001">
      <stop
         offset="0.0"
         stop-color="#ff9933"
         id="stop74" />
      <stop
         offset="0.48627450980392156"
         stop-color="#ff9933"
         id="stop76" />
      <stop
         offset="1.0"
         stop-color="#ffcc66"
         id="stop78" />
    </linearGradient>
    <radialGradient
       cx="0"
       cy="0"
       gradientTransform="matrix(0.016,0,0,0.016,231.02886,52.866454)"
       gradientUnits="userSpaceOnUse"
       id="gradient4-6"
       r="819.20001"
       spreadMethod="pad">
      <stop
         offset="0.0"
         stop-color="#f0ddbd"
         id="stop81" />
      <stop
         offset="0.3803921568627451"
         stop-color="#d8a650"
         id="stop83" />
      <stop
         offset="0.8196078431372549"
         stop-color="#996600"
         id="stop85" />
      <stop
         offset="1.0"
         stop-color="#926821"
         id="stop87" />
    </radialGradient>
    <linearGradient
       gradientTransform="matrix(-0.0075,0.0035,0.0026,0.0056,232.42886,57.616454)"
       gradientUnits="userSpaceOnUse"
       id="gradient5-1"
       spreadMethod="pad"
       x1="-819.20001"
       x2="819.20001">
      <stop
         offset="0.0"
         stop-color="#996600"
         id="stop90" />
      <stop
         offset="0.3411764705882353"
         stop-color="#f0ddbd"
         id="stop92" />
      <stop
         offset="0.6784313725490196"
         stop-color="#d8a650"
         id="stop94" />
      <stop
         offset="1.0"
         stop-color="#996600"
         id="stop96" />
    </linearGradient>
  </defs>
  <sodipodi:namedview
     pagecolor="#ffffff"
     bordercolor="#666666"
     borderopacity="1"
     objecttolerance="10"
     gridtolerance="10"
     guidetolerance="10"
     inkscape:pageopacity="0"
     inkscape:pageshadow="2"
     inkscape:window-width="1920"
     inkscape:window-height="1033"
     id="namedview4"
     showgrid="false"
     inkscape:zoom="2.6074563"
     inkscape:cx="90.370318"
     inkscape:cy="153.7544"
     inkscape:window-x="-4"
     inkscape:window-y="-4"
     inkscape:window-maximized="1"
     inkscape:current-layer="svg2" />
  <g
     id="g5172"
     transform="matrix(1.5263708,0,0,1.5263708,-18.534921,-43.98984)">
    <path
       d="m 12.512365,108.34652 q 0,32.79413 23.201294,56.21851 23.424379,23.20129 56.441609,23.20129 32.794152,0 56.218522,-23.20129 23.20131,-23.42438 23.20131,-56.21851 0,-33.017226 -23.20131,-56.218521 -23.42437,-23.201293 -56.218522,-23.201293 -33.01723,0 -56.441609,23.201293 -23.201294,23.201295 -23.201294,56.218521"
       id="path3998"
       style="fill:url(#gradient0);fill-rule:evenodd;stroke:none"
       inkscape:connector-curvature="0" />
    <path
       d="m 16.974152,108.34652 q 0,31.00942 21.862758,53.09526 22.085848,22.08585 53.318358,22.08585 31.009432,0 53.318372,-22.08585 21.86275,-22.08584 21.86275,-53.09526 0,-31.232512 -21.86275,-53.318359 -22.30894,-22.085846 -53.318372,-22.085846 -31.23251,0 -53.318358,22.085846 -21.862758,22.085847 -21.862758,53.318359"
       id="path4000"
       style="fill:url(#gradient1);fill-rule:evenodd;stroke:none"
       inkscape:connector-curvature="0" />
    <path
       d="m 59.361128,40.750443 1.56163,0 0,0.892357 -0.44618,0 0,2.453982 0.44618,0 0,-1.115446 3.12325,0 0,2.007804 -0.89236,0 0,0.446179 -2.67707,0 0,-0.446179 -1.56162,0 0,-0.446179 -0.44618,0 0,-1.115446 -0.44618,0 0,-0.446179 -0.89236,0 0,-0.446179 -0.44618,0 0,-0.446179 0.89236,0 0,-0.446179 0.89236,0 0,-0.446177 0.89235,0 0,-0.446179"
       id="path4002"
       style="fill:url(#gradient2);fill-rule:evenodd;stroke:none"
       inkscape:connector-curvature="0" />
    <path
       d="m 62.261298,39.411906 1.33853,0 0,-0.446178 0.44618,0 0,0.892357 0.89236,0 0,0.446179 0.44618,0 0,0.446179 1.78471,0 0,0.892357 0.44618,0 0,0.892357 0.89236,0 0,0.446179 0.66927,0 0,0.446179 1.78471,0 0,-0.446179 1.78472,0 0,0.446179 1.78471,0 0,0.669267 0.89236,0 0,3.123252 2.90016,0 0,0.892357 0.44618,0 0,1.338536 -4.68488,0 0,-1.784715 -1.33853,0 0,-0.446178 -0.89236,0 0,0.446178 -3.34634,0 0,0.446179 -0.44618,0 0,1.338536 -0.44618,0 0,0.446179 -0.44618,0 0,0.446179 -0.89236,0 0,0.446179 -0.44617,0 0,1.338535 -1.33854,0 0,-3.12325 -0.44618,0 0,-0.892358 0.44618,0 0,-0.446179 0.44618,0 0,-0.892357 0.89236,0 0,-3.792519 -0.44618,0 0,-0.446179 -0.44618,0 0,0.446179 -0.44618,0 0,-0.446179 -1.33854,0 0,-1.784714 -1.78471,0 0,-0.892358 0.89236,0 0,-0.446179"
       id="path4004"
       style="fill:url(#gradient3);fill-rule:evenodd;stroke:none"
       inkscape:connector-curvature="0" />
    <path
       d="m 67.169258,37.627191 0,0.446179 -0.44618,0 0,-0.446179 0.44618,0"
       id="path4006"
       style="fill:url(#gradient4);fill-rule:evenodd;stroke:none"
       inkscape:connector-curvature="0" />
    <path
       d="m 74.531208,36.734834 1.33854,0 0,0.446179 0.44618,0 0,0.446178 0.44617,0 0,1.784715 1.11545,0 0,1.338537 -0.44618,0 0,0.892357 -0.66927,0 0,0.446178 -0.44617,0 0,0.892358 -3.12326,0 0,-1.338536 -0.44617,0 0,-0.446178 0.44617,0 0,-0.892358 -0.89235,0 0,-0.446179 0.44618,0 0,-0.446179 -0.44618,0 0,-0.892357 -0.44618,0 0,0.446179 -1.33854,0 0,-0.446179 -0.89236,0 0,-0.446179 -0.44617,0 0,-0.446179 -1.11545,0 0,-0.446178 1.56162,0 0,-0.446179 1.78472,0 0,0.892357 0.89236,0 0,0.446179 0.44618,0 0,-1.338536 0.44617,0 0,-0.892358 1.33854,0 0,0.892358"
       id="path4008"
       style="fill:url(#gradient5);fill-rule:evenodd;stroke:none"
       inkscape:connector-curvature="0" />
    <path
       d="m 79.662268,35.173208 1.78471,0 0,-0.446178 1.78472,0 0,-0.446179 0.44617,0 0,-0.446179 2.45399,0 0,0.446179 1.33853,0 0,-0.446179 3.12325,0 0,0.446179 0.44618,0 0,0.446179 0.44618,0 0,0.446178 0.44618,0 0,2.007805 0.44618,0 0,0.446178 0.44618,0 0,0.446179 -0.89236,0 0,0.446179 -0.89236,0 0,0.446179 1.33854,0 0,-0.446179 2.45398,0 0,-0.446179 2.2309,0 0,-0.446179 2.23089,0 0,-0.446178 0.44618,0 0,-0.446179 1.338532,0 0,-0.446179 0.44618,0 0,-0.446179 1.56163,0 0,-0.669268 0.89236,0 0,-0.446178 5.13105,0 0,0.446178 1.78472,0 0,0.669268 1.78472,0 0,0.446179 2.0078,0 0,0.446179 0.44618,0 0,0.892357 -0.44618,0 0,0.446179 2.67708,0 0,1.338536 -0.44618,0 0,0.446179 -0.44618,0 0,0.446179 -0.44618,0 0,0.446179 0.89236,0 0,-0.446179 0.44618,0 0,-0.446179 0.44617,0 0,-1.338536 2.2309,0 0,0.446179 0.89236,0 0,0.892357 -0.44618,0 0,1.338537 -0.44618,0 0,0.446177 -0.89236,0 0,0.446179 -0.44618,0 0,0.892358 -0.44618,0 0,0.446179 2.2309,0 0,0.669267 -0.44618,0 0,0.446179 -3.56943,0 0,0.446179 -0.44618,0 0,1.338537 0.44618,0 0,-0.446179 0.89236,0 0,-0.892358 1.78471,0 0,0.446179 0.44618,0 0,0.892358 -1.78472,0 0,1.338535 -0.89235,0 0,-0.446178 -0.89236,0 0,1.338536 -0.44618,0 0,0.446179 0.44618,0 0,1.784715 0.44618,0 0,-0.892358 0.44618,0 0,-1.784715 1.33853,0 0,0.446179 1.33854,0 0,0.892357 0.44618,0 0,0.892358 0.44618,0 0,0.446179 0.44618,0 0,0.892358 -2.2309,0 0,0.446177 0.44618,0 0,0.669269 0.44618,0 0,1.338536 -0.44618,0 0,0.446179 -0.44618,0 0,0.446178 -0.44618,0 0,0.446179 -0.44618,0 0,0.446179 -1.33853,0 0,1.784715 0.44618,0 0,0.446178 0.44618,0 0,1.784716 -0.44618,0 0,1.115446 -0.44618,0 0,0.446179 -1.33854,0 0,0.446179 -0.44618,0 0,0.446179 -1.56162,0 0,0.446178 -0.89237,0 0,-0.446178 -0.44618,0 0,0.446178 -0.44618,0 0,0.446179 -1.78471,0 0,0.892358 -0.44618,0 0,0.446178 -0.44618,0 0,0.446179 -0.44618,0 0,0.446178 -1.33853,0 0,0.446179 -1.33854,0 0,0.892358 -0.44618,0 0,1.338536 -1.11544,0 0,1.561626 -0.44618,0 0,1.338535 -2.00781,0 0,-0.446177 -2.230892,0 0,-0.446179 -0.44618,0 0,-0.446179 -0.44618,0 0,-1.115448 -0.44618,0 0,-0.446178 -0.44617,0 0,-0.892357 -0.44618,0 0,-0.892358 -0.44618,0 0,-0.892358 -0.44618,0 0,-1.784714 -0.44618,0 0,-0.446179 0.44618,0 0,-0.446179 0.44618,0 0,-0.892357 0.89236,0 0,-0.446179 0.44617,0 0,-0.446179 -0.44617,0 0,-0.669268 -1.33854,0 0,-0.446178 -0.44618,0 0,-0.446179 0.44618,0 0,-0.446179 -1.78472,0 0,-0.446179 0.44618,0 0,-0.446179 0.44618,0 0,-3.569429 -0.44618,0 0,-0.446179 -0.44618,0 0,-1.338536 -0.44617,0 0,-0.669269 -0.66927,0 0,-0.446177 -3.56943,0 0,0.446177 -1.33854,0 0,0.669269 -0.89236,0 0,-1.115446 -2.90016,0 0,-0.892358 -0.44618,0 0,-1.338537 2.00781,0 0,-0.446178 -0.44618,0 0,-0.446179 -1.11545,0 0,-0.446179 -0.89236,0 0,-0.446179 -0.44617,0 0,-0.446178 0.44617,0 0,-0.446179 0.44618,0 0,-0.446178 2.45399,0 0,-0.446179 0.44617,0 0,-0.446179 1.78472,0 0,-0.446179 0.44618,0 0,-0.446179 -0.44618,0 0,-1.115446 -1.33854,0 0,-0.892358 0.44618,0 0,-0.892358 -0.44618,0 0,0.446179 -1.78471,0 0,0.446179 -0.66927,0 0,0.892358 -0.44618,0 0,0.669267 -0.44618,0 0,0.446179 -0.44618,0 0,0.446179 -0.89235,0 0,0.446179 -0.44618,0 0,1.338536 -0.89236,0 0,0.446179 -1.78471,0 0,-0.446179 -1.78472,0 0,-0.446178 -1.11545,0 0,-0.446179 -0.44617,0 0,-0.892358 0.44617,0 0,-0.446179 0.66927,0 0,-1.115446 0.44618,0 0,-0.446179 0.44618,0 0,-0.446179 0.44618,0 0,-0.446179 0.89236,0 0,-0.892356 0.44617,0 0,-1.338537 -0.44617,0 0,-0.892357 1.78471,0 0,0.446178 0.44618,0 0,-0.892357 2.23089,0 0,-0.446179 -4.01561,0 0,-0.446179 -0.89235,0 0,-1.784715 0.44618,0 0,-0.669268 m 34.578852,24.76292 0.44618,0 0,-0.446179 -0.44618,0 0,0.446179"
       id="path4010"
       style="fill:url(#gradient6);fill-rule:evenodd;stroke:none"
       inkscape:connector-curvature="0" />
    <path
       d="m 51.106828,45.881498 0,-0.446179 1.11544,0 0,-0.446179 0.44618,0 0,-0.446179 0.89236,0 0,-0.446179 0.89236,0 0,0.446179 1.33853,0 0,0.446179 0.44618,0 0,0.892358 -0.44618,0 0,0.892357 -0.89235,0 0,0.446179 -1.78472,0 0,0.446178 -2.45398,0 0,-0.892357 -0.89236,0 0,-0.446178 0.89236,0 0,-0.446179 0.44618,0"
       id="path4012"
       style="fill:url(#gradient7);fill-rule:evenodd;stroke:none"
       inkscape:connector-curvature="0" />
    <path
       d="m 71.407958,67.298077 1.78471,0 0,0.892357 -1.78471,0 0,-0.892357"
       id="path4014"
       style="fill:url(#gradient8);fill-rule:evenodd;stroke:none"
       inkscape:connector-curvature="0" />
    <path
       d="m 73.192668,52.127999 0,-1.338535 4.2387,0 0,0.892358 0.44618,0 0,0.446177 -0.44618,0 0,0.669269 0.89236,0 0,0.446179 2.67707,0 0,0.446179 0.44618,0 0,0.892357 1.33854,0 0,0.892357 0.89235,0 0,0.446179 0.44618,0 0,0.892358 0.89236,0 0,2.230893 -0.89236,0 0,0.446179 0.89236,0 0,0.446179 1.11545,0 0,0.446178 0.44618,0 0,1.115447 1.33853,0 0,1.338536 0.44618,0 0,0.892358 -0.89236,0 0,0.446179 -1.33853,0 0,0.446178 -0.44618,0 0,0.446179 0.44618,0 0,0.892357 0.44618,0 0,1.784716 -0.89236,0 0,-0.446179 -0.66927,0 0,0.892357 -1.33854,0 0,-0.446178 -0.44617,0 0,-0.446179 -0.89236,0 0,-0.446179 -0.44618,0 0,-0.892358 -0.89236,0 0,-0.446179 -2.23089,0 0,-0.446178 -0.44618,0 0,-0.892357 0.44618,0 0,-0.892358 0.89236,0 0,0.446179 0.44617,0 0,-0.446179 0.44618,0 0,-1.338536 0.44618,0 0,-2.453983 -0.44618,0 0,-0.446179 -0.44618,0 0,-0.446179 -0.44617,0 0,-0.446179 -1.33854,0 0,-0.446178 -0.89236,0 0,1.784715 -0.66927,0 0,0.446179 -0.44617,0 0,-0.446179 -0.89236,0 0,-1.784715 -0.89236,0 0,-0.446178 -0.89236,0 0,-1.338537 -0.44618,0 0,-0.892358 -0.44617,0 0,-0.446178 -0.44618,0 0,-0.892357 0.44618,0 0,-1.561627 0.44617,0 m 2.67708,6.023413 0,0.892358 0.44618,0 0,-0.892358 -0.44618,0 m 8.70048,5.577235 0,-0.892358 -0.44618,0 0,0.892358 0.44618,0"
       id="path4016"
       style="fill:url(#gradient9);fill-rule:evenodd;stroke:none"
       inkscape:connector-curvature="0" />
    <path
       d="m 126.95722,65.513361 0,1.338537 -0.44618,0 0,0.446179 -0.44618,0 0,0.446179 -0.89236,0 0,0.446178 -0.89236,0 0,0.446178 -2.90015,0 0,0.669269 -2.2309,0 0,-0.669269 -1.33854,0 0,-0.446178 -0.44617,0 0,-0.446178 -0.89236,0 0,-0.446179 -1.33854,0 0,-0.892358 0.44618,0 0,-0.446179 0.44618,0 0,-0.446179 -0.89236,0 0,-0.892357 0.44618,0 0,-0.892357 0.44618,0 0,-0.446179 1.33854,0 0,0.446179 0.44617,0 0,0.446179 0.44618,0 0,0.446178 0.44618,0 0,-0.446178 0.44618,0 0,-0.446179 1.78472,0 0,0.446179 2.45398,0 0,-0.446179 1.78471,0 0,0.446179 0.44618,0 0,0.446178 0.44618,0 0,0.446179 0.44618,0 0,0.446178 0.44618,0"
       id="path4018"
       style="fill:url(#gradient10);fill-rule:evenodd;stroke:none"
       inkscape:connector-curvature="0" />
    <path
       d="m 129.63429,78.006366 0.66927,0 0,-1.561626 0.44618,0 0,-0.446178 1.78472,0 0,0.892357 -0.44618,0 0,0.669268 0.44618,0 0,0.446179 1.33853,0 0,3.792519 0.44618,0 0,0.446179 0.44617,0 0,0.892358 0.44618,0 0,0.446178 0.44618,0 0,0.446179 0.44618,0 0,1.784715 0.44618,0 0,-0.446179 0.44618,0 0,-0.446179 0.44618,0 0,-0.892357 0.44617,0 0,-0.892357 2.00781,0 0,-0.446179 0.89236,0 0,-1.784715 -0.44618,0 0,-2.007804 0.44618,0 0,-0.446179 0.44618,0 0,-0.446179 -2.23089,0 0,-0.446179 -0.44618,0 0,-1.561625 -0.66928,0 0,-0.892358 0.66928,0 0,-1.784714 -0.66928,0 0,-1.338537 0.66928,0 0,-0.446179 -0.66928,0 0,-0.446179 1.11546,0 0,-0.446177 0.44618,0 0,-0.446179 0.44617,0 0,-0.446179 0.89236,0 0,-0.446179 0.44618,0 0,-0.669269 0.44618,0 0,-0.446178 0.44618,0 0,-0.446178 0.44618,0 0,-0.446179 0.44618,0 0,-0.446179 0.44618,0 0,-0.892358 0.44617,0 0,-0.892357 0.44618,0 0,-0.892357 0.89236,0 0,-1.338537 0.44618,0 0,-0.892357 0.44618,0 0,-0.892358 0.44618,0 0,-1.561625 0.66926,0 0,-0.892358 0.44618,0 0,-0.446179 1.33854,0 0,0.446179 0.44618,0 0,0.446179 0.44617,0 0,0.446179 0.44618,0 0,0.446179 0.44618,0 0,1.115446 0.44618,0 0,0.446179 0.44618,0 0,0.446179 0.44618,0 0,0.446179 0.44618,0 0,0.892357 0.44618,0 0,0.446179 0.44618,0 0,0.892357 0.44617,0 0,0.446179 0.44618,0 0,0.446178 0.44618,0 0,0.892358 0.66927,0 0,0.446179 0.44617,0 0,0.892358 0.44618,0 0,0.446178 0.44618,0 0,1.115447 0.44618,0 0,0.892358 0.44618,0 0,0.446179 0.44618,0 0,0.892356 0.44618,0 0,0.892358 0.44618,0 0,0.892358 0.44618,0 0,0.892357 0.44618,0 0,0.892357 0.44617,0 0,0.892358 0.44618,0 0,0.892357 0.44618,0 0,1.115447 0.44618,0 0,1.338536 0.44618,0 0,0.892358 0.44618,0 0,1.561625 0.44618,0 0,0.892358 0.66926,0 0,1.338536 0.44618,0 0,1.338536 0.44618,0 0,1.338537 0.44618,0 0,1.784714 0.44618,0 0,2.007804 0.44618,0 0,1.784716 0.44617,0 0,2.230893 0.44618,0 0,2.230894 0.44618,0 0,22.978207 -0.89236,0 0,0.44618 0.44618,0 0,2.45398 -0.44618,0 0,2.23089 -0.44617,0 0,1.78472 -0.44618,0 0,1.78471 -0.44618,0 0,1.78471 -0.44618,0 0,1.11546 -0.44618,0 0,0.44617 -0.44618,0 0,0.89236 -0.66926,0 0,0.89236 0.66926,0 0,0.89236 -0.66926,0 0,0.89236 -0.44618,0 0,1.33853 -0.44618,0 0,0.89235 -0.44618,0 0,1.56163 -0.44618,0 0,0.89236 -0.44618,0 0,0.89236 -0.44618,0 0,0.89235 -0.44617,0 0,0.89236 -0.44618,0 0,0.89236 -0.44618,0 0,0.89236 -0.44618,0 0,0.89236 -0.44618,0 0,0.89235 -0.44618,0 0,0.44618 -0.44618,0 0,1.11544 -0.44618,0 0,0.89236 -0.44618,0 0,0.44618 -0.44618,0 0,0.89236 -0.44617,0 0,0.44618 -0.66927,0 0,0.89236 -0.44618,0 0,0.44617 -0.44618,0 0,0.44618 -0.44617,0 0,0.89235 -0.44618,0 0,0.44618 -0.44618,0 0,0.89236 -2.67708,0 0,0.66926 -2.23089,0 0,-0.66926 -1.11544,0 0,-2.23089 -0.44618,0 0,-0.89235 -0.44618,0 0,-0.44618 -0.44618,0 0,-0.44618 -0.44618,0 0,-1.78472 -0.44618,0 0,-0.89236 -0.44618,0 0,-1.56162 -0.44617,0 0,-1.33853 -0.44618,0 0,-1.33854 -0.44618,0 0,-0.89236 -0.44618,0 0,-0.89236 -0.44618,0 0,-1.33853 0.44618,0 0,-2.00781 0.89236,0 0,-0.89236 -0.44618,0 0,-0.44617 0.44618,0 0,-0.44618 0.44618,0 0,-1.33853 -0.44618,0 0,-0.89236 -0.44618,0 0,-0.44618 -0.44618,0 0,-1.78472 -0.44618,0 0,-0.44618 -0.44618,0 0,-1.56163 -0.89236,0 0,-0.44618 -0.44618,0 0,-1.78471 0.44618,0 0,-0.89235 0.44618,0 0,-1.33854 -0.44618,0 0,-0.44618 -2.90016,0 0,-0.44618 -0.89236,0 0,-0.44618 -2.23089,0 0,0.44618 -1.78471,0 0,0.44618 -0.44618,0 0,-0.44618 -3.34635,0 0,0.44618 -2.67707,0 0,-0.44618 -0.44618,0 0,-0.44618 -0.44618,0 0,-0.44618 -0.44618,0 0,-0.44617 -0.89236,0 0,-0.89236 -0.44617,0 0,-1.11545 -0.44618,0 0,-0.44618 -0.44618,0 0,-0.44618 -1.11544,0 0,-0.44617 -0.44618,0 0,-0.44618 -0.44618,0 0,-0.44618 -0.44618,0 0,-0.44618 -0.44618,0 0,-2.67707 0.44618,0 0,-0.44618 0.44618,0 0,-0.89236 -0.44618,0 0,-2.0078 -0.44618,0 0,-0.44618 0.44618,0 0,-0.89236 0.44618,0 0,-0.44618 0.89236,0 0,-2.23089 1.56162,0 0,-0.89236 0.44618,0 0,-0.44618 0.44617,0 0,-0.44618 0.89236,0 0,-0.44618 0.44618,0 0,-0.44617 0.44618,0 0,-0.44618 0.44618,0 0,-1.11545 0.44618,0 0,-0.89236 0.44618,0 0,-0.44618 0.44618,0 0,-0.44617 0.44617,0 0,-1.33854 0.44618,0 0,-0.44618 -0.44618,0 0,-0.89236 -0.89235,0 0,-6.469588 0.89235,0 0,-0.446179 0.89236,0 0,0.446179 4.23871,0 0,-2.677073 -0.44618,0 0,-0.446179 -0.44618,0 0,-0.446179 -0.44618,0 0,-0.446178 -0.89236,0 0,-1.561626 0.89236,0 0,-0.446179 1.33854,0 0,-0.446178 -1.78472,0 0,0.446178 -2.00781,0 0,-0.892356 0.44618,0 0,-0.446179 0.66927,0 0,-0.446179 0.89236,0 0,-0.446179 -0.89236,0 0,-0.446179 -0.66927,0 0,0.446179 -1.33854,0 0,0.446179 -1.78471,0 0,-2.677072 -0.89236,0 0,-0.892358 0.44618,0 0,-0.446179 0.89236,0 0,0.446179 0.44618,0 0,-1.338536 2.90016,0 0,-1.115447 -0.66927,0 0,-1.784715 m 13.38537,-2.900162 0,0.446179 -0.44618,0 0,0.446179 -0.44618,0 0,0.892357 -0.44618,0 0,0.669268 -0.44618,0 0,0.446179 0.89236,0 0,-0.446179 0.44618,0 0,1.338537 0.44618,0 0,0.892357 -0.44618,0 0,2.007804 2.23089,0 0,0.446179 1.78472,0 0,-0.446179 0.66926,0 0,-0.446178 0.89236,0 0,0.446178 0.44618,0 0,-0.446178 0.89236,0 0,-1.115447 0.44617,0 0,-1.338536 0.44618,0 0,-0.446179 0.44618,0 0,-0.446179 0.44618,0 0,-0.446179 0.44618,0 0,0.446179 0.44618,0 0,0.446179 0.44618,0 0,-0.892358 -0.44618,0 0,-2.007804 0.44618,0 0,-0.446179 -0.44618,0 0,-0.446178 -0.89236,0 0,-0.446179 -0.44618,0 0,-4.461787 -0.44618,0 0,0.446179 -0.89235,0 0,0.446179 -0.44618,0 0,0.446177 -0.44618,0 0,2.677073 0.89236,0 0,1.784715 -0.44618,0 0,0.446179 -0.44618,0 0,0.892357 -0.44618,0 0,1.115447 -0.44618,0 0,1.338536 -0.44618,0 0,0.892358 -1.11544,0 0,0.669268 -1.78472,0 0,-0.669268 -0.44618,0 0,-0.892358 -0.44617,0 0,-1.338536 -0.44618,0 0,-1.115447 0.44618,0 0,-1.784715 -0.44618,0 m 10.4852,-8.700485 -1.33854,0 0,0.446179 -0.44618,0 0,0.446179 -0.44618,0 0,2.007804 0.44618,0 0,-0.669269 0.44618,0 0,-0.446178 0.44618,0 0,-0.446178 0.44618,0 0,-0.446179 0.44618,0 0,-0.892358 m 2.0078,8.700485 0,-0.446178 0.44617,0 0,-0.446179 -1.11544,0 0,0.446179 -1.33853,0 0,0.446178 2.0078,0 m -9.81593,18.962596 0,0.892358 0.89236,0 0,0.446178 0.66926,0 0,0.446179 0.89236,0 0,0.892358 0.44618,0 0,2.007804 -0.44618,0 0,0.446179 -0.89236,0 0,0.446179 -1.11544,0 0,0.892355 -0.44618,0 0,-0.44618 -1.78472,0 0,-0.446175 -0.44617,0 0,-0.892358 1.33853,0 0,-2.007804 -0.89236,0 0,-0.446179 -0.44617,0 0,-0.892358 -0.89236,0 0,-0.446178 -0.44618,0 0,3.34634 -0.44618,0 0,0.446179 -1.33854,0 0,-2.900162 0.44618,0 0,-1.338536 -0.89236,0 0,0.446179 -2.00781,0 0,-0.446179 -0.44617,0 0,1.338536 -0.44618,0 0,0.446179 -1.33854,0 0,0.446179 -0.89236,0 0,1.561625 -0.44617,0 0,0.446179 -0.44618,0 0,1.784713 0.89235,0 0,-0.44618 3.12325,0 0,-0.446175 4.23871,0 0,0.446175 0.44618,0 0,2.67708 0.44618,0 0,0.44617 1.33853,0 0,0.44618 1.33854,0 0,0.44618 0.44618,0 0,0.89236 0.44618,0 0,0.66927 1.11544,0 0,0.44618 1.33854,0 0,-0.44618 -0.44618,0 0,-1.11545 0.44618,0 0,-0.44618 3.12325,0 0,0.44618 2.23089,0 0,0.44618 5.13106,0 0,-0.44618 0.44618,0 0,-0.44618 0.44617,0 0,-0.89236 0.44618,0 0,-0.44617 0.44618,0 0,-0.89236 -0.44618,0 0,-0.44618 -2.23089,0 0,-0.44618 -0.44618,0 0,0.44618 -1.78472,0 0,-0.44618 -0.89235,0 0,-0.44618 -0.66927,0 0,-0.892355 -0.44618,0 0,-0.446179 -0.44618,0 0,-1.784715 -0.44617,0 0,0.446179 -0.44618,0 0,1.784715 -0.44618,0 0,0.446175 -0.44618,0 0,0.89236 -1.33854,0 0,-0.44618 -0.44618,0 0,-0.44618 -0.44618,0 0,-0.892354 -0.44617,0 0,-1.784715 -0.44618,0 0,-1.561626 -0.44618,0 0,-0.446179 -0.89236,0 0,-0.446178 -0.44618,0 0,-0.446179 -0.66926,0 0,-0.446179 -0.89236,0 m 11.15446,14.27772 0,0.44618 0.89236,0 0,-0.89236 -0.44618,0 0,-0.44618 -0.44618,0 0,-0.44618 -0.44618,0 0,-0.44618 -0.44618,0 0,1.78472 0.89236,0 m -11.60064,-3.79252 0,0.44618 0.44618,0 0,-0.44618 -0.44618,0 m 15.17007,5.13106 0.44618,0 0,0.89235 0.44618,0 0,0.89236 0.44618,0 0,0.89236 0.44618,0 0,0.89236 0.44618,0 0,1.11544 0.44618,0 0,1.78472 1.11544,0 0,0.89235 0.44618,0 0,0.44618 0.44618,0 0,0.44618 0.89236,0 0,0.44618 0.44617,0 0,-0.89236 -0.44617,0 0,-1.33853 -0.44618,0 0,-0.44618 -0.44618,0 0,-1.33854 -0.44618,0 0,-0.44618 -0.44618,0 0,-0.66926 -0.44618,0 0,-0.89236 -0.66926,0 0,-0.89236 -0.44618,0 0,-0.89236 -0.44618,0 0,-0.44618 -0.44618,0 0,-0.89235 -0.44618,0 0,-0.44618 -0.44618,0 0,-0.44618 -0.89235,0 0,0.44618 0.44617,0 0,0.89236 m -29.67088,-27.439996 0,0.446179 -0.44618,0 0,0.446179 1.33854,0 0,-0.892358 -0.89236,0 m 1.33854,6.246502 0,1.115447 0.44618,0 0,0.446178 0.44618,0 0,-1.561625 -0.89236,0 m 4.0156,-1.784714 0,0.446178 -0.89236,0 0,0.446178 -0.89235,0 0,0.446179 3.12325,0 0,-0.446179 -0.44618,0 0,-0.892356 -0.89236,0 m -6.91577,14.277718 1.11545,0 0,0.44618 1.78472,0 0,-0.44618 0.89236,0 0,-0.89236 -1.78472,0 0,0.44618 -2.00781,0 0,0.44618"
       id="path4020"
       style="fill:url(#gradient11);fill-rule:evenodd;stroke:none"
       inkscape:connector-curvature="0" />
    <path
       d="m 136.99624,98.307498 -1.33854,0 0,-0.892357 1.33854,0 0,0.892357"
       id="path4022"
       style="fill:url(#gradient12);fill-rule:evenodd;stroke:none"
       inkscape:connector-curvature="0" />
    <path
       d="m 115.57966,112.36213 -0.44618,0 0,0.89236 -0.44618,0 0,0.66926 -0.89236,0 0,-1.56162 0.44618,0 0,-0.89236 1.33854,0 0,0.89236"
       id="path4024"
       style="fill:url(#gradient13);fill-rule:evenodd;stroke:none"
       inkscape:connector-curvature="0" />
    <path
       d="m 86.578038,112.80831 0,0.44618 -0.44618,0 0,-0.44618 0.44618,0"
       id="path4026"
       style="fill:url(#gradient14);fill-rule:evenodd;stroke:none"
       inkscape:connector-curvature="0" />
    <path
       d="m 84.124048,113.92375 -1.78471,0 0,-1.56162 3.34634,0 0,0.89236 -1.56163,0 0,0.66926"
       id="path4028"
       style="fill:url(#gradient15);fill-rule:evenodd;stroke:none"
       inkscape:connector-curvature="0" />
    <path
       d="m 86.578038,116.60083 0,-2.2309 0.44617,0 0,-0.44618 0.89236,0 0,3.12325 -0.89236,0 0,-0.44617 -0.44617,0"
       id="path4030"
       style="fill:url(#gradient16);fill-rule:evenodd;stroke:none"
       inkscape:connector-curvature="0" />
    <path
       d="m 87.470388,112.80831 0,0.44618 -0.44618,0 0,-0.44618 0.44618,0"
       id="path4032"
       style="fill:url(#gradient17);fill-rule:evenodd;stroke:none"
       inkscape:connector-curvature="0" />
    <path
       d="m 77.431368,107.45416 0,0.44618 -0.66927,0 0,-1.78471 1.11545,0 0,1.33853 -0.44618,0"
       id="path4034"
       style="fill:url(#gradient18);fill-rule:evenodd;stroke:none"
       inkscape:connector-curvature="0" />
    <path
       d="m 76.315928,106.5618 -1.78472,0 0,-0.44617 1.78472,0 0,0.44617"
       id="path4036"
       style="fill:url(#gradient19);fill-rule:evenodd;stroke:none"
       inkscape:connector-curvature="0" />
    <path
       d="m 76.315928,110.13123 0,-0.89235 -0.44618,0 0,-0.89236 1.56162,0 0,1.78471 -1.11544,0"
       id="path4038"
       style="fill:url(#gradient20);fill-rule:evenodd;stroke:none"
       inkscape:connector-curvature="0" />
    <path
       d="m 76.315928,110.13123 0,0.44618 1.11544,0 0,0.44618 0.89236,0 0,-0.44618 1.78471,0 0,0.89236 0.89236,0 0,0.44618 0.89236,0 0,1.33854 -1.33854,0 0,0.66926 -1.78471,0 0,-0.66926 -1.33854,0 0,-0.89236 -1.11544,0 0,0.44618 0.44617,0 0,1.11544 -0.89235,0 0,-2.0078 -1.33854,0 0,-0.44618 -0.89236,0 0,-0.44618 -0.44618,0 0,-0.44618 -1.33853,0 0,-0.44618 -0.44618,0 0,0.44618 -1.33854,0 0,-1.33853 0.89236,0 0,-0.44618 1.78472,0 0,0.44618 1.33853,0 0,0.44618 1.33854,0 0,0.44617 0.89236,0"
       id="path4040"
       style="fill:url(#gradient21);fill-rule:evenodd;stroke:none"
       inkscape:connector-curvature="0" />
    <path
       d="m 79.662268,108.34652 0,0.89236 -1.78472,0 0,-0.89236 1.78472,0"
       id="path4042"
       style="fill:url(#gradient22);fill-rule:evenodd;stroke:none"
       inkscape:connector-curvature="0" />
    <path
       d="m 71.407958,67.298077 -1.33854,0 0,-0.892358 -0.89235,0 0,-1.338536 0.44617,0 0,-0.892357 0.89236,0 0,-0.446179 0.44618,0 0,-0.446179 0.44618,0 0,0.892358 0.89236,0 0,0.446178 0.44618,0 0,0.446179 0.89235,0 0,0.892357 0.44618,0 0,0.446179 0.44618,0 0,0.446179 0.89236,0 0,-0.446179 0.44618,0 0,-0.446179 0.89235,0 0,1.784716 -1.33853,0 0,0.446178 0.44618,0 0,0.446178 2.90016,0 0,0.669269 0.44618,0 0,0.446179 0.44618,0 0,0.446179 0.89235,0 0,3.123251 0.44618,0 0,0.446178 1.33854,0 0,-0.446178 0.89236,0 0,-1.338537 0.44617,0 0,-0.446179 0.89236,0 0,0.892358 0.44618,0 0,0.892358 0.66927,0 0,0.892357 0.44618,0 0,1.338536 0.44618,0 0,0.892357 0.44617,0 0,0.446179 0.44618,0 0,1.561626 0.44618,0 0,0.446179 1.78472,0 0,0.446178 0.44618,0 0,0.446179 0.44617,0 0,1.115447 0.44618,0 0,1.784715 -0.44618,0 0,0.446179 -0.89235,0 0,0.446178 -0.44618,0 0,0.446179 -0.44618,0 0,0.446178 -0.44618,0 0,0.446179 -0.89236,0 0,-0.446179 -1.33853,0 0,0.446179 -3.34634,0 0,0.446179 1.33853,0 0,1.784715 -0.44618,0 0,1.338536 0.44618,0 0,0.669269 0.89236,0 0,0.446178 0.66927,0 0,0.446178 0.44618,0 0,0.892358 -1.11545,0 0,0.446179 -0.89236,0 0,0.446179 -1.78471,0 0,-0.446179 -0.89236,0 0,0.446179 -0.44618,0 0,0.446179 -0.44618,0 0,0.446178 0.44618,0 0,0.446179 0.44618,0 0,0.446179 -0.44618,0 0,0.446178 -3.12325,0 0,2.677073 -1.11545,0 0,1.115447 -0.89235,0 0,0.446178 0.44618,0 0,0.892358 -0.44618,0 0,0.446179 -0.44618,0 0,0.446175 -0.89236,0 0,0.89236 -0.44618,0 0,0.44618 -0.44618,0 0,0.44618 -0.89235,0 0,0.89236 -0.44618,0 0,1.78471 0.44618,0 0,1.11545 0.44617,0 0,0.89235 0.44618,0 0,1.33854 -0.44618,0 0,0.44618 -1.33853,0 0,-0.44618 -0.44618,0 0,-0.44618 -0.44618,0 0,-0.44618 -0.44618,0 0,-0.89235 -0.44618,0 0,-1.56163 -0.44618,0 0,-0.44618 -4.23869,0 0,0.44618 -4.01561,0 0,0.44618 -0.89236,0 0,0.66927 -0.66927,0 0,0.44618 -0.44618,0 0,1.78471 0.44618,0 0,1.33854 0.66927,0 0,0.89235 0.44618,0 0,1.33854 0.44618,0 0,0.44618 1.33853,0 0,0.44618 1.33854,0 0,-0.44618 0.89236,0 0,-0.44618 0.44618,0 0,-0.89236 1.33853,0 0,-0.44618 2.45399,0 0,1.33854 -0.66927,0 0,2.90016 2.90016,0 0,3.12325 -0.44618,0 0,0.44618 0.44618,0 0,0.89236 0.44618,0 0,0.44618 0.89236,0 0,0.44618 0.89235,0 0,-0.44618 1.78472,0 0,0.44618 0.44618,0 0,-0.44618 0.44618,0 0,-0.89236 0.44617,0 0,-0.44618 1.56163,0 0,-0.44618 0.89236,0 0,-0.44618 2.23089,0 0,0.89236 0.89236,0 0,0.44618 0.44618,0 0,0.44618 0.44618,0 0,-0.44618 2.90016,0 0,0.44618 0.89235,0 0,0.44618 0.44618,0 0,0.44618 0.44618,0 0,0.44618 0.44618,0 0,0.44617 0.44618,0 0,0.44618 0.44618,0 0,0.44618 0.89236,0 0,0.44618 1.78471,0 0,0.66927 0.44618,0 0,0.44618 0.89236,0 0,0.44618 0.66927,0 0,0.44617 0.44617,0 0,0.44618 0.44618,0 0,2.2309 4.01561,0 0,1.33853 1.338542,0 0,0.44618 1.78471,0 0,0.44618 1.56163,0 0,0.44617 0.44618,0 0,0.44618 1.11544,0 0,0.44618 0.89236,0 0,3.79253 -0.44618,0 0,0.44618 -0.44618,0 0,0.89236 -0.66926,0 0,0.44617 -0.44618,0 0,0.89236 -0.44618,0 0,0.89235 -0.44618,0 0,2.00781 -0.44618,0 0,2.23089 -0.66927,0 0,0.89236 -0.44618,0 0,0.44618 -0.44618,0 0,0.44618 -0.44617,0 0,0.44618 -0.44618,0 0,0.44618 -0.892362,0 0,0.44618 -1.78471,0 0,0.89235 -0.89236,0 0,0.44618 -0.44618,0 0,0.44618 -0.44618,0 0,1.56162 -0.44618,0 0,0.89236 -0.44618,0 0,0.89236 -0.44618,0 0,0.44618 -0.44617,0 0,1.33853 -0.66927,0 0,0.89236 -0.44618,0 0,0.89235 -0.44618,0 0,0.89236 -0.44618,0 0,0.66926 -2.67707,0 0,0.44618 0.44618,0 0,2.90017 -0.44618,0 0,0.44618 -0.89236,0 0,0.44618 -0.89236,0 0,-0.44618 -1.33853,0 0,1.33853 -0.44618,0 0,0.89236 -1.56163,0 0,0.44618 0.44618,0 0,1.33854 -0.44618,0 0,0.89235 -0.44618,0 0,1.33853 -0.44617,0 0,0.44618 -0.89236,0 0,1.56163 0.89236,0 0,2.2309 -0.44618,0 0,0.44617 -0.44618,0 0,0.44618 -0.44618,0 0,0.89236 -0.44618,0 0,0.44618 -0.44618,0 0,0.89236 0.44618,0 0,1.78471 0.44618,0 0,0.44618 0.44618,0 0,0.66927 1.33853,0 0,0.44617 0.44618,0 0,0.44618 0.44618,0 0,1.33854 -0.44618,0 0,0.89236 -0.89235,0 0,-0.44618 -0.89236,0 0,0.44618 -0.89236,0 0,-0.44618 -1.78471,0 0,-0.89236 -0.89236,0 0,-1.33854 0.89236,0 0,-1.11544 -0.44618,0 0,-0.44618 -0.89236,0 0,0.44618 -0.89236,0 0,-0.44618 -0.66927,0 0,-0.44618 -0.44617,0 0,-0.44617 -0.44618,0 0,-5.35415 0.44618,0 0,-2.00781 0.44617,0 0,-0.44618 0.66927,0 0,-3.56942 -0.66927,0 0,-0.89236 0.66927,0 0,-0.89236 0.44618,0 0,-0.44618 -0.44618,0 0,-3.34634 0.44618,0 0,-1.33854 0.44618,0 0,-2.45397 0.44618,0 0,-3.12325 0.44618,0 0,-1.33854 0.44618,0 0,-7.36194 -0.44618,0 0,-0.44618 -0.44618,0 0,-0.44618 -0.44618,0 0,-0.44618 -0.89236,0 0,-0.44618 -1.11544,0 0,-0.66927 -0.44618,0 0,-0.44618 -0.44618,0 0,-0.44618 -0.44618,0 0,-0.44617 -0.44618,0 0,-2.23089 -0.44618,0 0,-0.89236 -0.44618,0 0,-0.89236 -0.44618,0 0,-0.44618 -0.44617,0 0,-0.44618 -0.44618,0 0,-1.33853 -0.44618,0 0,-1.11546 0.44618,0 0,-1.78471 0.44618,0 0,-0.44618 0.89235,0 0,-0.89235 0.44618,0 0,-1.33854 0.44618,0 0,-0.89236 0.44618,0 0,-0.89235 0.44618,0 0,-2.00781 -0.44618,0 0,-0.44618 -1.78472,0 0,-0.44618 -3.12325,0 0,-0.44617 -0.89235,0 0,-1.33854 -0.66927,0 0,-0.89236 -0.44618,0 0,-0.44618 -0.89236,0 0,-0.44618 -1.33853,0 0,-0.44617 -0.44618,0 0,-0.44618 -0.44618,0 0,-0.44618 -0.44618,0 0,-0.44618 -5.13106,0 0,-0.89236 -2.23089,0 0,-0.44618 -0.89236,0 0,-0.66926 -1.78471,0 0,-0.44618 -0.89236,0 0,-1.33854 -0.44618,0 0,-1.78471 -0.44618,0 0,-0.44618 -0.44618,0 0,-0.44618 -1.11544,0 0,-0.89236 -0.89236,0 0,-0.44618 -0.44618,0 0,-0.89236 -0.892355,0 0,0.89236 0.446177,0 0,0.44618 0.446178,0 0,0.89236 0.44618,0 0,0.44618 0.44618,0 0,0.89235 -1.338538,0 0,-0.44617 -0.892356,0 0,-0.89236 -0.446179,0 0,-0.44618 -0.446179,0 0,-0.89236 -0.446179,0 0,-0.44618 -0.446179,0 0,-0.44618 -0.892357,0 0,-0.89235 -0.446179,0 0,-1.11545 -0.446178,0 0,-0.44618 -0.446179,0 0,-0.89236 -0.446179,0 0,-0.44617 -0.669268,0 0,-1.33854 -0.446179,0 0,-0.44618 -1.338536,0 0,-0.44618 -0.446179,0 0,-0.44618 -0.446178,0 0,-0.892354 -0.892358,0 0,-0.892358 -0.446179,0 0,-0.446178 -0.446179,0 0,-1.115447 -0.446178,0 0,-0.892358 -0.446178,0 0,-4.461787 0.446178,0 0,-2.230893 0.446178,0 0,-3.346341 -0.446178,0 0,-0.446179 -0.446178,0 0,-0.446179 -0.892358,0 0,-0.446179 -0.446179,0 0,-0.446178 -0.892358,0 0,-0.446179 -0.669267,0 0,-0.892357 -0.446179,0 0,-0.446179 -0.446179,0 0,-0.446179 -0.446179,0 0,-1.561625 -0.446179,0 0,-1.338536 0.446179,0 0,-0.446179 -0.892357,0 0,-0.446179 -0.446179,0 0,-1.561626 -0.892357,0 0,-0.892357 -0.446179,0 0,-0.446179 -0.446179,0 0,-0.446178 -1.338536,0 0,-0.446179 -2.007804,0 0,-0.446179 -0.446179,0 0,-0.446178 -0.446179,0 0,-0.892358 0.446179,0 0,-0.892358 0.446179,0 0,-0.892356 0.446178,0 0,-0.446179 0.446179,0 0,-0.892358 0.446179,0 0,-1.115447 0.669268,0 0,-0.446178 0.446179,0 0,-0.892358 0.446178,0 0,-0.446179 0.446179,0 0,-0.892358 0.446179,0 0,-0.446178 0.446179,0 0,-0.446179 0.446179,0 0,-0.892357 0.446178,0 0,-0.446179 0.446179,0 0,-0.892357 0.446178,0 0,-0.446179 0.446179,0 0,-0.446179 0.446179,0 0,-0.446179 0.446179,0 0,-1.115446 0.446179,0 0,-0.446179 0.669267,0 0,-0.446179 0.446179,0 0,-0.446179 0.446179,0 0,-0.446179 0.446179,0 0,-0.446178 0.446179,0 0,-0.446178 0.446179,0 0,-0.446179 0.446178,0 0,-0.446179 0.446178,0 0,-0.446179 0.446179,0 0,-0.446179 2.230894,0 0,0.446179 0.892358,0 0,0.446179 0.892357,0 0,0.446179 0.669268,0 0,0.446179 0.446179,0 0,0.446178 0.446179,0 0,-0.892357 0.892357,0 0,0.446179 0.446179,0 0,0.446178 0.446178,0 0,1.338536 -0.446178,0 0,0.446179 2.230894,0 0,-0.446179 0.892356,0 0,0.446179 0.446178,0 0,0.892357 0.44618,0 0,-0.446178 0.44618,0 0,-0.446179 -0.44618,0 0,-1.338537 0.44618,0 0,-0.446178 2.0078,0 0,-0.446178 0.44618,0 0,0.446178 0.44618,0 0,0.892357 1.33854,0 0,0.446179 0.44618,0 0,0.446179 0.44617,0 0,0.446179 0.44618,0 0,-0.446179 1.78472,0 0,-1.338537 2.90016,0 0,0.892358 -0.44618,0 0,0.446179 1.33854,0 0,-0.446179 0.44618,0 0,-0.892358 -0.44618,0 0,-0.446178 -0.44618,0 0,-0.892357 -0.44618,0 0,-0.446179 -1.11545,0 0,0.446179 -0.89235,0 0,-0.446179 -0.89236,0 0,-1.338537 -0.44618,0 0,0.892358 -0.44618,0 0,0.446179 -2.23089,0 0,-0.446179 -1.33854,0 0,0.446179 -2.45398,0 0,0.446179 -2.230895,0 0,-0.446179 -0.446179,0 0,-0.446179 -1.338537,0 0,-0.446179 -0.446179,0 0,-1.338536 3.56943,0 0,-0.446178 -0.892358,0 0,-0.446179 -0.892356,0 0,0.446179 -1.784716,0 0,-0.446179 -0.892357,0 0,-1.561625 -0.446179,0 0,-0.892358 -0.446178,0 0,0.446179 -0.892358,0 0,-0.446179 0.446179,0 0,-0.446179 0.892357,0 0,-0.446179 0.446179,0 0,-0.446179 0.446179,0 0,-0.446178 0.446178,0 0,-0.446179 0.446179,0 0,0.446179 0.446179,0 0,-0.892358 0.446179,0 0,-0.446179 0.446179,0 0,0.446179 0.892356,0 0,1.338536 0.446178,0 0,-0.892357 1.33854,0 0,0.446179 2.0078,0 0,0.446178 0.44618,0 0,-0.446178 1.33854,0 0,0.446178 0.44618,0 0,2.677072 0.44617,0 0,1.115448 1.33854,0 0,0.446179 1.33854,0 0,1.338535 0.89235,0 0,-0.892357 1.11545,0 0,-0.892357 0.44618,0 0,-0.446179 0.44618,0 0,-1.115446 -0.44618,0 0,0.446177 -2.45398,0 0,-0.446177 -0.89236,0 0,-0.892358 -0.44618,0 0,-0.446179 -0.44618,0 0,-0.446179 -0.44618,0 0,-1.338536 1.33854,0 0,-1.784715 0.44618,0 0,-0.446178 2.90016,0 0,0.446178 0.44618,0 0,4.015609 2.23089,0 0,2.007804 0.44618,0 0,1.784715 0.44618,0 0,2.230894 1.33854,0 0,0.446179 0.44617,0 0,-0.446179 0.89236,0 0,1.784714 0.44618,0 0,0.446179 0.44618,0 0,-1.338536 0.44618,0 0,-0.446178 0.66927,0 0,-0.446179 -0.66927,0 0,-1.338537 2.45398,0 0,1.338537 0.89236,0 0,1.338535 -0.44618,0 0,0.446179 -0.44618,0 0,0.446179 0.89236,0 0,2.453983 -0.44618,0 0,0.446179 -0.44618,0 0,0.892357 -1.78471,0 0,0.446179 -1.11545,0 0,-0.446179 -1.33854,0 0,0.446179 0.89236,0 0,1.338536 -0.44618,0 0,0.446179 -0.44618,0 0,0.892357 -0.44618,0 0,2.230894 -2.23089,0 0,0.446178 -0.89236,0 0,1.115448 -0.44618,0 0,0.446179 -0.44617,0 0,0.446179 -0.44618,0 0,0.446177 -0.44618,0 0,1.338537 -0.44618,0 0,0.892358 0.44618,0 0,0.446178 0.44618,0 0,0.446179 0.44618,0 0,-0.446179 0.44617,0 0,0.892358 0.44618,0 0,0.446178 0.89236,0 0,0.892358 0.44618,0 0,1.561625 0.44618,0 0,0.446179 0.44618,0 0,0.446179 4.23869,0 0,0.446179 0.44618,0 0,1.338536 0.44618,0 0,1.561625 0.44618,0 0,0.446179 0.44618,0 0,0.892358 0.44618,0 0,0.446178 0.44618,0 0,-0.446178 0.44618,0 0,-0.892358 -0.44618,0 0,-3.34634 0.44618,0 0,-0.446179 0.44617,0 0,-0.446179 0.44618,0 0,-0.446179 0.44618,0 0,-0.669268 -0.44618,0 0,-1.784715 -0.44618,0 0,-2.677072 0.44618,0 0,-1.338537 -0.44618,0 0,-1.784714 0.44618,0 0,-2.453983 -0.89235,0 0,-0.446179 -0.89236,0 0,0.446179 -0.44618,0 0,0.446179 m 22.9782,59.787953 0,-0.44618 -0.44617,0 0,0.44618 0.44617,0 m -1.11544,0 0,0.44617 0.66927,0 0,-0.44617 -0.66927,0 m -11.37756,-41.271536 -0.44618,0 0,0.446179 0.44618,0 0,-0.446179 m 0.89236,-0.446179 -0.44618,0 0,0.446179 0.44618,0 0,-0.446179 m -1.78472,1.338537 0,-0.446179 -0.44618,0 0,0.446179 0.44618,0 m -12.93918,0.892356 -0.89236,0 0,-0.446178 -0.44618,0 0,-0.446178 -1.33853,0 0,0.446178 -0.44618,0 0,0.446178 -0.44618,0 0,0.446179 1.78471,0 0,-0.446179 0.44618,0 0,0.446179 1.33854,0 0,-0.446179 m 1.56162,1.561627 0,0.446178 0.89236,0 0,1.338536 0.44618,0 0,-1.338536 0.44618,0 0,-0.446178 -1.78472,0 m 4.46179,1.784714 0.44618,0 0,-0.446179 -0.89236,0 0,1.338537 0.44618,0 0,-0.892358 m 1.33854,0 0.44618,0 0,-0.446179 -0.44618,0 0,0.446179 m -2.67707,-1.338536 -0.44618,0 0,0.446178 0.44618,0 0,-0.446178 m 0.44617,2.677073 0.44618,0 0,-0.446179 -1.78471,0 0,0.446179 -0.44618,0 0,0.446178 1.78471,0 0,-0.446178 m -1.78471,-2.677073 0,0.446178 0.44618,0 0,-0.446178 -0.44618,0 m -3.34634,0.892357 -0.44618,0 0,0.446179 -0.44618,0 0,1.338537 -0.44618,0 0,0.446178 0.89236,0 0,-1.338536 0.44618,0 0,-0.892358 m -20.970401,13.60845 -0.446179,0 0,0.44618 0.446179,0 0,-0.44618"
       id="path4044"
       style="fill:url(#gradient23);fill-rule:evenodd;stroke:none"
       inkscape:connector-curvature="0" />
  </g>
  <g
     id="g5276"
     transform="matrix(5.3532745,0,0,5.3532745,-1054.8858,-211.18568)">
    <path
       d="m 222.17886,84.016454 q 3,1.05 7.7,1.4 4.3,0.4 7.85,0.05 3.7,-0.35 4.2,-1.2 1.25,-2.05 -0.1,-5.2 -1.25,-2.85 -3.65,-4.6 -5.55,-4.15 -13.55,-1.9 -3.6,1 -5,2.9 -1.45,1.95 -1.1,5.55 0.2,1.8 3.65,3"
       id="path6"
       style="fill:url(#gradient0-3);fill-rule:evenodd;stroke:none"
       inkscape:connector-curvature="0" />
    <path
       d="m 222.17886,84.016454 q -3.45,-1.2 -3.65,-3 -0.35,-3.6 1.1,-5.55 1.4,-1.9 5,-2.9 8,-2.25 13.55,1.9 2.4,1.75 3.65,4.6 1.35,3.15 0.1,5.2 -0.5,0.85 -4.2,1.2 -3.55,0.35 -7.85,-0.05 -4.7,-0.35 -7.7,-1.4 z"
       id="path8"
       inkscape:connector-curvature="0"
       style="fill:none;stroke:#006600;stroke-width:1;stroke-linecap:round;stroke-linejoin:round" />
    <path
       d="m 236.32886,73.516454 q -2.35,-1.4 -5.6,-1.4 l -3.25,-0.2 -1.45,0.2 q -0.95,5.6 2.35,12.45 4.2,-7.3 7.95,-11.05"
       id="path10"
       style="fill:url(#gradient1-8);fill-rule:evenodd;stroke:none"
       inkscape:connector-curvature="0" />
    <path
       d="m 236.32886,73.516454 q -3.75,3.75 -7.95,11.05 -3.3,-6.85 -2.35,-12.45 l 1.45,-0.2 3.25,0.2 q 3.25,0 5.6,1.4 z"
       id="path12"
       inkscape:connector-curvature="0"
       style="fill:none;stroke:#006600;stroke-width:1;stroke-linecap:round;stroke-linejoin:round" />
    <path
       d="m 230.32886,74.166454 q 3.4,0.45 6.25,-2.6 2.6,-2.8 3.5,-7.05 0.95,-4.4 -0.6,-7.7 -1.7,-3.75 -6.1,-4.5 -4.55,-0.8 -7.35,2.3 -2.55,2.7 -2.9,7.3 -0.35,4.5 1.5,8 2,3.8 5.7,4.25"
       id="path14"
       style="fill:url(#gradient2-0);fill-rule:evenodd;stroke:none"
       inkscape:connector-curvature="0" />
    <path
       d="m 230.32886,74.166454 q -3.7,-0.45 -5.7,-4.25 -1.85,-3.5 -1.5,-8 0.35,-4.6 2.9,-7.3 2.8,-3.1 7.35,-2.3 4.4,0.75 6.1,4.5 1.55,3.3 0.6,7.7 -0.9,4.25 -3.5,7.05 -2.85,3.05 -6.25,2.6 z"
       id="path16"
       inkscape:connector-curvature="0"
       style="fill:none;stroke:#996600;stroke-width:1;stroke-linecap:round;stroke-linejoin:round" />
    <path
       d="m 239.97886,60.816454 q -2.3,-5.1 -8.25,-2.85 -5.1,1.95 -7.45,-0.4 4.05,5.2 8.25,2.8 3.25,-1.85 7.45,0.45"
       id="path18"
       style="fill:url(#gradient3-0);fill-rule:evenodd;stroke:none"
       inkscape:connector-curvature="0" />
    <path
       d="m 240.47886,61.916454 q -0.05,-8.55 -7.5,-9.75 -6.1,-0.9 -8.9,5.65 1.1,1.35 3.75,1.85 1.4,0.3 2.6,-0.25 1.85,-0.85 3.95,-1.15 2.9,-0.4 4.7,1.3 1.35,1.2 1.4,2.35"
       id="path20"
       style="fill:url(#gradient4-6);fill-rule:evenodd;stroke:none"
       inkscape:connector-curvature="0" />
    <path
       d="m 240.47886,61.916454 q -0.05,-1.15 -1.4,-2.35 -1.8,-1.7 -4.7,-1.3 -2.1,0.3 -3.95,1.15 -1.2,0.55 -2.6,0.25 -2.65,-0.5 -3.75,-1.85 2.8,-6.55 8.9,-5.65 7.45,1.2 7.5,9.75 z"
       id="path22"
       inkscape:connector-curvature="0"
       style="fill:none;stroke:#996600;stroke-width:1;stroke-linecap:round;stroke-linejoin:round" />
    <path
       d="m 228.77886,59.316454 2.5,-1.05 q 1.65,-0.8 3.55,-0.8 4.25,0 5.15,3.75 0.5,-3.3 -2.8,-4.7 -3.6,-1.55 -6.15,-0.4 l -1.75,1.05 q -0.95,0.65 -1.45,0.75 -1.4,0.35 -2.1,0 l -0.4,-0.3 -0.3,-0.15 q 0,-0.75 -0.4,-0.1 -0.4,0.7 -0.05,1 0.6,0.5 1.9,0.8 l 2.3,0.15"
       id="path24"
       style="fill:url(#gradient5-1);fill-rule:evenodd;stroke:none"
       inkscape:connector-curvature="0" />
  </g>
</svg>
