<?xml version="1.0" encoding="UTF-8" standalone="no"?>
<!-- Created with Inkscape (http://www.inkscape.org/) -->

<svg
   xmlns:dc="http://purl.org/dc/elements/1.1/"
   xmlns:cc="http://creativecommons.org/ns#"
   xmlns:rdf="http://www.w3.org/1999/02/22-rdf-syntax-ns#"
   xmlns:svg="http://www.w3.org/2000/svg"
   xmlns="http://www.w3.org/2000/svg"
   xmlns:sodipodi="http://sodipodi.sourceforge.net/DTD/sodipodi-0.dtd"
   xmlns:inkscape="http://www.inkscape.org/namespaces/inkscape"
   id="svg4199"
   version="1.1"
   inkscape:version="0.91 r13725"
   width="256"
   height="256"
   viewBox="0 0 256 256"
   sodipodi:docname="User Computer.svg">
  <metadata
     id="metadata4205">
    <rdf:RDF>
      <cc:Work
         rdf:about="">
        <dc:format>image/svg+xml</dc:format>
        <dc:type
           rdf:resource="http://purl.org/dc/dcmitype/StillImage" />
        <dc:title></dc:title>
      </cc:Work>
    </rdf:RDF>
  </metadata>
  <defs
     id="defs4203">
    <linearGradient
       gradientTransform="matrix(0,0.0116,0.0204,0,126.78403,119.48243)"
       gradientUnits="userSpaceOnUse"
       id="gradient5"
       spreadMethod="pad"
       x1="-819.20001"
       x2="819.20001">
      <stop
         offset="0.0"
         stop-color="#9999cc"
         id="stop74" />
      <stop
         offset="1.0"
         stop-color="#666699"
         id="stop76" />
    </linearGradient>
    <radialGradient
       cx="0"
       cy="0"
       gradientTransform="matrix(0.0311,0,0,0.0311,117.68403,116.98243)"
       gradientUnits="userSpaceOnUse"
       id="gradient6"
       r="819.20001"
       spreadMethod="pad">
      <stop
         offset="0.0"
         stop-color="#ffffff"
         id="stop79" />
      <stop
         offset="0.2823529411764706"
         stop-color="#dddddd"
         id="stop81" />
      <stop
         offset="1.0"
         stop-color="#9999cc"
         id="stop83" />
    </radialGradient>
    <linearGradient
       gradientTransform="matrix(-0.0059,-0.0057,-0.007,0.0072,131.88403,116.98243)"
       gradientUnits="userSpaceOnUse"
       id="gradient7"
       spreadMethod="pad"
       x1="-819.20001"
       x2="819.20001">
      <stop
         offset="0.0"
         stop-color="#666699"
         id="stop86" />
      <stop
         offset="1.0"
         stop-color="#9999cc"
         id="stop88" />
    </linearGradient>
    <linearGradient
       gradientTransform="matrix(-0.0027,0.0108,0.0081,0.002,131.18403,115.08243)"
       gradientUnits="userSpaceOnUse"
       id="gradient8"
       spreadMethod="pad"
       x1="-819.20001"
       x2="819.20001">
      <stop
         offset="0.0"
         stop-color="#333399"
         id="stop91" />
      <stop
         offset="0.27450980392156865"
         stop-color="#6666cc"
         id="stop93" />
      <stop
         offset="1.0"
         stop-color="#999999"
         id="stop95" />
    </linearGradient>
    <linearGradient
       gradientTransform="matrix(-0.0177,-0.0171,-0.0191,0.0197,128.83403,96.282428)"
       gradientUnits="userSpaceOnUse"
       id="gradient9"
       spreadMethod="pad"
       x1="-819.20001"
       x2="819.20001">
      <stop
         offset="0.0"
         stop-color="#6666cc"
         id="stop98" />
      <stop
         offset="1.0"
         stop-color="#999999"
         id="stop100" />
    </linearGradient>
    <radialGradient
       cx="0"
       cy="0"
       gradientTransform="matrix(0.0404,0,0,0.0404,128.58403,80.532428)"
       gradientUnits="userSpaceOnUse"
       id="gradient10"
       r="819.20001"
       spreadMethod="pad">
      <stop
         offset="0.0"
         stop-color="#ccffff"
         id="stop103" />
      <stop
         offset="0.09411764705882353"
         stop-color="#ccffff"
         id="stop105" />
      <stop
         offset="1.0"
         stop-color="#0099ff"
         id="stop107" />
    </radialGradient>
    <linearGradient
       gradientTransform="matrix(-0.0121,-0.0117,-0.0182,0.0189,131.08403,97.332428)"
       gradientUnits="userSpaceOnUse"
       id="gradient11"
       spreadMethod="pad"
       x1="-819.20001"
       x2="819.20001">
      <stop
         offset="0.0"
         stop-color="#9999cc"
         id="stop110" />
      <stop
         offset="1.0"
         stop-color="#ffffff"
         id="stop112" />
    </linearGradient>
    <linearGradient
       gradientTransform="matrix(-0.0141,0.0075,9e-4,0.0018,131.03403,107.63243)"
       gradientUnits="userSpaceOnUse"
       id="gradient12"
       spreadMethod="pad"
       x1="-819.20001"
       x2="819.20001">
      <stop
         offset="0.0"
         stop-color="#6666cc"
         id="stop115" />
      <stop
         offset="0.0784313725490196"
         stop-color="#9999cc"
         id="stop117" />
      <stop
         offset="1.0"
         stop-color="#ffffff"
         id="stop119" />
    </linearGradient>
    <linearGradient
       gradientTransform="matrix(-0.0021,0.006,0.0051,0.0017,128.73403,117.58243)"
       gradientUnits="userSpaceOnUse"
       id="gradient13"
       spreadMethod="pad"
       x1="-819.20001"
       x2="819.20001">
      <stop
         offset="0.0"
         stop-color="#9999cc"
         id="stop122" />
      <stop
         offset="1.0"
         stop-color="#eeeeee"
         id="stop124" />
    </linearGradient>
    <radialGradient
       cx="0"
       cy="0"
       gradientTransform="matrix(0.0208,0,0,0.0208,14.255824,22.4)"
       gradientUnits="userSpaceOnUse"
       id="gradient6-1"
       r="819.20001"
       spreadMethod="pad">
      <stop
         offset="0.0"
         stop-color="#99ccff"
         id="stop99" />
      <stop
         offset="0.6235294117647059"
         stop-color="#5465fd"
         id="stop101" />
      <stop
         offset="1.0"
         stop-color="#0236b0"
         id="stop103-6" />
    </radialGradient>
    <linearGradient
       gradientTransform="matrix(7e-4,0.0076,0.0063,-5e-4,14.105824,26.85)"
       gradientUnits="userSpaceOnUse"
       id="gradient7-5"
       spreadMethod="pad"
       x1="-819.20001"
       x2="819.20001">
      <stop
         offset="0.0"
         stop-color="#5465fd"
         id="stop106" />
      <stop
         offset="0.30980392156862746"
         stop-color="#99ccff"
         id="stop108" />
      <stop
         offset="1.0"
         stop-color="#ccffff"
         id="stop110-8" />
    </linearGradient>
    <radialGradient
       cx="0"
       cy="0"
       gradientTransform="matrix(0.0274,0,0,0.0274,14.155824,2.75)"
       gradientUnits="userSpaceOnUse"
       id="gradient8-9"
       r="819.20001"
       spreadMethod="pad">
      <stop
         offset="0.0"
         stop-color="#ffcc66"
         id="stop113" />
      <stop
         offset="0.34509803921568627"
         stop-color="#ff9933"
         id="stop115-2" />
      <stop
         offset="1.0"
         stop-color="#660000"
         id="stop117-9" />
    </radialGradient>
    <linearGradient
       gradientTransform="matrix(4e-4,0.002,0.0096,-0.0019,14.005824,7.75)"
       gradientUnits="userSpaceOnUse"
       id="gradient9-7"
       spreadMethod="pad"
       x1="-819.20001"
       x2="819.20001">
      <stop
         offset="0.0"
         stop-color="#990000"
         id="stop120" />
      <stop
         offset="0.9254901960784314"
         stop-color="#ff9933"
         id="stop122-2" />
      <stop
         offset="1.0"
         stop-color="#ff9933"
         id="stop124-7" />
    </linearGradient>
    <linearGradient
       gradientTransform="matrix(0,0.0139,0.0111,0,12.905824,12)"
       gradientUnits="userSpaceOnUse"
       id="gradient10-2"
       spreadMethod="pad"
       x1="-819.20001"
       x2="819.20001">
      <stop
         offset="0.0"
         stop-color="#996600"
         id="stop127" />
      <stop
         offset="1.0"
         stop-color="#660000"
         id="stop129" />
    </linearGradient>
    <radialGradient
       cx="0"
       cy="0"
       gradientTransform="matrix(0.0264,0,0,0.0264,10.905824,2.05)"
       gradientUnits="userSpaceOnUse"
       id="gradient11-8"
       r="819.20001"
       spreadMethod="pad">
      <stop
         offset="0.0"
         stop-color="#999999"
         id="stop132" />
      <stop
         offset="0.1803921568627451"
         stop-color="#666666"
         id="stop134" />
      <stop
         offset="0.8784313725490196"
         stop-color="#000000"
         id="stop136" />
      <stop
         offset="1.0"
         stop-color="#000000"
         id="stop138" />
    </radialGradient>
    <linearGradient
       gradientTransform="matrix(-0.0082,0.0011,2e-4,0.0016,12.355824,4.8)"
       gradientUnits="userSpaceOnUse"
       id="gradient12-9"
       spreadMethod="pad"
       x1="-819.20001"
       x2="819.20001">
      <stop
         offset="0.0"
         stop-color="#333333"
         id="stop141" />
      <stop
         offset="0.40784313725490196"
         stop-color="#bdbdbd"
         id="stop143" />
      <stop
         offset="0.5843137254901961"
         stop-color="#999999"
         id="stop145" />
      <stop
         offset="1.0"
         stop-color="#333333"
         id="stop147" />
    </linearGradient>
  </defs>
  <sodipodi:namedview
     pagecolor="#ffffff"
     bordercolor="#666666"
     borderopacity="1"
     objecttolerance="10"
     gridtolerance="10"
     guidetolerance="10"
     inkscape:pageopacity="0"
     inkscape:pageshadow="2"
     inkscape:window-width="1920"
     inkscape:window-height="1033"
     id="namedview4201"
     showgrid="false"
     inkscape:zoom="2.8284271"
     inkscape:cx="218.11261"
     inkscape:cy="119.37249"
     inkscape:window-x="-4"
     inkscape:window-y="-4"
     inkscape:window-maximized="1"
     inkscape:current-layer="svg4199" />
  <g
     id="g4895"
     transform="matrix(4.0410548,0,0,3.7604148,-436.01382,-277.40095)">
    <path
       d="m 110.13403,119.43243 q 0,3.95 4.9,6.75 4.85,2.8 11.8,2.8 6.9,0 11.8,-2.8 4.85,-2.8 4.85,-6.75 0,-3.95 -4.85,-6.7 -4.9,-2.8 -11.8,-2.8 -6.95,0 -11.8,2.8 -4.9,2.75 -4.9,6.7"
       id="path28"
       style="fill:url(#gradient5);fill-rule:evenodd;stroke:none"
       inkscape:connector-curvature="0" />
    <path
       d="m 111.23403,119.28243 q 0,3.65 4.5,6.2 4.55,2.6 10.95,2.6 6.4,0 10.95,-2.6 4.55,-2.55 4.55,-6.2 0,-3.6 -4.55,-6.2 -4.55,-2.55 -10.95,-2.55 -6.4,0 -10.95,2.55 -4.5,2.6 -4.5,6.2"
       id="path30"
       style="fill:url(#gradient6);fill-rule:evenodd;stroke:none"
       inkscape:connector-curvature="0" />
    <path
       d="m 135.58403,106.58243 0.9,5.25 -0.25,-5.5 -0.65,0.25 -0.35,-2 q -1.4,-0.7 -1.9,-0.45 l -7.95,5.35 q -1.1,0.45 -1,0.75 1.65,3.25 2.65,6.45 l 1.75,7.1 2.45,1.5 q 4.75,-1.45 6.25,-3.05 0.15,-2.85 -0.75,-8.7 l -0.25,-1.7 0,6 q -2.25,2.05 -6,2.95 l 0.7,3.5 -1.65,-4.3 q -0.7,-3.8 -1.8,-6.5 l -1.5,-3.3 9.35,-3.6"
       id="path32"
       style="fill:url(#gradient7);fill-rule:evenodd;stroke:none"
       inkscape:connector-curvature="0" />
    <path
       d="m 136.48403,106.38243 -10.5,4.1 q 3.15,5.8 4.35,12.55 l 1,0.9 q 4.5,-1.6 6.15,-3.1 0,-8.15 -1,-14.45"
       id="path34"
       style="fill:url(#gradient8);fill-rule:evenodd;stroke:none"
       inkscape:connector-curvature="0" />
    <path
       d="m 118.18403,114.83243 25.1,-10.8 q 1.1,-0.5 0.95,-1.95 l -2.9,-25.500002 q -0.3,-2 -1.8,-1.55 l -28.05,4.95 q -2.45,0.5 -1.75,2.65 0.45,1.25 6.85,31.800002 0.45,0.8 1.6,0.4"
       id="path36"
       style="fill:url(#gradient9);fill-rule:evenodd;stroke:none"
       inkscape:connector-curvature="0" />
    <path
       d="m 118.78403,112.08243 23.85,-9.55 -3,-23.000002 -25.45,5.3 4.6,27.250002"
       id="path38"
       style="fill:url(#gradient10);fill-rule:evenodd;stroke:none"
       inkscape:connector-curvature="0" />
    <path
       d="m 117.78403,113.58243 -5.65,-30.650002 q 0.3,-1 0.7,-1.15 l 26.55,-4.9 q 0.8,-1.2 -0.55,-0.9 l -27,5 q -0.9,0.3 -1,1.65 l 6.25,31.450002 q 0.05,0.4 0.5,0.25 0.4,-0.1 0.2,-0.75"
       id="path40"
       style="fill:url(#gradient11);fill-rule:evenodd;stroke:none"
       inkscape:connector-curvature="0" />
    <path
       d="m 118.78403,112.08243 q 0,0.65 0.65,0.4 l 23.95,-9.8 -0.75,-0.2 -23.85,9.6"
       id="path42"
       style="fill:url(#gradient12);fill-rule:evenodd;stroke:none"
       inkscape:connector-curvature="0" />
    <path
       d="m 128.43403,117.03243 1.35,5.9 1.45,0.9 q -0.45,-5.4 -2.2,-11.35 -1.35,-0.65 -2.75,-1.25 1.65,3.9 2.15,5.8"
       id="path44"
       style="fill:url(#gradient13);fill-rule:evenodd;stroke:none"
       inkscape:connector-curvature="0" />
  </g>
  <g
     id="g4749"
     transform="matrix(-5.9920289,0,0,5.9920289,242.58486,35.730898)">
    <path
       d="m 6.2058237,34.4 q 3.55,0.3 7.8500003,-0.05 11,-0.95 11.35,-4.45 0.35,-3.55 -1.1,-5.5 -1.4,-1.9 -5,-2.9 -7.95,-2.25 -13.5500003,1.85 -2.4,1.75 -3.65,4.65 -1.34999997,3.15 -0.1,5.2 0.5,0.85 4.2,1.2"
       id="path26"
       style="fill:url(#gradient6-1);fill-rule:evenodd;stroke:none"
       inkscape:connector-curvature="0" />
    <path
       d="m 6.2058237,34.4 q 3.55,0.3 7.8500003,-0.05 11,-0.95 11.35,-4.45 0.35,-3.55 -1.1,-5.5 -1.4,-1.9 -5,-2.9 -7.95,-2.25 -13.5500003,1.85 -2.4,1.75 -3.65,4.65 -1.34999997,3.15 -0.1,5.2 0.5,0.85 4.2,1.2 z"
       id="path28-3"
       inkscape:connector-curvature="0"
       style="fill:none;stroke:#0236b0;stroke-width:1;stroke-linecap:round;stroke-linejoin:round" />
    <path
       d="m 14.255824,21.25 q -3.25,0 -5.6000003,1.4 3.7500003,3.75 8.0500003,10.8 3.2,-6.6 2.25,-12.2 l -1.45,-0.2 -3.25,0.2"
       id="path30-6"
       style="fill:url(#gradient7-5);fill-rule:evenodd;stroke:none"
       inkscape:connector-curvature="0" />
    <path
       d="m 14.255824,21.25 q -3.25,0 -5.6000003,1.4 3.7500003,3.75 8.0500003,10.8 3.2,-6.6 2.25,-12.2 l -1.45,-0.2 -3.25,0.2 z"
       id="path32-5"
       inkscape:connector-curvature="0"
       style="fill:none;stroke:#0236b0;stroke-width:1;stroke-linecap:round;stroke-linejoin:round" />
    <path
       d="m 11.305824,1.3 q -4.4000003,0.75 -6.1500003,4.45 -1.55,3.25 -0.65,7.55 0.9,4.2 3.5,6.95 2.8000003,3 6.2000003,2.6 3.7,-0.45 5.7,-4.25 1.9,-3.45 1.55,-7.85 -0.35,-4.55 -2.8,-7.2 -2.85,-3.05 -7.35,-2.25"
       id="path34-1"
       style="fill:url(#gradient8-9);fill-rule:evenodd;stroke:none"
       inkscape:connector-curvature="0" />
    <path
       d="m 11.305824,1.3 q -4.4000003,0.75 -6.1500003,4.45 -1.55,3.25 -0.65,7.55 0.9,4.2 3.5,6.95 2.8000003,3 6.2000003,2.6 3.7,-0.45 5.7,-4.25 1.9,-3.45 1.55,-7.85 -0.35,-4.55 -2.8,-7.2 -2.85,-3.05 -7.35,-2.25 z"
       id="path36-7"
       inkscape:connector-curvature="0"
       style="fill:none;stroke:#996600;stroke-width:1;stroke-linecap:round;stroke-linejoin:round" />
    <path
       d="m 21.555824,8.4 q -1.15,-4.45 -8.25,-1.55 -5.1000003,2.1 -8.2000003,1.45 5.8000003,2.2 9.9500003,0.25 3.1,-1.5 6.5,-0.15"
       id="path38-0"
       style="fill:url(#gradient9-7);fill-rule:evenodd;stroke:none"
       inkscape:connector-curvature="0" />
    <path
       d="m 21.955824,10.7 q -0.35,-4.7 -2.95,-7.5 -2.95,-3.25 -7.75,-2.4 -4.6000003,0.8 -6.4500003,4.65 -1.65,3.4 -0.7,7.9 0.9,4.4 3.65,7.25 2.9500003,3.1 6.5500003,2.65 3.95,-0.45 6.1,-4.45 1.9,-3.55 1.55,-8.1 m -0.9,0.05 q 0.3,4.3 -1.45,7.6 -1.95,3.55 -5.4,4 -3.2,0.4 -5.8500003,-2.45 -2.5,-2.7 -3.35,-6.7 -0.85,-4.15 0.6,-7.25 1.65,-3.55 5.8000003,-4.25 4.3,-0.7 6.95,2.1 2.4,2.55 2.7,6.95"
       id="path40-9"
       style="fill:url(#gradient10-2);fill-rule:evenodd;stroke:none"
       inkscape:connector-curvature="0" />
    <path
       d="m 20.955824,7.7 q -0.7,-7.2 -9.35,-7.2 -3.7000003,0 -6.8000003,2.9 -2.9,2.75 -3.89999997,6.6 -1.05,4.05 0.59999997,7 1.85,3.35 6.6,4.05 2.1000003,0.1 2.6500003,-0.9 -4.4500003,-0.85 -3.8500003,-6.55 0.2,-2.1 1.05,-3.9 0.85,-1.75 1.65,-1.85 1.9500003,-0.2 4.1000003,-1.2 1.85,-0.9 3.35,-0.85 3,0.05 3.9,1.9"
       id="path42-9"
       style="fill:url(#gradient11-8);fill-rule:evenodd;stroke:none"
       inkscape:connector-curvature="0" />
    <path
       d="m 20.955824,7.7 q -0.7,-7.2 -9.35,-7.2 -3.7000003,0 -6.8000003,2.9 -2.9,2.75 -3.89999997,6.6 -1.05,4.05 0.59999997,7 1.85,3.35 6.6,4.05 2.1000003,0.1 2.6500003,-0.9 -4.4500003,-0.85 -3.8500003,-6.55 0.2,-2.1 1.05,-3.9 0.85,-1.75 1.65,-1.85 1.9500003,-0.2 4.1000003,-1.2 1.85,-0.9 3.35,-0.85 3,0.05 3.9,1.9 z"
       id="path44-4"
       inkscape:connector-curvature="0"
       style="fill:none;stroke:#000000;stroke-width:1;stroke-linecap:round;stroke-linejoin:round" />
    <path
       d="m 14.105824,4.95 q 1.25,-0.7 3.35,-0.3 l 1.55,0.25 q -0.95,-1.8 -3,-1.95 -1.7,-0.1 -3.5,0.9 -1.15,0.65 -3.3500003,1.35 l -3.15,0.8 q -0.85,0.1 -0.3,0.3 l 1.8,0.2 Q 11.255824,6.6 14.105824,4.95"
       id="path46"
       style="fill:url(#gradient12-9);fill-rule:evenodd;stroke:none"
       inkscape:connector-curvature="0" />
  </g>
</svg>
