<?xml version="1.0" encoding="UTF-8" standalone="no"?>
<svg
   xmlns:dc="http://purl.org/dc/elements/1.1/"
   xmlns:cc="http://creativecommons.org/ns#"
   xmlns:rdf="http://www.w3.org/1999/02/22-rdf-syntax-ns#"
   xmlns:svg="http://www.w3.org/2000/svg"
   xmlns="http://www.w3.org/2000/svg"
   xmlns:sodipodi="http://sodipodi.sourceforge.net/DTD/sodipodi-0.dtd"
   xmlns:inkscape="http://www.inkscape.org/namespaces/inkscape"
   height="35.038498"
   width="25.973763"
   id="svg2"
   version="1.1"
   inkscape:version="0.91 r13725"
   sodipodi:docname="User 2.svg">
  <metadata
     id="metadata151">
    <rdf:RDF>
      <cc:Work
         rdf:about="">
        <dc:format>image/svg+xml</dc:format>
        <dc:type
           rdf:resource="http://purl.org/dc/dcmitype/StillImage" />
        <dc:title></dc:title>
      </cc:Work>
    </rdf:RDF>
  </metadata>
  <sodipodi:namedview
     pagecolor="#ffffff"
     bordercolor="#666666"
     borderopacity="1"
     objecttolerance="10"
     gridtolerance="10"
     guidetolerance="10"
     inkscape:pageopacity="0"
     inkscape:pageshadow="2"
     inkscape:window-width="1920"
     inkscape:window-height="1033"
     id="namedview149"
     showgrid="false"
     fit-margin-top="0"
     fit-margin-left="0"
     fit-margin-right="0"
     fit-margin-bottom="0"
     inkscape:zoom="6.3697707"
     inkscape:cx="22.630824"
     inkscape:cy="18.5135"
     inkscape:window-x="-4"
     inkscape:window-y="-4"
     inkscape:window-maximized="1"
     inkscape:current-layer="svg2" />
  <path
     inkscape:connector-curvature="0"
     style="fill:url(#gradient6);fill-rule:evenodd;stroke:none"
     id="path26"
     d="m 6.2058237,34.4 q 3.55,0.3 7.8500003,-0.05 11,-0.95 11.35,-4.45 0.35,-3.55 -1.1,-5.5 -1.4,-1.9 -5,-2.9 -7.95,-2.25 -13.5500003,1.85 -2.4,1.75 -3.65,4.65 -1.34999997,3.15 -0.1,5.2 0.5,0.85 4.2,1.2" />
  <path
     style="fill:none;stroke:#0236b0;stroke-width:1;stroke-linecap:round;stroke-linejoin:round"
     inkscape:connector-curvature="0"
     id="path28"
     d="m 6.2058237,34.4 q 3.55,0.3 7.8500003,-0.05 11,-0.95 11.35,-4.45 0.35,-3.55 -1.1,-5.5 -1.4,-1.9 -5,-2.9 -7.95,-2.25 -13.5500003,1.85 -2.4,1.75 -3.65,4.65 -1.34999997,3.15 -0.1,5.2 0.5,0.85 4.2,1.2 z" />
  <path
     inkscape:connector-curvature="0"
     style="fill:url(#gradient7);fill-rule:evenodd;stroke:none"
     id="path30"
     d="m 14.255824,21.25 q -3.25,0 -5.6000003,1.4 3.7500003,3.75 8.0500003,10.8 3.2,-6.6 2.25,-12.2 l -1.45,-0.2 -3.25,0.2" />
  <path
     style="fill:none;stroke:#0236b0;stroke-width:1;stroke-linecap:round;stroke-linejoin:round"
     inkscape:connector-curvature="0"
     id="path32"
     d="m 14.255824,21.25 q -3.25,0 -5.6000003,1.4 3.7500003,3.75 8.0500003,10.8 3.2,-6.6 2.25,-12.2 l -1.45,-0.2 -3.25,0.2 z" />
  <path
     inkscape:connector-curvature="0"
     style="fill:url(#gradient8);fill-rule:evenodd;stroke:none"
     id="path34"
     d="m 11.305824,1.3 q -4.4000003,0.75 -6.1500003,4.45 -1.55,3.25 -0.65,7.55 0.9,4.2 3.5,6.95 2.8000003,3 6.2000003,2.6 3.7,-0.45 5.7,-4.25 1.9,-3.45 1.55,-7.85 -0.35,-4.55 -2.8,-7.2 -2.85,-3.05 -7.35,-2.25" />
  <path
     style="fill:none;stroke:#996600;stroke-width:1;stroke-linecap:round;stroke-linejoin:round"
     inkscape:connector-curvature="0"
     id="path36"
     d="m 11.305824,1.3 q -4.4000003,0.75 -6.1500003,4.45 -1.55,3.25 -0.65,7.55 0.9,4.2 3.5,6.95 2.8000003,3 6.2000003,2.6 3.7,-0.45 5.7,-4.25 1.9,-3.45 1.55,-7.85 -0.35,-4.55 -2.8,-7.2 -2.85,-3.05 -7.35,-2.25 z" />
  <path
     inkscape:connector-curvature="0"
     style="fill:url(#gradient9);fill-rule:evenodd;stroke:none"
     id="path38"
     d="m 21.555824,8.4 q -1.15,-4.45 -8.25,-1.55 -5.1000003,2.1 -8.2000003,1.45 5.8000003,2.2 9.9500003,0.25 3.1,-1.5 6.5,-0.15" />
  <path
     inkscape:connector-curvature="0"
     style="fill:url(#gradient10);fill-rule:evenodd;stroke:none"
     id="path40"
     d="m 21.955824,10.7 q -0.35,-4.7 -2.95,-7.5 -2.95,-3.25 -7.75,-2.4 -4.6000003,0.8 -6.4500003,4.65 -1.65,3.4 -0.7,7.9 0.9,4.4 3.65,7.25 2.9500003,3.1 6.5500003,2.65 3.95,-0.45 6.1,-4.45 1.9,-3.55 1.55,-8.1 m -0.9,0.05 q 0.3,4.3 -1.45,7.6 -1.95,3.55 -5.4,4 -3.2,0.4 -5.8500003,-2.45 -2.5,-2.7 -3.35,-6.7 -0.85,-4.15 0.6,-7.25 1.65,-3.55 5.8000003,-4.25 4.3,-0.7 6.95,2.1 2.4,2.55 2.7,6.95" />
  <path
     inkscape:connector-curvature="0"
     style="fill:url(#gradient11);fill-rule:evenodd;stroke:none"
     id="path42"
     d="m 20.955824,7.7 q -0.7,-7.2 -9.35,-7.2 -3.7000003,0 -6.8000003,2.9 -2.9,2.75 -3.89999997,6.6 -1.05,4.05 0.59999997,7 1.85,3.35 6.6,4.05 2.1000003,0.1 2.6500003,-0.9 -4.4500003,-0.85 -3.8500003,-6.55 0.2,-2.1 1.05,-3.9 0.85,-1.75 1.65,-1.85 1.9500003,-0.2 4.1000003,-1.2 1.85,-0.9 3.35,-0.85 3,0.05 3.9,1.9" />
  <path
     style="fill:none;stroke:#000000;stroke-width:1;stroke-linecap:round;stroke-linejoin:round"
     inkscape:connector-curvature="0"
     id="path44"
     d="m 20.955824,7.7 q -0.7,-7.2 -9.35,-7.2 -3.7000003,0 -6.8000003,2.9 -2.9,2.75 -3.89999997,6.6 -1.05,4.05 0.59999997,7 1.85,3.35 6.6,4.05 2.1000003,0.1 2.6500003,-0.9 -4.4500003,-0.85 -3.8500003,-6.55 0.2,-2.1 1.05,-3.9 0.85,-1.75 1.65,-1.85 1.9500003,-0.2 4.1000003,-1.2 1.85,-0.9 3.35,-0.85 3,0.05 3.9,1.9 z" />
  <path
     inkscape:connector-curvature="0"
     style="fill:url(#gradient12);fill-rule:evenodd;stroke:none"
     id="path46"
     d="m 14.105824,4.95 q 1.25,-0.7 3.35,-0.3 l 1.55,0.25 q -0.95,-1.8 -3,-1.95 -1.7,-0.1 -3.5,0.9 -1.15,0.65 -3.3500003,1.35 l -3.15,0.8 q -0.85,0.1 -0.3,0.3 l 1.8,0.2 Q 11.255824,6.6 14.105824,4.95" />
  <defs
     id="defs48">
    <radialGradient
       cx="0"
       cy="0"
       gradientTransform="matrix(0.0208,0,0,0.0208,31.9,21.95)"
       gradientUnits="userSpaceOnUse"
       id="gradient0"
       r="819.20001"
       spreadMethod="pad">
      <stop
         offset="0.0"
         stop-color="#ccffcc"
         id="stop51" />
      <stop
         offset="1.0"
         stop-color="#009900"
         id="stop53" />
    </radialGradient>
    <linearGradient
       gradientTransform="matrix(-7e-4,0.0077,0.0063,5e-4,33.5,27.1)"
       gradientUnits="userSpaceOnUse"
       id="gradient1"
       spreadMethod="pad"
       x1="-819.20001"
       x2="819.20001">
      <stop
         offset="0.0"
         stop-color="#99ccff"
         id="stop56" />
      <stop
         offset="0.09411764705882353"
         stop-color="#99ccff"
         id="stop58" />
      <stop
         offset="0.396078431372549"
         stop-color="#ffffff"
         id="stop60" />
      <stop
         offset="1.0"
         stop-color="#ccffff"
         id="stop62" />
    </linearGradient>
    <radialGradient
       cx="0"
       cy="0"
       gradientTransform="matrix(0.0277,0,0,0.0277,32.65,2.25)"
       gradientUnits="userSpaceOnUse"
       id="gradient2"
       r="819.20001"
       spreadMethod="pad">
      <stop
         offset="0.0"
         stop-color="#ffff99"
         id="stop65" />
      <stop
         offset="0.24313725490196078"
         stop-color="#ffcc66"
         id="stop67" />
      <stop
         offset="0.7137254901960784"
         stop-color="#ff9933"
         id="stop69" />
      <stop
         offset="1.0"
         stop-color="#996600"
         id="stop71" />
    </radialGradient>
    <linearGradient
       gradientTransform="matrix(0,0.0022,0.0096,0,34.35,7.65)"
       gradientUnits="userSpaceOnUse"
       id="gradient3"
       spreadMethod="pad"
       x1="-819.20001"
       x2="819.20001">
      <stop
         offset="0.0"
         stop-color="#ff9933"
         id="stop74" />
      <stop
         offset="0.48627450980392156"
         stop-color="#ff9933"
         id="stop76" />
      <stop
         offset="1.0"
         stop-color="#ffcc66"
         id="stop78" />
    </linearGradient>
    <radialGradient
       cx="0"
       cy="0"
       gradientTransform="matrix(0.016,0,0,0.016,33.25,1.3)"
       gradientUnits="userSpaceOnUse"
       id="gradient4"
       r="819.20001"
       spreadMethod="pad">
      <stop
         offset="0.0"
         stop-color="#f0ddbd"
         id="stop81" />
      <stop
         offset="0.3803921568627451"
         stop-color="#d8a650"
         id="stop83" />
      <stop
         offset="0.8196078431372549"
         stop-color="#996600"
         id="stop85" />
      <stop
         offset="1.0"
         stop-color="#926821"
         id="stop87" />
    </radialGradient>
    <linearGradient
       gradientTransform="matrix(-0.0075,0.0035,0.0026,0.0056,34.65,6.05)"
       gradientUnits="userSpaceOnUse"
       id="gradient5"
       spreadMethod="pad"
       x1="-819.20001"
       x2="819.20001">
      <stop
         offset="0.0"
         stop-color="#996600"
         id="stop90" />
      <stop
         offset="0.3411764705882353"
         stop-color="#f0ddbd"
         id="stop92" />
      <stop
         offset="0.6784313725490196"
         stop-color="#d8a650"
         id="stop94" />
      <stop
         offset="1.0"
         stop-color="#996600"
         id="stop96" />
    </linearGradient>
    <radialGradient
       cx="0"
       cy="0"
       gradientTransform="matrix(0.0208,0,0,0.0208,14.255824,22.4)"
       gradientUnits="userSpaceOnUse"
       id="gradient6"
       r="819.20001"
       spreadMethod="pad">
      <stop
         offset="0.0"
         stop-color="#99ccff"
         id="stop99" />
      <stop
         offset="0.6235294117647059"
         stop-color="#5465fd"
         id="stop101" />
      <stop
         offset="1.0"
         stop-color="#0236b0"
         id="stop103" />
    </radialGradient>
    <linearGradient
       gradientTransform="matrix(7e-4,0.0076,0.0063,-5e-4,14.105824,26.85)"
       gradientUnits="userSpaceOnUse"
       id="gradient7"
       spreadMethod="pad"
       x1="-819.20001"
       x2="819.20001">
      <stop
         offset="0.0"
         stop-color="#5465fd"
         id="stop106" />
      <stop
         offset="0.30980392156862746"
         stop-color="#99ccff"
         id="stop108" />
      <stop
         offset="1.0"
         stop-color="#ccffff"
         id="stop110" />
    </linearGradient>
    <radialGradient
       cx="0"
       cy="0"
       gradientTransform="matrix(0.0274,0,0,0.0274,14.155824,2.75)"
       gradientUnits="userSpaceOnUse"
       id="gradient8"
       r="819.20001"
       spreadMethod="pad">
      <stop
         offset="0.0"
         stop-color="#ffcc66"
         id="stop113" />
      <stop
         offset="0.34509803921568627"
         stop-color="#ff9933"
         id="stop115" />
      <stop
         offset="1.0"
         stop-color="#660000"
         id="stop117" />
    </radialGradient>
    <linearGradient
       gradientTransform="matrix(4e-4,0.002,0.0096,-0.0019,14.005824,7.75)"
       gradientUnits="userSpaceOnUse"
       id="gradient9"
       spreadMethod="pad"
       x1="-819.20001"
       x2="819.20001">
      <stop
         offset="0.0"
         stop-color="#990000"
         id="stop120" />
      <stop
         offset="0.9254901960784314"
         stop-color="#ff9933"
         id="stop122" />
      <stop
         offset="1.0"
         stop-color="#ff9933"
         id="stop124" />
    </linearGradient>
    <linearGradient
       gradientTransform="matrix(0,0.0139,0.0111,0,12.905824,12)"
       gradientUnits="userSpaceOnUse"
       id="gradient10"
       spreadMethod="pad"
       x1="-819.20001"
       x2="819.20001">
      <stop
         offset="0.0"
         stop-color="#996600"
         id="stop127" />
      <stop
         offset="1.0"
         stop-color="#660000"
         id="stop129" />
    </linearGradient>
    <radialGradient
       cx="0"
       cy="0"
       gradientTransform="matrix(0.0264,0,0,0.0264,10.905824,2.05)"
       gradientUnits="userSpaceOnUse"
       id="gradient11"
       r="819.20001"
       spreadMethod="pad">
      <stop
         offset="0.0"
         stop-color="#999999"
         id="stop132" />
      <stop
         offset="0.1803921568627451"
         stop-color="#666666"
         id="stop134" />
      <stop
         offset="0.8784313725490196"
         stop-color="#000000"
         id="stop136" />
      <stop
         offset="1.0"
         stop-color="#000000"
         id="stop138" />
    </radialGradient>
    <linearGradient
       gradientTransform="matrix(-0.0082,0.0011,2e-4,0.0016,12.355824,4.8)"
       gradientUnits="userSpaceOnUse"
       id="gradient12"
       spreadMethod="pad"
       x1="-819.20001"
       x2="819.20001">
      <stop
         offset="0.0"
         stop-color="#333333"
         id="stop141" />
      <stop
         offset="0.40784313725490196"
         stop-color="#bdbdbd"
         id="stop143" />
      <stop
         offset="0.5843137254901961"
         stop-color="#999999"
         id="stop145" />
      <stop
         offset="1.0"
         stop-color="#333333"
         id="stop147" />
    </linearGradient>
  </defs>
</svg>
